<?xml version="1.0" encoding="UTF-8" ?>
<!DOCTYPE svg PUBLIC "-//W3C//DTD SVG 1.1//EN" "http://www.w3.org/Graphics/SVG/1.1/DTD/svg11.dtd">
<svg width="210pt" height="210pt" viewBox="0 0 210 210" version="1.1" xmlns="http://www.w3.org/2000/svg">
<g id="#f66264ff">
<path fill="#f66264" opacity="1.00" d=" M 91.58 4.78 C 113.66 2.00 136.63 6.79 155.65 18.38 C 176.05 30.65 191.83 50.42 199.11 73.10 C 206.99 97.22 205.26 124.36 194.18 147.22 C 183.51 169.63 164.16 187.74 141.07 196.88 C 118.37 206.01 92.28 206.34 69.35 197.81 C 45.70 189.16 25.67 171.17 14.50 148.61 C 3.93 127.61 1.25 102.83 6.92 80.03 C 12.08 58.74 24.60 39.37 41.75 25.76 C 56.01 14.36 73.46 6.99 91.58 4.78 M 99.14 52.17 C 97.70 52.92 98.10 54.64 97.98 55.96 C 98.07 80.33 97.89 104.70 98.07 129.06 C 98.30 131.93 102.07 130.75 104.00 131.06 C 105.92 130.74 109.72 131.94 109.93 129.05 C 110.11 104.69 109.92 80.32 110.02 55.96 C 109.90 54.64 110.30 52.94 108.88 52.18 C 105.65 51.85 102.37 51.84 99.14 52.17 M 99.14 142.17 C 98.89 142.42 98.41 142.92 98.17 143.16 C 98.29 146.59 96.84 151.04 99.12 153.82 C 102.47 153.91 106.32 154.68 109.39 153.37 C 110.67 150.29 109.91 146.46 109.82 143.11 C 107.00 140.83 102.57 142.29 99.14 142.17 Z" />
</g>
<g id="#ffffffff">
<path fill="#ffffff" opacity="1.00" d=" M 99.14 52.17 C 102.37 51.84 105.65 51.85 108.88 52.18 C 110.30 52.94 109.90 54.64 110.02 55.96 C 109.92 80.32 110.11 104.69 109.93 129.05 C 109.72 131.94 105.92 130.74 104.00 131.06 C 102.07 130.75 98.30 131.93 98.07 129.06 C 97.89 104.70 98.07 80.33 97.98 55.96 C 98.10 54.64 97.70 52.92 99.14 52.17 Z" />
<path fill="#ffffff" opacity="1.00" d=" M 99.14 142.17 C 102.57 142.29 107.00 140.83 109.82 143.11 C 109.91 146.46 110.67 150.29 109.39 153.37 C 106.32 154.68 102.47 153.91 99.12 153.82 C 96.84 151.04 98.29 146.59 98.17 143.16 C 98.41 142.92 98.89 142.42 99.14 142.17 Z" />
</g>
</svg>
