<?xml version="1.0" encoding="utf-8"?>
<!-- Generator: Adobe Illustrator 16.0.0, SVG Export Plug-In . SVG Version: 6.00 Build 0)  -->
<!DOCTYPE svg PUBLIC "-//W3C//DTD SVG 1.1//EN" "http://www.w3.org/Graphics/SVG/1.1/DTD/svg11.dtd">
<svg version="1.1" id="Layer_1" xmlns="http://www.w3.org/2000/svg" xmlns:xlink="http://www.w3.org/1999/xlink" x="0px" y="0px"
	 width="320px" height="300px" viewBox="0 0 320 300" enable-background="new 0 0 320 300" xml:space="preserve">
<rect display="none" stroke="#000000" stroke-miterlimit="10" width="320" height="300"/>
<path fill="#FFFFFF" d="M23.625,24H0.375C0.168,24,0,23.832,0,23.625v-0.75C0,22.668,0.168,22.5,0.375,22.5h23.25
	c0.207,0,0.375,0.168,0.375,0.375v0.75C24,23.832,23.833,24,23.625,24z M21.75,19.5h-3c-0.828,0-1.5-0.672-1.5-1.5V6
	c0-0.828,0.672-1.5,1.5-1.5h3c0.828,0,1.5,0.672,1.5,1.5v12C23.25,18.828,22.579,19.5,21.75,19.5z M21.75,6h-3v12h3V6z M13.5,19.5
	h-3C9.672,19.5,9,18.828,9,18V1.5C9,0.672,9.672,0,10.5,0h3C14.329,0,15,0.672,15,1.5V18C15,18.828,14.329,19.5,13.5,19.5z
	 M13.5,1.5h-3V18h3V1.5z M5.25,19.5h-3c-0.828,0-1.5-0.672-1.5-1.5v-7.5c0-0.828,0.672-1.5,1.5-1.5h3c0.828,0,1.5,0.672,1.5,1.5V18
	C6.75,18.828,6.079,19.5,5.25,19.5z M5.25,10.5h-3V18h3V10.5z"/>
<path fill="#FFFFFF" d="M103.254,24H84.677c-0.872,0-1.583-0.714-1.583-1.593V9.313c0-0.879,0.71-1.594,1.583-1.594h18.577
	c0.874,0,1.583,0.715,1.583,1.594v13.094C104.836,23.286,104.127,24,103.254,24z M84.677,8.623c-0.377,0-0.685,0.31-0.685,0.689
	v13.094c0,0.38,0.308,0.688,0.685,0.688h18.577c0.377,0,0.685-0.309,0.685-0.688V9.312c0-0.38-0.308-0.689-0.685-0.689H84.677z
	 M95.667,16.278H83.543c-0.248,0-0.449-0.202-0.449-0.452s0.201-0.451,0.449-0.451h12.123c0.248,0,0.449,0.202,0.449,0.451
	C96.117,16.076,95.915,16.278,95.667,16.278z M98.359,23.962c-0.247,0-0.449-0.202-0.449-0.452v-7.684
	c0-0.25,0.202-0.451,0.449-0.451c0.249,0,0.45,0.202,0.45,0.451v7.684C98.811,23.76,98.608,23.962,98.359,23.962z M104.199,16.278
	h-5.838c-0.247,0-0.449-0.202-0.449-0.452V8.594c0-0.25,0.202-0.451,0.449-0.451c0.249,0,0.45,0.202,0.45,0.451v6.781h5.388
	c0.248,0,0.448,0.202,0.448,0.451C104.646,16.076,104.445,16.278,104.199,16.278z M95.667,18.086H83.543
	c-0.248,0-0.449-0.203-0.449-0.452c0-0.25,0.201-0.452,0.449-0.452h12.123c0.248,0,0.449,0.202,0.449,0.452
	C96.117,17.884,95.915,18.086,95.667,18.086z M104.199,18.086h-5.838c-0.247,0-0.449-0.203-0.449-0.452
	c0-0.25,0.202-0.452,0.449-0.452h5.838c0.248,0,0.448,0.202,0.448,0.452S104.445,18.086,104.199,18.086z M95.163,8.143
	c-0.03,0-0.061,0.108-0.091,0.102c-2.26-0.475-7.517-1.715-7.517-3.493c0-1.731,3.615-4.751,5.239-4.751
	c0.399,0,0.644,0.175,0.777,0.31c0.982,0.989,1.83,6.185,2.022,7.44c0.019,0.049,0.028-0.006,0.028,0.048
	c0,0.25-0.202,0.344-0.45,0.344C95.168,8.143,95.166,8.143,95.163,8.143z M92.793,0.932c-1.258,0-4.342,2.752-4.342,3.876
	c0,0.618,2.814,1.756,6.165,2.523c-0.416-2.519-1.142-5.826-1.681-6.368C92.921,0.948,92.875,0.932,92.793,0.932z M95.941,8.366
	c-0.114,0-0.225-0.043-0.308-0.124c-0.107-0.102-0.159-0.25-0.136-0.396c0.164-1.079,1.028-6.508,2.036-7.523
	c0.135-0.135,0.378-0.296,0.778-0.296c1.624,0,5.24,3.05,5.24,4.781c0,1.777-5.257,3.073-7.518,3.548
	C96.001,8.364,95.972,8.366,95.941,8.366z M98.311,0.932c-0.082,0-0.127,0.015-0.142,0.031c-0.539,0.542-1.266,3.85-1.68,6.368
	c3.351-0.767,6.164-1.905,6.164-2.523C102.652,3.685,99.567,0.932,98.311,0.932z M95.667,23.962c-0.249,0-0.45-0.202-0.45-0.452
	V8.594c0-0.25,0.201-0.451,0.45-0.451c0.248,0,0.449,0.202,0.449,0.451V23.51C96.117,23.76,95.915,23.962,95.667,23.962z"/>
<path fill="#FFFFFF" d="M55.973,4.991C57.324,2.473,59.339,0,59.339,0H46.592c0,0,2.054,2.48,3.4,4.991
	c-1.88,1.028-6.547,4.347-6.469,11.957c0.3,4.549,3.057,7.051,8.195,7.051l0.72-0.004c0.106,0,0.202,0.001,0.326,0.006
	c0.063,0,0.138-0.007,0.219-0.027C53.063,23.993,53.139,24,53.201,24h0.046c0.079-0.005,0.173-0.006,0.281-0.006l0.719,0.004
	c5.138,0,7.895-2.502,8.196-7.085C62.521,9.335,57.853,6.018,55.973,4.991z M54.248,22.781l-0.719-0.004
	c-0.074,0-0.144,0.001-0.208,0.002h-0.675c-0.064-0.001-0.133-0.002-0.207-0.002l-0.72,0.004c-3.074,0-6.646-0.846-6.979-5.879
	c-0.078-7.782,5.252-10.6,6.321-11.085l0.557-0.253l-0.254-0.555c-0.559-1.216-1.6-2.991-2.305-3.948h7.851
	c-0.705,0.957-1.747,2.731-2.305,3.948l-0.254,0.555l0.556,0.253c1.069,0.485,6.399,3.303,6.322,11.051
	C60.894,21.935,57.321,22.781,54.248,22.781z M52.747,12.943c-0.858-0.201-1.206-0.482-1.206-1.071c0-0.737,0.604-1.112,1.206-1.112
	V12.943z M53.536,15.073c1.058,0.295,1.446,0.549,1.446,1.26c0,0.856-0.79,1.245-1.446,1.312V15.073z M49.411,15.876
	c0.202,2.103,1.353,3.187,3.335,3.335v1.138h0.79v-1.138c2.665-0.175,3.348-2.036,3.348-2.799c0-0.896-0.054-2.384-2.665-3.107
	c-0.242-0.066-0.469-0.121-0.684-0.174V10.76c0.603,0,1.098,0.576,1.112,1.287h1.901c-0.107-1.848-1.419-2.679-3.013-2.854V8.162
	h-0.79v1.031c-1.608,0.094-3.108,1.031-3.108,2.866c0,1.781,1.339,2.303,2.679,2.665c0.174,0.041,0.335,0.081,0.429,0.121v2.799
	c-0.817-0.161-1.446-0.776-1.433-1.768H49.411z"/>
<path fill="#FFFFFF" d="M134.95,24c-6.627,0-12-5.373-12-12s5.373-12,12-12c6.625,0,12,5.373,12,12S141.576,24,134.95,24z
	 M134.95,1.5c-5.8,0-10.5,4.701-10.5,10.5s4.7,10.5,10.5,10.5c4.445,0,8.233-2.765,9.766-6.665
	c-0.003-0.029-0.016-0.055-0.016-0.085c0-0.22,0.098-0.414,0.25-0.55c0.321-1.009,0.5-2.083,0.5-3.2
	C145.45,6.201,140.749,1.5,134.95,1.5z M140.73,9.531l-6.75,6.75l0,0c-0.137,0.136-0.324,0.22-0.531,0.22
	c-0.231,0-0.43-0.112-0.57-0.276l-0.007,0.006l-3.75-4.5l0.007-0.006c-0.106-0.13-0.18-0.291-0.18-0.474
	c0-0.414,0.335-0.75,0.75-0.75c0.23,0,0.43,0.112,0.568,0.276l0.007-0.006l3.225,3.87l6.168-6.17l0,0
	c0.136-0.136,0.324-0.22,0.531-0.22c0.413,0,0.75,0.336,0.75,0.75C140.95,9.207,140.866,9.395,140.73,9.531z"/>
<path fill="#FFFFFF" d="M185.829,15.494c-0.146,2.087-0.896,3.771-3.216,5.262c-0.045,0.141-0.034,0.529-0.029,0.791
	c0.018,0.683,0.033,1.455-0.427,1.875c-0.232,0.254-0.642,0.368-1.312,0.368c-0.31,0-0.621-0.023-0.873-0.042
	c-0.168-0.012-0.312-0.023-0.406-0.023l-0.08,0.038l-0.149-0.034c-0.185-0.041-0.332-0.144-0.428-0.297
	c-0.161-0.26-0.112-0.559-0.05-0.834c-0.813,0.194-1.498,0.231-2.563,0.231c-0.287,0-0.573-0.009-0.856-0.027
	c-0.045,0.371-0.151,0.856-0.61,0.997l-0.117,0.02c-0.374,0.014-0.742,0.026-1.046,0.026c-0.307,0-0.518-0.012-0.665-0.037
	c-0.344-0.014-0.539-0.152-0.649-0.268c-0.156-0.163-0.234-0.368-0.271-0.582l-0.066,0.032c-0.354,0.157-0.904,0.18-1.203,0.18
	c-0.604,0-1.653-0.083-1.93-0.638l-0.027-0.073c-0.25-0.859,0.002-1.52,0.151-1.914c0.005-0.011,0.009-0.022,0.015-0.034
	c-0.125-0.083-0.246-0.162-0.365-0.238c-0.506-0.326-0.981-0.634-1.406-1.172c-0.418-0.457-0.771-0.468-1.257-0.483
	c-0.464-0.013-1.036-0.029-1.604-0.541l-0.063-0.068c-0.713-0.964-0.271-3.32,0.05-3.738c0.313-0.404,0.696-0.407,0.931-0.408
	c0.176-0.001,0.19-0.001,0.25-0.152c0.166-2.024,1.188-3.233,2.452-4.41c-0.271-0.433-0.379-0.952-0.298-1.46
	c0.091-0.569,0.406-1.035,0.87-1.275c0.327-0.144,0.646-0.209,0.966-0.209c0.975,0,1.771,0.601,2.118,0.913
	c0.709-0.131,2.853-0.501,4.481-0.501c5.474,0,9.412,3.085,9.801,7.358c0.021,0.243,1.326,0.086,1.992-0.86
	C187.977,14.631,185.854,15.175,185.829,15.494z M176.139,7.679c-1.852,0-4.515,0.524-4.541,0.529l-0.25,0.05l-0.175-0.189
	c-0.006-0.007-0.755-0.801-1.637-0.801c-0.197,0-0.39,0.04-0.573,0.12c-0.176,0.092-0.318,0.314-0.361,0.596
	c-0.062,0.379,0.064,0.771,0.338,1.049l0.332,0.338l-0.353,0.319c-1.541,1.396-2.347,2.422-2.469,4.153l-0.028,0.128
	c-0.3,0.797-0.834,0.8-1.121,0.802c-0.173,0-0.176,0.005-0.213,0.052c-0.136,0.262-0.445,2.005-0.063,2.606
	c0.307,0.256,0.595,0.264,0.979,0.275c0.552,0.016,1.229,0.035,1.929,0.804c0.353,0.444,0.748,0.699,1.207,0.994
	c0.194,0.127,0.399,0.26,0.611,0.412l0.063,0.048c0.272,0.278,0.141,0.641,0.037,0.906c-0.115,0.304-0.271,0.712-0.154,1.227
	c0.139,0.066,0.533,0.16,1.107,0.16c0.314,0,0.57-0.031,0.727-0.067c-0.006-0.049-0.012-0.141-0.016-0.196
	c-0.017-0.186-0.052-0.684,0.414-0.806l0.139-0.036l0.138,0.049c0.125,0.046,0.253,0.091,0.382,0.133l0.074,0.023l0.063,0.048
	c0.262,0.201,0.25,0.533,0.237,0.883c-0.005,0.159-0.021,0.533,0.046,0.619l0.129-0.001c0.051,0.009,0.188,0.025,0.53,0.025
	c0.246,0,0.535-0.008,0.834-0.018c0.028-0.109,0.047-0.288,0.056-0.375c0.021-0.221,0.066-0.682,0.521-0.682l0.045,0.002
	c0.387,0.038,0.783,0.057,1.184,0.057c1.178,0,1.816-0.043,2.735-0.309l0.058-0.013c0.295-0.046,0.487,0.04,0.627,0.217
	c0.209,0.267,0.127,0.602,0.058,0.896c-0.011,0.032-0.021,0.07-0.027,0.111c0.089,0.005,0.188,0.011,0.292,0.019
	c0.241,0.017,0.53,0.039,0.811,0.039c0.521,0,0.646-0.082,0.647-0.084l0.041-0.042c0.156-0.132,0.146-0.816,0.136-1.184
	c-0.019-0.681-0.029-1.325,0.449-1.58c2.073-1.334,2.771-2.696,2.771-5.385C184.896,10.461,181.378,7.679,176.139,7.679z
	 M169.443,13.828c-0.739,0-1.344-0.579-1.344-1.29c0-0.71,0.604-1.29,1.344-1.29s1.343,0.579,1.343,1.29
	S170.186,13.828,169.443,13.828z M169.443,12.16c-0.238,0-0.437,0.168-0.437,0.377c0,0.208,0.193,0.378,0.437,0.378
	c0.236,0,0.432-0.17,0.432-0.378S169.682,12.16,169.443,12.16z M176.229,5.617V5.268c-0.604-0.045-0.959-0.378-1.021-1.022h0.583
	c-0.005,0.304,0.188,0.492,0.438,0.542V3.93c-0.022-0.012-0.076-0.024-0.131-0.036c-0.41-0.111-0.82-0.272-0.82-0.818
	c0-0.563,0.459-0.849,0.951-0.878V1.882h0.242v0.316c0.49,0.054,0.896,0.308,0.924,0.875h-0.582
	c-0.004-0.218-0.152-0.396-0.342-0.396v0.729c0.065,0.018,0.135,0.034,0.209,0.054c0.801,0.222,0.817,0.678,0.817,0.953
	c0,0.234-0.208,0.805-1.026,0.858v0.349h-0.24V5.617H176.229z M176.229,2.677c-0.185,0-0.369,0.116-0.369,0.341
	c0,0.181,0.106,0.267,0.369,0.329V2.677z M176.916,4.386c0-0.218-0.119-0.296-0.443-0.386v0.788
	C176.673,4.767,176.916,4.649,176.916,4.386z M178.137,6.172c0.725-0.533,1.2-1.385,1.2-2.354c0-1.617-1.312-2.928-2.927-2.928
	c-1.617,0-2.93,1.311-2.93,2.928c0,0.934,0.441,1.756,1.127,2.291c-0.396,0.037-0.782,0.082-1.147,0.131
	c-0.542-0.659-0.868-1.503-0.868-2.423c0-2.108,1.709-3.817,3.817-3.817c2.106,0,3.815,1.709,3.815,3.817
	c0,0.992-0.387,1.893-1.002,2.571C178.872,6.303,178.512,6.227,178.137,6.172z"/>
<path fill="#484848" d="M19.618,63.546c-0.254,0.253-0.587,0.38-0.92,0.38c-0.149,0-0.299-0.029-0.442-0.082v7.028
	c0,0.959-0.777,1.738-1.738,1.738h-3.041h-0.435h-0.869c-0.48,0-0.869-0.389-0.869-0.869v-0.434v-0.435v-3.041
	c0-0.24-0.194-0.435-0.435-0.435H9.132c-0.24,0-0.434,0.194-0.434,0.435v3.041v0.435v0.434c0,0.48-0.389,0.869-0.869,0.869H6.96
	H6.525H3.484c-0.96,0-1.738-0.778-1.738-1.738V63.82c-0.467,0.168-1.009,0.064-1.377-0.315c-0.503-0.516-0.489-1.341,0.027-1.844
	l1.784-1.739V56.1c0-0.48,0.39-0.869,0.87-0.869h1.737c0.479,0,0.869,0.389,0.869,0.869v0.434l3.638-3.545
	c0.511-0.496,1.328-0.49,1.832,0.015l8.494,8.698C20.128,62.212,20.126,63.038,19.618,63.546z M3.483,71.742h3.041h0.435h0.434
	c0.24,0,0.435-0.194,0.435-0.434v-0.435v-3.476c0-0.48,0.389-0.869,0.869-0.869h2.606c0.48,0,0.869,0.389,0.869,0.869v3.476v0.435
	c0,0.24,0.194,0.434,0.434,0.434h0.435h0.435h3.041c0.48,0,0.869-0.388,0.869-0.869v-7.728l-7.199-7.389L2.615,63.14v7.733
	C2.616,71.354,3.003,71.742,3.483,71.742z M4.788,56.536c0-0.24-0.194-0.434-0.434-0.434h-0.87c-0.24,0-0.434,0.194-0.434,0.434
	v2.541l1.737-1.694L4.788,56.536L4.788,56.536z M19.004,62.316l-8.495-8.698c-0.111-0.111-0.241-0.127-0.308-0.127
	c-0.114,0-0.222,0.043-0.303,0.123L1,62.286c-0.172,0.167-0.176,0.442-0.009,0.614c0.111,0.114,0.242,0.132,0.311,0.132
	c0.114,0,0.222-0.044,0.303-0.123l0.14-0.136v-0.154h0.158l8.293-8.083l7.888,8.083h0.169v0.174l0.134,0.137
	c0.111,0.111,0.24,0.127,0.308,0.127c0.067,0,0.196-0.017,0.307-0.127c0.111-0.111,0.128-0.24,0.128-0.307
	C19.132,62.556,19.116,62.427,19.004,62.316z M10,58.708c0.959,0,1.738,0.779,1.738,1.738c0,0.96-0.778,1.738-1.738,1.738
	s-1.738-0.778-1.738-1.738C8.263,59.486,9.042,58.708,10,58.708z M10,61.315c0.48,0,0.869-0.389,0.869-0.869
	c0-0.479-0.389-0.869-0.869-0.869s-0.869,0.389-0.869,0.869S9.521,61.315,10,61.315z"/>
<g>
	<g>
		<path fill="#484848" stroke="#484848" stroke-width="0.4" stroke-miterlimit="10" d="M122.724,57.467
			c-0.121-0.2-0.369-0.438-0.867-0.438h-13.871l-0.673-1.454c-0.04-0.1-0.095-0.198-0.176-0.305
			c-0.048-0.063-0.099-0.122-0.185-0.198c-0.055-0.048-0.113-0.092-0.175-0.129l-0.034-0.02c-0.062-0.036-0.126-0.068-0.192-0.092
			l-0.044-0.015c-0.065-0.021-0.132-0.04-0.2-0.051l-0.094-0.011c-0.042-0.006-0.084-0.011-0.127-0.011h-2.721
			c-0.73,0-1.323,0.594-1.323,1.323c0,0.73,0.593,1.324,1.323,1.324h1.873l0.756,1.635c0.185,0.542,0.445,1.008,0.445,1.008
			l1.87,4.197c0.015,0.034,0.034,0.064,0.06,0.106l0.349,0.742c0.133,0.438,0.482,0.769,0.909,0.892l-0.004,0.057h9.081l0.416-0.008
			l-0.005-0.052c0.422-0.125,0.767-0.455,0.9-0.889l2.27-5.029C122.439,59.753,123.191,58.242,122.724,57.467z M121.609,59.712
			l-2.154,4.782l-0.061-0.015l-0.096,0.357c-0.067,0.252-0.297,0.429-0.581,0.429c-0.001,0-0.003,0-0.004,0l-0.43-0.012l0.002,0.02
			h-7.888l-0.406-0.005c-0.263,0-0.493-0.177-0.562-0.431l-0.098-0.357l-0.059,0.015l-2.167-4.806
			c-0.002-0.005-0.246-0.441-0.408-0.923l-0.983-2.129h-2.354c-0.315,0-0.569-0.256-0.569-0.571c0-0.313,0.254-0.569,0.569-0.569
			l2.747,0.003l0.069,0.008c0.029,0.005,0.057,0.013,0.104,0.028c0.029,0.011,0.057,0.025,0.098,0.047
			c0.026,0.017,0.051,0.036,0.087,0.067c0.025,0.022,0.047,0.047,0.074,0.082c0.03,0.041,0.053,0.082,0.077,0.142l0.884,1.909
			h14.353c0.177,0,0.209,0.054,0.222,0.074C122.241,58.125,121.971,59.025,121.609,59.712z"/>
		<path fill="#484848" stroke="#484848" stroke-width="0.4" stroke-miterlimit="10" d="M111.439,66.787
			c-1.02,0-1.85,0.83-1.85,1.851s0.831,1.851,1.85,1.851c1.021,0,1.851-0.831,1.851-1.851S112.46,66.787,111.439,66.787z
			 M111.439,69.82c-0.651,0-1.182-0.531-1.182-1.183c0-0.652,0.531-1.182,1.182-1.182c0.653,0,1.183,0.53,1.183,1.182
			C112.624,69.29,112.092,69.82,111.439,69.82z"/>
		<path fill="#484848" stroke="#484848" stroke-width="0.4" stroke-miterlimit="10" d="M117.857,66.787
			c-1.021,0-1.851,0.83-1.851,1.851s0.83,1.851,1.851,1.851s1.851-0.831,1.851-1.851S118.877,66.787,117.857,66.787z M117.857,69.82
			c-0.652,0-1.183-0.531-1.183-1.183c0-0.652,0.531-1.182,1.183-1.182c0.651,0,1.183,0.53,1.183,1.182
			C119.041,69.29,118.508,69.82,117.857,69.82z"/>
	</g>
</g>
<path fill="#484848" d="M88.161,59.473L79.07,71.745c-0.168,0.26-0.455,0.417-0.765,0.417c-0.309,0-0.597-0.157-0.764-0.417
	l-9.092-12.272c-0.178-0.277-0.192-0.628-0.039-0.918l4.924-5c0.158-0.297,0.467-0.483,0.804-0.483h8.222
	c0.331,0,0.636,0.18,0.796,0.469l5.036,5C88.354,58.833,88.342,59.191,88.161,59.473z M78.266,69.698l3.471-10.264h-6.891
	L78.266,69.698z M77.436,70.078l-3.548-10.644h-4.336L77.436,70.078z M74.139,53.98l-4.477,4.545h4.331l3.409-4.545H74.139z
	 M75.118,58.525h6.496l-3.271-4.3L75.118,58.525z M82.359,53.98h-3.067l3.453,4.539l-0.007,0.006h4.199L82.359,53.98z
	 M82.704,59.435l-3.66,10.822l8.017-10.822H82.704z"/>
<g>
	<path fill="#484848" d="M40.627,63.322h-2.821c-1.558,0-2.82,1.263-2.82,2.82v2.82c0,1.558,1.263,2.821,2.82,2.821h2.821
		c1.558,0,2.82-1.264,2.82-2.821v-2.82C43.447,63.174,43.477,63.322,40.627,63.322z M42.549,68.663c0,1.226-0.994,2.221-2.222,2.221
		h-2.221c-1.228,0-2.222-0.995-2.222-2.221v-2.222c0-1.227,0.994-2.221,2.222-2.221h2.221c2.245,0,2.222-0.117,2.222,2.221V68.663z"
		/>
	<path fill="#484848" d="M40.627,53.449h-2.821c-1.557,0-2.82,1.264-2.82,2.821v2.82c0,1.557,1.262,2.82,2.82,2.82h2.821
		c2.849,0,2.82,0.148,2.82-2.82v-2.82C43.447,54.713,42.186,53.449,40.627,53.449z M42.549,58.791c0,2.338,0.023,2.221-2.222,2.221
		h-2.221c-1.228,0-2.222-0.994-2.222-2.221v-2.222c0-1.226,0.994-2.221,2.222-2.221h2.221c1.228,0,2.222,0.995,2.222,2.221V58.791z"
		/>
	<path fill="#484848" d="M50.5,53.449h-2.82c-1.558,0-2.821,1.264-2.821,2.821v2.82c0,2.968-0.029,2.82,2.821,2.82h2.82
		c1.558,0,2.82-1.263,2.82-2.82v-2.82C53.319,54.713,52.057,53.449,50.5,53.449z M52.42,58.791c0,1.227-0.993,2.221-2.221,2.221
		h-2.221c-2.245,0-2.222,0.117-2.222-2.221v-2.222c0-1.226,0.994-2.221,2.222-2.221H50.2c1.227,0,2.22,0.995,2.221,2.221
		L52.42,58.791L52.42,58.791z"/>
	<path fill="#484848" d="M50.5,63.322h-2.82c-2.85,0-2.821-0.148-2.821,2.82v2.82c0,1.557,1.263,2.821,2.821,2.821h2.82
		c1.557,0,2.82-1.263,2.82-2.821v-2.82C53.319,64.585,52.058,63.322,50.5,63.322z M52.42,68.663
		c-0.001,1.226-0.994,2.221-2.221,2.221h-2.221c-1.228,0-2.222-0.995-2.222-2.221v-2.222c0-2.338-0.023-2.221,2.222-2.221H50.2
		c1.228,0,2.221,0.994,2.221,2.221L52.42,68.663L52.42,68.663z"/>
</g>
<path fill="#484848" d="M155.055,72.616h-1.267c0.005-0.104,0.017-0.207,0.017-0.313c0-3.97-3.221-7.188-7.193-7.188
	c-3.971,0-7.191,3.218-7.191,7.188c0,0.105,0.011,0.208,0.016,0.313h-1.268c0-3.597,2.238-6.664,5.391-7.894
	c-2.002-1.09-3.364-3.218-3.364-5.666c0-3.558,2.874-6.441,6.417-6.441c3.545,0,6.418,2.883,6.418,6.441
	c0,2.447-1.359,4.576-3.362,5.666C152.816,65.952,155.055,69.019,155.055,72.616z M151.677,59.057c0-2.809-2.269-5.085-5.065-5.085
	c-2.796,0-5.065,2.277-5.065,5.085s2.269,5.085,5.065,5.085C149.409,64.142,151.677,61.865,151.677,59.057z"/>
<path fill="#FC5008" d="M19.618,111.176c-0.254,0.253-0.586,0.38-0.92,0.38c-0.149,0-0.299-0.029-0.442-0.082v7.028
	c0,0.959-0.777,1.737-1.738,1.737h-3.041h-0.435h-0.868c-0.48,0-0.869-0.389-0.869-0.869v-0.434v-0.435v-3.041
	c0-0.24-0.195-0.435-0.435-0.435H9.132c-0.24,0-0.434,0.194-0.434,0.435v3.041v0.435v0.434c0,0.48-0.389,0.869-0.869,0.869H6.96
	H6.525H3.484c-0.96,0-1.738-0.778-1.738-1.737v-7.052c-0.467,0.168-1.009,0.064-1.377-0.315c-0.503-0.516-0.489-1.341,0.027-1.844
	l1.784-1.739v-3.822c0-0.48,0.39-0.869,0.87-0.869h1.737c0.479,0,0.869,0.389,0.869,0.869v0.434l3.638-3.545
	c0.511-0.496,1.327-0.49,1.832,0.015l8.494,8.698C20.128,109.842,20.127,110.667,19.618,111.176z M3.483,119.371h3.041h0.435h0.434
	c0.24,0,0.435-0.193,0.435-0.434v-0.435v-3.476c0-0.48,0.389-0.869,0.869-0.869h2.607c0.48,0,0.869,0.389,0.869,0.869v3.476v0.435
	c0,0.24,0.193,0.434,0.434,0.434h0.435h0.435h3.041c0.48,0,0.869-0.388,0.869-0.868v-7.728l-7.199-7.389l-7.572,7.383v7.733
	C2.616,118.983,3.003,119.371,3.483,119.371z M4.788,104.166c0-0.24-0.194-0.434-0.434-0.434h-0.87c-0.24,0-0.434,0.194-0.434,0.434
	v2.541l1.737-1.694L4.788,104.166L4.788,104.166z M19.004,109.946l-8.494-8.698c-0.112-0.111-0.242-0.127-0.309-0.127
	c-0.114,0-0.222,0.043-0.303,0.123L1,109.916c-0.172,0.167-0.176,0.442-0.009,0.614c0.111,0.114,0.242,0.132,0.311,0.132
	c0.114,0,0.222-0.044,0.303-0.123l0.14-0.136v-0.154h0.158l8.293-8.083l7.888,8.083h0.169v0.174l0.134,0.137
	c0.11,0.111,0.24,0.127,0.308,0.127c0.066,0,0.196-0.017,0.307-0.127c0.111-0.111,0.128-0.24,0.128-0.307
	C19.132,110.186,19.114,110.057,19.004,109.946z M10,106.337c0.959,0,1.738,0.779,1.738,1.738c0,0.96-0.779,1.738-1.738,1.738
	s-1.738-0.778-1.738-1.738C8.263,107.116,9.042,106.337,10,106.337z M10,108.945c0.48,0,0.869-0.389,0.869-0.869
	c0-0.479-0.389-0.869-0.869-0.869s-0.869,0.389-0.869,0.869S9.521,108.945,10,108.945z"/>
<g>
	<path fill="#FC5008" stroke="#FC5008" stroke-width="0.4" stroke-miterlimit="10" d="M122.724,105.097
		c-0.12-0.2-0.369-0.438-0.867-0.438h-13.87l-0.674-1.454c-0.039-0.1-0.095-0.198-0.175-0.305c-0.049-0.063-0.1-0.122-0.186-0.198
		c-0.055-0.048-0.113-0.092-0.174-0.129l-0.034-0.021c-0.062-0.036-0.127-0.068-0.193-0.092l-0.044-0.015
		c-0.064-0.021-0.131-0.04-0.199-0.051l-0.094-0.011c-0.043-0.006-0.085-0.011-0.127-0.011h-2.722c-0.73,0-1.323,0.594-1.323,1.323
		c0,0.73,0.593,1.324,1.323,1.324h1.872l0.757,1.635c0.186,0.542,0.444,1.008,0.445,1.008l1.87,4.197
		c0.015,0.034,0.034,0.064,0.059,0.106l0.35,0.742c0.134,0.438,0.482,0.769,0.909,0.892l-0.005,0.057h9.082l0.415-0.008
		l-0.005-0.052c0.423-0.125,0.767-0.455,0.899-0.889l2.271-5.029C122.438,107.383,123.19,105.872,122.724,105.097z M121.609,107.342
		l-2.154,4.782l-0.061-0.015l-0.096,0.357c-0.068,0.252-0.297,0.429-0.581,0.429c-0.002,0-0.004,0-0.004,0l-0.429-0.012l0.002,0.02
		h-7.888l-0.406-0.005c-0.263,0-0.492-0.177-0.561-0.431l-0.098-0.357l-0.058,0.015l-2.167-4.806
		c-0.002-0.005-0.246-0.441-0.407-0.923l-0.983-2.129h-2.354c-0.314,0-0.569-0.256-0.569-0.571c0-0.313,0.255-0.569,0.569-0.569
		l2.747,0.003l0.068,0.008c0.029,0.005,0.058,0.013,0.104,0.028c0.028,0.011,0.056,0.025,0.098,0.047
		c0.026,0.017,0.051,0.036,0.087,0.067c0.025,0.021,0.047,0.047,0.074,0.082c0.029,0.041,0.053,0.082,0.076,0.142l0.884,1.909
		h14.353c0.178,0,0.21,0.054,0.223,0.074C122.239,105.754,121.971,106.655,121.609,107.342z"/>
	<path fill="#FC5008" stroke="#FC5008" stroke-width="0.4" stroke-miterlimit="10" d="M111.439,114.417
		c-1.02,0-1.85,0.83-1.85,1.851s0.83,1.851,1.85,1.851c1.021,0,1.852-0.83,1.852-1.851S112.461,114.417,111.439,114.417z
		 M111.439,117.45c-0.651,0-1.182-0.531-1.182-1.183s0.53-1.182,1.182-1.182s1.183,0.53,1.183,1.182S112.092,117.45,111.439,117.45z
		"/>
	<path fill="#FC5008" stroke="#FC5008" stroke-width="0.4" stroke-miterlimit="10" d="M117.856,114.417
		c-1.021,0-1.851,0.83-1.851,1.851s0.83,1.851,1.851,1.851s1.851-0.83,1.851-1.851S118.877,114.417,117.856,114.417z
		 M117.856,117.45c-0.652,0-1.183-0.531-1.183-1.183s0.531-1.182,1.183-1.182s1.184,0.53,1.184,1.182S118.509,117.45,117.856,117.45
		z"/>
</g>
<path fill="#FC5008" d="M88.161,107.103l-9.091,12.272c-0.168,0.26-0.455,0.416-0.765,0.416c-0.309,0-0.597-0.156-0.764-0.416
	l-9.092-12.272c-0.178-0.277-0.192-0.628-0.039-0.918l4.924-5c0.158-0.297,0.467-0.483,0.804-0.483h8.222
	c0.331,0,0.636,0.18,0.796,0.469l5.036,5C88.354,106.463,88.342,106.821,88.161,107.103z M78.266,117.328l3.471-10.264h-6.891
	L78.266,117.328z M77.436,117.708l-3.548-10.644h-4.336L77.436,117.708z M74.139,101.61l-4.477,4.545h4.331l3.409-4.545H74.139z
	 M75.118,106.155h6.496l-3.271-4.3L75.118,106.155z M82.359,101.61h-3.067l3.453,4.539l-0.007,0.006h4.199L82.359,101.61z
	 M82.704,107.064l-3.66,10.822l8.017-10.822H82.704z"/>
<g>
	<path fill="#FC5008" d="M40.627,101.079h-2.821c-1.558,0-2.821,1.264-2.82,2.821v2.82c0,1.557,1.262,2.82,2.82,2.82h2.821
		c2.849,0,2.82,0.148,2.82-2.82v-2.82C43.447,102.343,42.186,101.079,40.627,101.079z M42.549,106.421
		c0,2.338,0.022,2.221-2.222,2.221h-2.222c-1.228,0-2.222-0.994-2.222-2.221v-2.222c0.001-1.226,0.995-2.221,2.222-2.221h2.222
		c1.228,0,2.222,0.995,2.222,2.221V106.421z"/>
	<path fill="#FC5008" d="M50.499,101.079h-2.82c-1.558,0-2.821,1.264-2.821,2.821v2.82c0,2.968-0.029,2.82,2.821,2.82h2.82
		c1.558,0,2.82-1.263,2.82-2.82v-2.82C53.318,102.343,52.057,101.079,50.499,101.079z M52.42,106.421
		c0,1.227-0.994,2.221-2.222,2.221h-2.22c-2.246,0-2.222,0.117-2.222-2.221v-2.222c0-1.226,0.994-2.221,2.222-2.221h2.22
		c1.228,0,2.222,0.995,2.222,2.221V106.421z"/>
	<path fill="#FC5008" d="M40.627,110.952h-2.821c-1.558,0-2.82,1.263-2.82,2.82v2.82c-0.001,1.557,1.262,2.821,2.82,2.821h2.821
		c1.558,0,2.82-1.264,2.82-2.821v-2.82C43.447,110.804,43.477,110.952,40.627,110.952z M42.549,116.293
		c0,1.226-0.994,2.221-2.222,2.221h-2.222c-1.227,0-2.221-0.995-2.222-2.221v-2.222c0-1.227,0.994-2.221,2.222-2.221h2.222
		c2.244,0,2.222-0.117,2.222,2.221V116.293z"/>
	<path fill="#FC5008" d="M50.499,110.952h-2.82c-2.85,0-2.821-0.148-2.821,2.82v2.82c0,1.557,1.263,2.821,2.821,2.821h2.82
		c1.558,0,2.82-1.264,2.82-2.821v-2.82C53.318,112.215,52.057,110.952,50.499,110.952z M52.42,116.293
		c0,1.226-0.994,2.221-2.222,2.221h-2.22c-1.228,0-2.222-0.995-2.222-2.221v-2.222c0-2.338-0.024-2.221,2.222-2.221h2.22
		c1.228,0,2.222,0.994,2.222,2.221V116.293z"/>
</g>
<path fill="#FC5008" d="M155.055,120.246h-1.267c0.005-0.104,0.017-0.207,0.017-0.313c0-3.97-3.221-7.188-7.193-7.188
	c-3.971,0-7.191,3.218-7.191,7.188c0,0.105,0.011,0.208,0.016,0.313h-1.267c0-3.597,2.237-6.664,5.39-7.894
	c-2.002-1.09-3.363-3.218-3.363-5.666c0-3.558,2.873-6.441,6.417-6.441c3.544,0,6.416,2.883,6.416,6.441
	c0,2.447-1.358,4.576-3.361,5.666C152.816,113.582,155.055,116.649,155.055,120.246z M151.677,106.687
	c0-2.809-2.269-5.085-5.065-5.085c-2.796,0-5.065,2.277-5.065,5.085s2.269,5.085,5.065,5.085
	C149.409,111.772,151.677,109.495,151.677,106.687z"/>
<path fill="#6D6D6D" d="M7.94,164.245c0.128,0,0.255-0.05,0.352-0.147c0.193-0.192,0.193-0.512,0-0.705l-7.094-7.146l7.094-7.147
	c0.193-0.195,0.193-0.511,0-0.706s-0.508-0.195-0.701,0l-7.445,7.5c-0.192,0.19-0.192,0.512,0,0.707l7.445,7.5
	C7.686,164.195,7.813,164.245,7.94,164.245z"/>
<path fill="#6D6D6D" stroke="#6D6D6D" stroke-width="0.4" stroke-miterlimit="10" d="M149.477,161.648
	c-0.127,0.129-0.336,0.129-0.463,0l-2.467-2.465c-0.846,0.733-1.949,1.188-3.16,1.188c-2.658,0-4.813-2.154-4.813-4.813
	c0-2.66,2.154-4.813,4.813-4.813c2.659,0,4.813,2.155,4.813,4.813c0,1.211-0.45,2.313-1.188,3.161l2.465,2.466
	C149.605,161.313,149.605,161.521,149.477,161.648z M143.389,151.434c-2.279,0-4.126,1.853-4.126,4.125
	c0,2.279,1.847,4.127,4.126,4.127c1.055,0,2.014-0.396,2.742-1.051c0-0.084,0.03-0.171,0.096-0.236
	c0.066-0.063,0.152-0.096,0.236-0.096c0.65-0.729,1.051-1.688,1.051-2.744C147.514,153.279,145.667,151.434,143.389,151.434z"/>
<g>
	<g>
		<path fill="#6D6D6D" stroke="#6D6D6D" stroke-width="0.2" stroke-miterlimit="10" d="M48.495,151.014
			c-0.123-0.203-0.376-0.445-0.882-0.445H33.518l-0.684-1.477c-0.042-0.102-0.098-0.201-0.179-0.31
			c-0.05-0.064-0.103-0.124-0.188-0.201c-0.056-0.049-0.115-0.094-0.179-0.131l-0.032-0.021c-0.063-0.036-0.129-0.069-0.197-0.093
			l-0.043-0.016c-0.065-0.021-0.135-0.041-0.203-0.051l-0.096-0.012c-0.043-0.006-0.086-0.011-0.129-0.011h-2.766
			c-0.741,0-1.344,0.604-1.344,1.344c0,0.742,0.603,1.346,1.344,1.346h1.902l0.77,1.662c0.188,0.551,0.452,1.023,0.452,1.023
			l1.899,4.265c0.017,0.034,0.035,0.064,0.062,0.107l0.354,0.754c0.135,0.444,0.489,0.782,0.924,0.905l-0.004,0.059h9.228
			l0.423-0.008l-0.006-0.055c0.43-0.127,0.779-0.461,0.915-0.901l2.308-5.108C48.207,153.335,48.971,151.801,48.495,151.014z
			 M47.363,153.294l-2.188,4.858l-0.062-0.014l-0.099,0.356c-0.068,0.256-0.303,0.438-0.592,0.438c0,0-0.003,0-0.004,0l-0.438-0.016
			l0.003,0.021h-8.017l-0.412-0.006c-0.267,0-0.5-0.182-0.569-0.438l-0.101-0.359l-0.062,0.017l-2.2-4.885
			c-0.002-0.007-0.25-0.447-0.415-0.938l-0.999-2.163h-2.393c-0.319,0-0.578-0.261-0.578-0.581c0-0.318,0.259-0.578,0.578-0.578
			l2.792,0.003l0.069,0.008c0.029,0.005,0.058,0.014,0.104,0.029c0.028,0.011,0.06,0.025,0.101,0.048
			c0.026,0.017,0.053,0.037,0.088,0.068c0.025,0.022,0.049,0.048,0.076,0.083c0.029,0.042,0.053,0.083,0.078,0.144l0.896,1.94
			h14.586c0.179,0,0.213,0.059,0.226,0.075C48.004,151.682,47.729,152.596,47.363,153.294z"/>
		<path fill="#6D6D6D" stroke="#6D6D6D" stroke-width="0.2" stroke-miterlimit="10" d="M37.029,160.482
			c-1.037,0-1.88,0.844-1.88,1.882s0.844,1.881,1.88,1.881c1.036,0,1.881-0.845,1.881-1.881
			C38.91,161.327,38.065,160.482,37.029,160.482z M37.029,163.564c-0.662,0-1.201-0.539-1.201-1.201
			c0-0.663,0.539-1.201,1.201-1.201c0.663,0,1.202,0.538,1.202,1.201C38.231,163.025,37.692,163.564,37.029,163.564z"/>
		<path fill="#6D6D6D" stroke="#6D6D6D" stroke-width="0.2" stroke-miterlimit="10" d="M43.551,160.482
			c-1.039,0-1.882,0.844-1.882,1.882s0.843,1.881,1.882,1.881c1.037,0,1.881-0.845,1.881-1.881
			C45.432,161.327,44.586,160.482,43.551,160.482z M43.551,163.564c-0.664,0-1.203-0.539-1.203-1.201
			c0-0.663,0.539-1.201,1.203-1.201c0.66,0,1.201,0.538,1.201,1.201C44.752,163.025,44.211,163.564,43.551,163.564z"/>
	</g>
</g>
<path fill="#6D6D6D" stroke="#6D6D6D" stroke-width="0.2" stroke-miterlimit="10" d="M81.668,164.105
	c-0.185,0.188-0.489,0.188-0.673,0l-3.588-3.586c-1.23,1.068-2.835,1.729-4.597,1.729c-3.867,0-7-3.133-7-7s3.133-7.002,7-7.002
	c3.868,0,7.001,3.135,7.001,7.002c0,1.76-0.655,3.365-1.729,4.6l3.585,3.584C81.855,163.617,81.855,163.92,81.668,164.105z
	 M72.813,149.247c-3.315,0-6.002,2.688-6.002,6.001c0,3.314,2.687,6.002,6.002,6.002c1.534,0,2.929-0.58,3.989-1.527
	c0-0.123,0.044-0.25,0.139-0.344c0.096-0.094,0.221-0.141,0.344-0.141c0.946-1.059,1.528-2.453,1.528-3.99
	C78.813,151.932,76.127,149.247,72.813,149.247z"/>
<path fill="#6D6D6D" d="M112.941,164.245h-15.5c-0.138,0-0.25-0.111-0.25-0.25v-0.5c0-0.138,0.112-0.25,0.25-0.25h15.5
	c0.138,0,0.25,0.112,0.25,0.25v0.5C113.191,164.134,113.079,164.245,112.941,164.245z M111.691,161.245h-2c-0.552,0-1-0.447-1-1v-11
	c0-0.552,0.448-1,1-1h2c0.552,0,1,0.448,1,1v11C112.691,160.798,112.243,161.245,111.691,161.245z M111.691,149.246h-2v11h2V149.246
	z M106.191,161.245h-2c-0.552,0-1-0.447-1-1v-7c0-0.552,0.448-0.999,1-0.999h2c0.552,0,1,0.447,1,0.999v7
	C107.191,160.798,106.743,161.245,106.191,161.245z M106.191,153.245h-2v7h2V153.245z M100.691,161.245h-2c-0.552,0-1-0.447-1-1v-3
	c0-0.552,0.448-1,1-1h2c0.552,0,1,0.448,1,1v3C101.691,160.798,101.243,161.245,100.691,161.245z M100.691,157.245h-2v3h2V157.245z"
	/>
<g>
	<g>
		<path fill="#FC5008" d="M0,194.063c0,1.658,1.343,3,3,3h6c1.657,0,3-1.342,3-3v-6c0-1.654-1.343-3-3-3H3c-1.657,0-3,1.346-3,3
			V194.063z"/>
	</g>
	<g>
		<path fill="#FFFFFF" d="M1.839,189.102c0.563,0.426,1.07,0.842,1.521,1.242c-0.229,0.254-0.408,0.452-0.538,0.594
			c-0.489-0.47-0.971-0.903-1.447-1.308L1.839,189.102z M2.479,191.782c0.26,0.122,0.51,0.226,0.751,0.306
			c-0.272,1.102-0.547,2.264-0.826,3.488l-0.816-0.241C1.897,194.357,2.194,193.174,2.479,191.782z M2.164,186.67
			c0.427,0.334,0.869,0.705,1.327,1.113c-0.192,0.197-0.368,0.387-0.529,0.566c-0.408-0.43-0.829-0.82-1.262-1.182L2.164,186.67z
			 M3.676,189.193h6.93v0.631h-2.05c0,0.318-0.003,0.631-0.009,0.938h1.781v3.692c0,0.724-0.35,1.085-1.048,1.085
			c-0.303,0-0.64-0.01-1.011-0.027c-0.031-0.234-0.077-0.474-0.139-0.715c0.402,0.051,0.73,0.074,0.983,0.074
			c0.359,0,0.538-0.18,0.538-0.538v-0.646c-0.121,0.109-0.275,0.256-0.464,0.433c-0.334-0.431-0.657-0.821-0.969-1.174
			c-0.245,0.702-0.626,1.284-1.146,1.749c-0.136-0.168-0.294-0.338-0.473-0.512c0.739-0.639,1.158-1.566,1.257-2.791H6.333
			c-0.012,0.246-0.04,0.48-0.083,0.709c0.346,0.313,0.685,0.643,1.016,0.985c-0.056,0.052-0.223,0.215-0.501,0.492
			c-0.235-0.271-0.467-0.532-0.696-0.779c-0.229,0.677-0.6,1.243-1.113,1.707c-0.105-0.127-0.22-0.263-0.343-0.405v1.512H3.936
			v-4.854h1.763c0.006-0.319,0.009-0.634,0.009-0.938H3.676V189.193z M3.685,187.552h1.772v-1.03h0.705v1.03h1.967v-1.038h0.705
			v1.038h1.791v0.632H8.834v0.797H8.129v-0.797H6.162v0.809H5.457v-0.809H3.685V187.552z M4.613,193.893
			c0.637-0.597,0.991-1.431,1.063-2.5H4.613V193.893z M6.352,190.762h1.531c0.006-0.291,0.011-0.604,0.014-0.938H6.366
			C6.363,190.094,6.358,190.406,6.352,190.762z M9.65,191.393H8.519c-0.019,0.295-0.056,0.573-0.111,0.84
			c0.498,0.513,0.912,0.951,1.243,1.322L9.65,191.393L9.65,191.393z"/>
	</g>
</g>
<g>
	<g>
		<path fill="#FC5008" d="M21.366,194.063c0,1.658,1.343,3,3,3h6c1.657,0,3-1.342,3-3v-6c0-1.654-1.343-3-3-3h-6
			c-1.657,0-3,1.346-3,3V194.063z"/>
	</g>
	<g>
		<path fill="#FFFFFF" d="M22.755,194.365c0.383-1.031,0.776-2.316,1.178-3.85c0.235,0.108,0.464,0.211,0.687,0.297
			c-0.278,0.996-0.649,2.264-1.113,3.805L22.755,194.365z M22.922,187.648l0.575-0.398c0.433,0.502,0.866,1.037,1.299,1.605
			l-0.64,0.463C23.649,188.59,23.238,188.033,22.922,187.648z M27.617,195.107c0.689-0.563,1.294-1.236,1.813-2.021
			c-0.244-0.977-0.383-2.459-0.417-4.443h-3.085v2.365c0,1.893-0.439,3.42-1.317,4.582c-0.229-0.24-0.417-0.41-0.566-0.51
			c0.823-1.039,1.234-2.408,1.234-4.109v-2.959h3.72c-0.006-0.498-0.009-0.984-0.009-1.457h0.677c0,0.471,0.001,0.955,0.004,1.457
			h2.241v0.631h-2.236c0.012,1.492,0.101,2.689,0.265,3.59c0.427-0.795,0.781-1.686,1.062-2.672l0.668,0.232
			c-0.417,1.289-0.92,2.42-1.507,3.391c0.157,0.56,0.338,0.98,0.542,1.275c0.198,0.24,0.334,0.191,0.408-0.148
			c0.068-0.364,0.127-0.811,0.176-1.336c0.291,0.105,0.52,0.185,0.687,0.232c-0.086,0.654-0.183,1.195-0.288,1.623
			c-0.136,0.488-0.359,0.73-0.668,0.723c-0.266,0.008-0.517-0.145-0.751-0.453c-0.232-0.348-0.428-0.74-0.589-1.18
			c-0.445,0.623-0.933,1.166-1.461,1.633C28.028,195.387,27.827,195.238,27.617,195.107z M26.336,189.467h2.292v0.594h-2.292
			V189.467z M26.503,190.906H28.6v2.727h-1.484v0.576h-0.612L26.503,190.906L26.503,190.906z M27.988,193.059v-1.578h-0.872v1.578
			H27.988z M30.057,186.906l0.473-0.371c0.309,0.311,0.603,0.619,0.881,0.928l-0.529,0.418
			C30.629,187.559,30.354,187.234,30.057,186.906z"/>
	</g>
</g>
<g>
	<g>
		<path fill="#FC5008" d="M42.732,194.063c0,1.658,1.343,3,3,3h6c1.657,0,3-1.342,3-3v-6c0-1.654-1.343-3-3-3h-6
			c-1.657,0-3,1.346-3,3V194.063z"/>
	</g>
	<g>
		<path fill="#FFFFFF" d="M44.089,191.462c0.393-0.161,0.782-0.328,1.169-0.501v-2.125h-1.104v-0.648h1.104v-1.707h0.696v1.707
			h1.048v0.648h-1.048v1.805c0.328-0.148,0.652-0.308,0.974-0.469c0.019,0.285,0.043,0.532,0.074,0.742
			c-0.331,0.158-0.68,0.325-1.048,0.501v3.071c0,0.689-0.275,1.039-0.826,1.039c-0.235,0-0.52-0.004-0.854-0.01
			c-0.025-0.226-0.062-0.473-0.111-0.742c0.322,0.022,0.563,0.037,0.724,0.037c0.248,0,0.371-0.139,0.371-0.408v-2.653
			c-0.343,0.17-0.702,0.347-1.076,0.528L44.089,191.462z M47.364,187.24c1.602,0.013,3.423-0.12,5.464-0.398l0.26,0.695
			c-0.891,0.084-1.71,0.152-2.458,0.209c0.006,0.658,0.036,1.445,0.088,2.361h2.491v0.668H50.76
			c0.133,1.656,0.448,2.799,0.946,3.423c0.253,0.297,0.461,0.444,0.622,0.444c0.118,0,0.195-0.104,0.232-0.314
			c0.062-0.354,0.111-0.782,0.148-1.289c0.248,0.111,0.47,0.193,0.668,0.25c-0.056,0.551-0.118,0.993-0.186,1.327
			c-0.105,0.55-0.359,0.825-0.761,0.825c-0.458,0-0.891-0.278-1.299-0.836c-0.572-0.812-0.926-2.086-1.062-3.83h-2v3.271
			c0.619-0.346,1.194-0.677,1.726-0.99c0.043,0.282,0.09,0.521,0.139,0.715c-0.804,0.438-1.429,0.801-1.874,1.086
			c-0.192,0.123-0.368,0.26-0.529,0.408l-0.482-0.597c0.223-0.217,0.328-0.498,0.315-0.845L47.364,187.24L47.364,187.24z
			 M49.925,187.793c-0.687,0.04-1.305,0.066-1.855,0.078v2.236h1.958C49.983,189.414,49.95,188.643,49.925,187.793z M49.201,194.561
			l0.473-0.381c0.34,0.313,0.674,0.652,1.002,1.03l-0.529,0.437C49.869,195.281,49.554,194.919,49.201,194.561z"/>
	</g>
</g>
<path fill="#FC5008" d="M70.186,197.063c-3.313,0-6-2.687-6-6c0-3.313,2.687-6,6-6s6,2.688,6,6
	C76.186,194.376,73.499,197.063,70.186,197.063z M70.186,185.813c-2.9,0-5.25,2.354-5.25,5.25c0,2.899,2.35,5.25,5.25,5.25
	c2.222,0,4.117-1.381,4.883-3.332c-0.001-0.015-0.008-0.025-0.008-0.043c0-0.107,0.049-0.207,0.125-0.271
	c0.161-0.506,0.25-1.042,0.25-1.604C75.436,188.163,73.085,185.813,70.186,185.813z M73.076,189.828l-3.375,3.375l0,0
	c-0.068,0.066-0.162,0.109-0.265,0.109c-0.116,0-0.215-0.059-0.285-0.141l-0.003,0.004l-1.875-2.25l0.003-0.004
	c-0.053-0.063-0.09-0.146-0.09-0.234c0-0.207,0.167-0.375,0.375-0.375c0.115,0,0.215,0.056,0.284,0.138l0.004-0.002l1.612,1.936
	l3.084-3.086l0,0c0.068-0.067,0.162-0.108,0.266-0.108c0.207,0,0.375,0.168,0.375,0.375
	C73.186,189.666,73.144,189.761,73.076,189.828z"/>
<path fill="#FC5008" d="M104.663,197.428l-7.333,0.016l-4.68,3.119l-0.798-3.119l-1.604-0.016c-1.327,0-2.403-1.494-2.403-2.818
	v-10.645c0-1.324,1.076-2.402,2.403-2.402h14.416c1.327,0,2.403,1.078,2.403,2.402v11.061
	C107.066,196.354,105.99,197.428,104.663,197.428z M106.221,183.963c0-0.863-0.704-1.568-1.567-1.568H90.238
	c-0.864,0-1.568,0.705-1.568,1.568v10.643c0,0.862,0.704,1.983,1.574,1.983l2.283,0.019l0.677,2.521l3.849-2.521l7.602-0.017
	c0.863,0,1.567-0.7,1.567-1.563L106.221,183.963L106.221,183.963z M101.633,190.755c-0.691,0-1.254-0.562-1.254-1.254
	c0-0.69,0.563-1.252,1.254-1.252c0.692,0,1.253,0.562,1.253,1.252C102.887,190.193,102.326,190.755,101.633,190.755z
	 M101.633,189.082c-0.231,0-0.418,0.189-0.418,0.419c0,0.231,0.187,0.418,0.418,0.418s0.418-0.187,0.418-0.418
	C102.051,189.271,101.864,189.082,101.633,189.082z M97.455,190.755c-0.693,0-1.253-0.562-1.253-1.254
	c0-0.69,0.56-1.252,1.253-1.252c0.691,0,1.253,0.562,1.253,1.252C98.708,190.193,98.146,190.755,97.455,190.755z M97.455,189.082
	c-0.23,0-0.418,0.189-0.418,0.419c0,0.231,0.188,0.418,0.418,0.418c0.231,0,0.417-0.187,0.417-0.418
	C97.873,189.271,97.686,189.082,97.455,189.082z M93.276,190.755c-0.692,0-1.253-0.562-1.253-1.254c0-0.69,0.561-1.252,1.253-1.252
	c0.693,0,1.254,0.562,1.254,1.252C94.53,190.193,93.969,190.755,93.276,190.755z M93.276,189.082c-0.23,0-0.418,0.189-0.418,0.419
	c0,0.231,0.188,0.418,0.418,0.418c0.231,0,0.419-0.187,0.419-0.418C93.695,189.271,93.507,189.082,93.276,189.082z"/>
<g>
	<g>
		<g>
			<path fill="#FC5008" stroke="#FC5008" stroke-width="0.2" stroke-miterlimit="10" d="M136.159,185.625
				c-0.128-0.211-0.391-0.463-0.917-0.463h-14.646l-0.711-1.533c-0.043-0.105-0.102-0.209-0.186-0.32
				c-0.052-0.066-0.107-0.131-0.195-0.211c-0.058-0.049-0.119-0.098-0.186-0.135l-0.034-0.023c-0.065-0.037-0.134-0.07-0.205-0.096
				l-0.044-0.018c-0.067-0.021-0.141-0.043-0.211-0.053l-0.1-0.013c-0.045-0.007-0.089-0.013-0.134-0.013h-2.875
				c-0.77,0-1.396,0.627-1.396,1.396c0,0.771,0.626,1.397,1.396,1.397h1.977l0.8,1.728c0.195,0.571,0.469,1.063,0.469,1.063
				l1.974,4.436c0.018,0.034,0.036,0.064,0.064,0.109l0.368,0.783c0.14,0.461,0.508,0.813,0.96,0.938l-0.004,0.063h9.589
				l0.439-0.011l-0.006-0.058c0.446-0.131,0.809-0.479,0.951-0.936l2.398-5.31C135.859,188.039,136.653,186.443,136.159,185.625z
				 M134.982,187.996l-2.273,5.047l-0.064-0.014l-0.103,0.373c-0.071,0.266-0.315,0.455-0.616,0.455c0,0-0.003,0-0.004,0
				l-0.455-0.016l0.003,0.021h-8.331l-0.428-0.006c-0.277,0-0.52-0.188-0.591-0.455l-0.105-0.373l-0.064,0.016l-2.286-5.076
				c-0.002-0.006-0.26-0.465-0.431-0.973l-1.038-2.25h-2.487c-0.331,0-0.601-0.27-0.601-0.602s0.27-0.604,0.601-0.604l2.901,0.002
				l0.072,0.008c0.03,0.008,0.06,0.02,0.108,0.031c0.029,0.012,0.063,0.023,0.105,0.051c0.027,0.02,0.055,0.039,0.091,0.07
				c0.026,0.021,0.051,0.049,0.079,0.086c0.03,0.045,0.055,0.088,0.081,0.148l0.931,2.018h15.157c0.186,0,0.221,0.061,0.235,0.078
				C135.648,186.32,135.363,187.27,134.982,187.996z"/>
			<path fill="#FC5008" stroke="#FC5008" stroke-width="0.2" stroke-miterlimit="10" d="M124.244,195.465
				c-1.077,0-1.954,0.877-1.954,1.957c0,1.078,0.877,1.953,1.954,1.953c1.077,0,1.955-0.879,1.955-1.953
				C126.199,196.344,125.32,195.465,124.244,195.465z M124.244,198.668c-0.688,0-1.248-0.561-1.248-1.248
				c0-0.689,0.561-1.248,1.248-1.248c0.689,0,1.249,0.559,1.249,1.248C125.493,198.107,124.933,198.668,124.244,198.668z"/>
			<path fill="#FC5008" stroke="#FC5008" stroke-width="0.2" stroke-miterlimit="10" d="M131.021,195.465
				c-1.08,0-1.956,0.877-1.956,1.957c0,1.078,0.876,1.953,1.956,1.953c1.078,0,1.955-0.879,1.955-1.953
				C132.976,196.344,132.097,195.465,131.021,195.465z M131.021,198.668c-0.69,0-1.25-0.561-1.25-1.248
				c0-0.689,0.56-1.248,1.25-1.248c0.686,0,1.248,0.559,1.248,1.248C132.269,198.107,131.707,198.668,131.021,198.668z"/>
		</g>
	</g>
</g>
<path fill="#FFFFFF" d="M208.801,146.015c0,1.783-1.443,3.228-3.227,3.228c-1.781,0-3.227-1.445-3.227-3.228
	c0,1.783-1.443,3.228-3.227,3.228c-1.779,0-3.225-1.445-3.225-3.228c0,1.783-1.445,3.228-3.227,3.228s-3.227-1.445-3.227-3.228
	c0,1.783-1.443,3.228-3.227,3.228c-1.781,0-3.227-1.445-3.227-3.228l2.269-6.047h21.271L208.801,146.015z M204.77,138.757h-17.744
	c-0.666,0-1.209-0.542-1.209-1.209s0.543-1.209,1.209-1.209h17.744c0.668,0,1.209,0.542,1.209,1.209S205.438,138.757,204.77,138.757
	 M186.623,150.43L186.623,150.43c0.115-0.009,0.229-0.027,0.342-0.046c0.025-0.005,0.053-0.005,0.074-0.01
	c0.053-0.01,0.104-0.025,0.152-0.037c0.222-0.049,0.436-0.111,0.642-0.193v0.002v5.952h16.128v-5.952v-0.002
	c0.207,0.081,0.421,0.143,0.641,0.193c0.051,0.012,0.102,0.027,0.154,0.037c0.023,0.005,0.051,0.005,0.073,0.01
	c0.112,0.02,0.228,0.037,0.342,0.046l0,0c0.134,0.014,0.269,0.022,0.403,0.022c0.275,0,0.545-0.031,0.807-0.078v8.142
	c0,0.668-0.541,1.211-1.21,1.211h-18.548c-0.667,0-1.21-0.543-1.21-1.211v-8.142c0.263,0.047,0.53,0.078,0.808,0.078
	C186.355,150.452,186.49,150.444,186.623,150.43"/>
<path fill="#FFFFFF" d="M206.044,75.762H185.75c-0.645,0-1.17-0.524-1.17-1.171V54.299c0-0.647,0.525-1.171,1.17-1.171h1.951v1.171
	c0,1.292,1.049,2.341,2.343,2.341c1.293,0,2.341-1.048,2.341-2.341v-1.171h1.172v1.171c0,1.292,1.047,2.341,2.342,2.341
	c1.293,0,2.341-1.048,2.341-2.341v-1.171h1.171v1.171c0,1.292,1.048,2.341,2.341,2.341c1.294,0,2.343-1.048,2.343-2.341v-1.171
	h1.951c0.646,0,1.17,0.524,1.17,1.171v20.292C207.214,75.238,206.689,75.762,206.044,75.762 M202.921,59.763h-14.047
	c-0.647,0-1.173,0.524-1.173,1.17s0.525,1.17,1.173,1.17h14.047c0.646,0,1.172-0.524,1.172-1.17S203.566,59.763,202.921,59.763
	 M202.921,64.835h-14.047c-0.647,0-1.173,0.524-1.173,1.171s0.525,1.171,1.173,1.171h14.047c0.646,0,1.172-0.524,1.172-1.171
	S203.566,64.835,202.921,64.835 M203.116,69.908h-14.438c-0.539,0-0.977,0.437-0.977,0.976s0.438,0.976,0.977,0.976h14.438
	c0.54,0,0.977-0.437,0.977-0.976S203.656,69.908,203.116,69.908 M201.75,55.469c-0.646,0-1.17-0.524-1.17-1.17v-2.342
	c0-0.646,0.523-1.17,1.17-1.17s1.171,0.524,1.171,1.17v2.342C202.921,54.945,202.396,55.469,201.75,55.469 M195.896,55.469
	c-0.646,0-1.17-0.524-1.17-1.17v-2.342c0-0.646,0.523-1.17,1.17-1.17s1.17,0.524,1.17,1.17v2.342
	C197.066,54.945,196.543,55.469,195.896,55.469 M190.044,55.469c-0.646,0-1.17-0.524-1.17-1.17v-2.342c0-0.646,0.522-1.17,1.17-1.17
	s1.17,0.524,1.17,1.17v2.342C191.214,54.945,190.689,55.469,190.044,55.469"/>
<path fill="#FFFFFF" d="M293.739,103.85c0.003,0.017,0.004,0.034,0.006,0.051c0.003,0.031,0.004,0.061,0.005,0.091
	c0,0.003,0,0.005,0,0.008c0,0,0,0.001,0,0.002s0,0.001,0,0.002c0,0.683-0.555,1.236-1.236,1.236h-1.096l-2.648,10.6h-0.004
	c-0.134,0.537-0.615,0.937-1.194,0.937h-0.166h-0.37H273.57l0,0c-0.004,0-0.006,0-0.008,0c-0.58,0-1.063-0.4-1.195-0.937h-0.003
	l-2.649-10.6h-1.096c-0.684,0-1.236-0.553-1.236-1.236s0.555-1.236,1.236-1.236h4.695h4.121h0.041h5.149h0.041h3.049h0.083h1.729
	h0.288h4.697l0,0h0.104c0.565,0.048,1.022,0.478,1.112,1.031C293.734,103.816,293.736,103.833,293.739,103.85 M276.857,106.477
	c0-0.683-0.555-1.236-1.235-1.236c-0.683,0-1.235,0.553-1.235,1.236v6.592c0,0.683,0.553,1.236,1.235,1.236s1.235-0.553,1.235-1.236
	V106.477z M281.802,106.477c0-0.683-0.554-1.236-1.235-1.236c-0.683,0-1.235,0.553-1.235,1.236v6.592
	c0,0.683,0.554,1.236,1.235,1.236c0.683,0,1.235-0.553,1.235-1.236V106.477z M286.746,106.477c0-0.683-0.555-1.236-1.236-1.236
	s-1.236,0.553-1.236,1.236v6.592c0,0.683,0.556,1.236,1.236,1.236c0.684,0,1.236-0.553,1.236-1.236V106.477z M281.96,96.37
	l0.005-0.002c-0.102-0.179-0.163-0.382-0.163-0.602c0-0.683,0.554-1.236,1.236-1.236c0.483,0,0.899,0.282,1.103,0.687l0.004-0.002
	l3.346,6.319h-2.797L281.96,96.37z M279.175,96.37l-2.733,5.163h-2.797l3.347-6.319l0.002,0.001
	c0.202-0.405,0.616-0.686,1.102-0.686c0.683,0,1.236,0.553,1.236,1.236c0,0.22-0.063,0.422-0.163,0.602L279.175,96.37z"/>
<path fill="#FFFFFF" d="M249.65,102.479l-0.012,0.008l-9.656,6.687l-0.002-0.001c-0.181,0.125-0.397,0.198-0.635,0.198
	c-0.228,0-0.441-0.069-0.617-0.187l0,0l-0.004-0.003c-0.002,0-0.002-0.001-0.002-0.001l-4.992-3.326l-5.168,3.04v4.568h20.453
	c0.615,0,1.115,0.499,1.115,1.116c0,0.616-0.5,1.116-1.115,1.116h-21.568c-0.616,0-1.116-0.5-1.116-1.116v-17.85
	c0-0.616,0.5-1.116,1.116-1.116c0.615,0,1.115,0.5,1.115,1.116v9.577l4.642-2.729l0.001,0.003c0.167-0.098,0.357-0.158,0.563-0.158
	c0.229,0,0.442,0.069,0.621,0.188l0,0l0.004,0.002c0,0.001,0,0.001,0,0.002l4.941,3.294l9.047-6.262l0,0
	c0.182-0.124,0.398-0.198,0.635-0.198c0.615,0,1.115,0.499,1.115,1.115c0,0.38-0.191,0.715-0.482,0.916L249.65,102.479z"/>
<path fill="#FFFFFF" d="M288.923,158.074l-1.308-1.307c2.037-2.342,3.281-5.391,3.281-8.735c0-3.347-1.244-6.396-3.281-8.735
	l1.308-1.307c2.369,2.674,3.81,6.188,3.81,10.042C292.732,151.886,291.292,155.4,288.923,158.074 M285.342,154.493l-1.307-1.306
	c1.131-1.414,1.813-3.206,1.813-5.155c0-1.952-0.682-3.742-1.813-5.155l1.307-1.307c1.46,1.75,2.34,4.002,2.34,6.461
	C287.682,150.491,286.802,152.742,285.342,154.493 M279.878,155.378c-0.304,0-0.581-0.101-0.81-0.267l-0.002,0.002l-4.688-3.408
	h-4.604c-0.762,0-1.379-0.616-1.379-1.377v-4.591c0-0.76,0.615-1.375,1.375-1.377v-0.003h4.565l4.666-3.817l0.004,0.005
	c0.237-0.195,0.537-0.316,0.869-0.316c0.761,0,1.376,0.617,1.376,1.376v4.133v3.213v1.378v1.377V154
	C281.254,154.761,280.639,155.378,279.878,155.378"/>
<path fill="#FFFFFF" d="M209.466,114.375c0,0,0.001,0.001,0.001,0.002c0,0.465-0.379,0.842-0.846,0.842h-6.296
	c0.473-0.104,0.825-0.521,0.825-1.023c0,0,0-0.001,0-0.002l0,0c0,0,0-3.825-2.805-5.216c-1.197-0.594-1.277-0.481-1.873-0.622
	l0.018-1.657c0,0-0.655-0.5-0.858-2.064c-0.409,0.118-0.545-0.479-0.567-0.859c-0.022-0.368-0.238-1.515,0.262-1.412
	c-0.104-0.766-0.176-1.457-0.141-1.823c0.125-1.285,1.367-2.628,3.28-2.726c2.25,0.098,3.142,1.439,3.267,2.724
	c0.035,0.366-0.045,1.058-0.146,1.823c0.5-0.103,0.282,1.043,0.258,1.411c-0.021,0.381-0.16,0.976-0.568,0.858
	c-0.205,1.564-0.858,2.06-0.858,2.06l0.015,1.655c0,0,0.416,0.236,2.162,0.958c1.748,0.722,1.2,0.182,2.624,0.888
	C209.467,111.305,209.467,114.375,209.466,114.375L209.466,114.375z M196.787,108.714c1.922,0.795,1.318,0.2,2.884,0.977
	c2.474,1.227,2.474,4.601,2.474,4.601l0,0c0,0,0,0.001,0,0.002c0,0.511-0.416,0.925-0.93,0.925h-17.958
	c-0.514,0-0.93-0.414-0.93-0.925c0-0.001,0-0.001,0-0.002l0,0c0,0,0-3.374,2.473-4.601c1.565-0.776,0.964-0.146,2.886-0.94
	c1.92-0.793,2.375-1.07,2.375-1.07l0.019-1.828c0,0-0.72-0.549-0.942-2.269c-0.449,0.13-0.599-0.527-0.625-0.945
	c-0.025-0.404-0.261-1.665,0.289-1.551c-0.113-0.842-0.193-1.602-0.154-2.004c0.139-1.412,1.502-2.888,3.604-2.996
	c2.474,0.107,3.453,1.583,3.591,2.994c0.039,0.403-0.049,1.163-0.16,2.004c0.549-0.113,0.311,1.146,0.283,1.55
	c-0.023,0.418-0.177,1.073-0.625,0.943c-0.226,1.72-0.943,2.264-0.943,2.264l0.017,1.818
	C194.411,107.662,194.866,107.921,196.787,108.714"/>
<path fill="#FFFFFF" d="M234.116,138.431h-5.486v5.486h5.486V138.431z M235.488,137.06L235.488,137.06v8.23h-8.23v-8.23H235.488z
	 M230.001,139.803h2.743v2.743h-2.743V139.803z M247.833,138.431h-5.485v5.486h5.485V138.431L247.833,138.431z M249.205,137.06
	L249.205,137.06v8.23h-8.23v-8.23H249.205z M243.719,139.803h2.743v2.743h-2.743V139.803z M234.116,152.146h-5.486v5.486h5.486
	V152.146z M235.488,150.775L235.488,150.775v8.229h-8.23v-8.229H235.488z M230.001,153.52h2.743v2.744h-2.743V153.52z
	 M236.859,137.06h1.371v1.372h-1.371V137.06z M238.23,138.431h1.371v1.372h-1.371V138.431z M236.859,139.803h1.371v1.372h-1.371
	V139.803z M238.23,141.175h1.371v1.372h-1.371V141.175z M236.859,142.546h1.371v1.371h-1.371V142.546z M238.23,143.917h1.371v1.373
	h-1.371V143.917z M236.859,145.29h1.371v1.372h-1.371V145.29z M236.859,148.033h1.371v1.372h-1.371V148.033z M238.23,149.404h1.371
	v1.372h-1.371V149.404z M236.859,150.775h1.371v1.371h-1.371V150.775z M238.23,152.146h1.371v1.373h-1.371V152.146z M236.859,153.52
	h1.371v1.371h-1.371V153.52z M238.23,154.891h1.371v1.373h-1.371V154.891z M236.859,156.264h1.371v1.37h-1.371V156.264z
	 M238.23,157.634h1.371v1.372h-1.371V157.634z M247.833,148.033h1.372v1.372h-1.372V148.033z M228.63,148.033h1.371v1.372h-1.371
	V148.033z M230.001,146.661h1.372v1.372h-1.372V146.661z M227.258,146.661h1.372v1.372h-1.372V146.661z M232.744,146.661h1.372
	v1.372h-1.372V146.661z M234.116,148.033h1.372v1.372h-1.372V148.033z M235.488,146.661h1.371v1.372h-1.371V146.661z
	 M239.604,148.033h1.371v1.372h-1.371V148.033z M240.975,146.661h1.373v1.372h-1.373V146.661z M242.348,148.033h1.371v1.372h-1.371
	V148.033z M243.719,146.661h1.371v1.372h-1.371V146.661z M245.09,148.033h1.372v1.372h-1.372V148.033z M246.462,146.661h1.371v1.372
	h-1.371V146.661z M247.833,150.775h1.372v1.371h-1.372V150.775z M239.604,150.775h1.371v1.371h-1.371V150.775z M240.975,149.404
	h1.373v1.372h-1.373V149.404z M242.348,150.775h1.371v1.371h-1.371V150.775z M245.09,150.775h1.372v1.371h-1.372V150.775z
	 M246.462,149.404h1.371v1.372h-1.371V149.404z M247.833,153.52h1.372v1.371h-1.372V153.52z M239.604,153.52h1.371v1.371h-1.371
	V153.52z M240.975,152.146h1.373v1.373h-1.373V152.146z M243.719,152.146h1.371v1.373h-1.371V152.146z M245.09,153.52h1.372v1.371
	h-1.372V153.52z M246.462,152.146h1.371v1.373h-1.371V152.146z M247.833,156.264h1.372v1.37h-1.372V156.264z M240.975,154.891h1.373
	v1.373h-1.373V154.891z M242.348,156.264h1.371v1.37h-1.371V156.264z M243.719,154.891h1.371v1.373h-1.371V154.891z M245.09,156.264
	h1.372v1.37h-1.372V156.264z M240.975,157.634h1.373v1.372h-1.373V157.634z M243.719,157.634h1.371v1.372h-1.371V157.634z
	 M246.462,157.634h1.371v1.372h-1.371V157.634z"/>
<path fill="#FFFFFF" d="M251.802,67.548c-0.061,0.219-0.11,0.441-0.182,0.657c-0.351,1.046-1.138,1.591-2.161,1.867
	c-0.121-0.604-0.213-1.201-0.363-1.784c-0.933-3.571-2.646-6.694-5.354-9.235c-0.138-0.128-0.193-0.233-0.13-0.43
	c0.127-0.405,0.104-0.817-0.021-1.226c-0.084-0.273-0.061-0.302,0.233-0.303c0.899-0.001,1.801-0.005,2.7,0.005
	c0.121,0.002,0.261,0.053,0.355,0.127c1.316,1.012,2.307,2.302,3.116,3.734c0.836,1.476,1.448,3.038,1.721,4.722
	c0.022,0.145,0.056,0.289,0.084,0.434C251.802,66.595,251.802,67.071,251.802,67.548z M224.661,67.125
	c0.104,0.443,0.172,0.898,0.319,1.327c0.162,0.472,0.49,0.835,0.922,1.113c0.098-0.451,0.17-0.868,0.277-1.277
	c0.945-3.585,2.663-6.724,5.396-9.27c0.108-0.099,0.155-0.185,0.108-0.341c-0.134-0.432-0.129-0.87,0.016-1.301
	c0.068-0.209,0.007-0.29-0.219-0.286c-0.512,0.01-1.022-0.001-1.535,0.008c-0.098,0-0.209,0.036-0.288,0.093
	c-0.199,0.145-0.394,0.301-0.573,0.47c-2.125,1.987-3.447,4.439-4.148,7.241c-0.139,0.552-0.186,1.127-0.273,1.693
	C224.661,66.771,224.661,66.949,224.661,67.125z M237.809,75.495c1.271,0.002,2.543,0.021,3.815-0.002
	c1.271-0.025,2.542-0.096,3.763-0.515c1.242-0.426,2.049-1.25,2.319-2.552c0.185-0.886,0.127-1.777-0.019-2.661
	c-0.321-1.964-1.035-3.791-2.004-5.518c-0.988-1.763-2.195-3.353-3.817-4.591c-0.103-0.079-0.25-0.141-0.378-0.142
	c-2.57-0.008-5.141-0.007-7.711-0.001c-0.106,0-0.237,0.034-0.313,0.103c-0.623,0.572-1.285,1.112-1.843,1.746
	c-1.763,2.008-2.964,4.332-3.694,6.896c-0.354,1.246-0.576,2.515-0.406,3.818c0.16,1.242,0.752,2.182,1.922,2.718
	c0.775,0.355,1.594,0.554,2.431,0.589c1.711,0.072,3.425,0.081,5.138,0.116c0.03,0,0.063-0.004,0.184-0.014
	c-0.864-0.352-0.582-1.071-0.666-1.676c-0.113,0-0.209,0-0.305,0c-0.725,0-1.449,0.004-2.173,0c-0.521-0.004-0.896-0.369-0.893-0.85
	c0.004-0.469,0.375-0.834,0.878-0.843c0.556-0.01,1.113-0.002,1.669-0.002c0.271,0,0.543,0,0.819,0c0-1.145,0-2.259,0-3.399
	c-0.336,0-0.652,0.013-0.969-0.002c-1.322-0.067-2.291-0.973-2.373-2.288c-0.051-0.791-0.033-1.59,0.021-2.381
	c0.047-0.684,0.399-1.23,0.978-1.622c0.5-0.339,1.053-0.482,1.65-0.485c0.234-0.001,0.469-0.001,0.715-0.001
	c0-0.28-0.005-0.518,0.001-0.756c0.011-0.558,0.371-0.947,0.865-0.937c0.487,0.01,0.821,0.39,0.828,0.941
	c0.004,0.245,0.001,0.489,0.001,0.753c0.132,0,0.229,0,0.324,0c0.716,0,1.431-0.003,2.146,0.001c0.543,0.003,0.918,0.355,0.918,0.85
	c0.001,0.496-0.371,0.842-0.918,0.844c-0.726,0.003-1.448,0.001-2.172,0.002c-0.095,0-0.187,0.008-0.282,0.012
	c0,1.138,0,2.247,0,3.38c0.271,0,0.524-0.005,0.779,0c1.406,0.035,2.629,0.931,2.598,2.601c-0.011,0.61,0,1.219-0.013,1.829
	c-0.004,0.184-0.033,0.37-0.079,0.549c-0.266,1.017-1.166,1.73-2.271,1.794c-0.332,0.019-0.666,0.002-1.01,0.002
	c-0.084,0.619,0.204,1.34-0.664,1.686C237.727,75.492,237.768,75.495,237.809,75.495z M240.559,56.625
	c0.887,0.078,1.51-0.211,2.026-0.907c0.449-0.601,0.963-1.153,1.176-1.897c0.226-0.787-0.204-1.438-1.013-1.548
	c-0.57-0.079-1.111,0.045-1.629,0.253c-0.924,0.372-1.835,0.771-2.752,1.16c-0.488,0.208-0.977,0.208-1.463-0.004
	c-0.639-0.277-1.273-0.561-1.914-0.833c-0.657-0.279-1.317-0.559-2.045-0.599c-0.926-0.052-1.824,0.551-1.369,1.761
	c0.021,0.058,0.047,0.114,0.072,0.17c0.416,0.89,1.068,1.593,1.77,2.256c0.102,0.095,0.273,0.161,0.415,0.162
	c1.271,0.013,2.542,0.007,3.813,0.007C238.616,56.606,239.594,56.541,240.559,56.625z M238.813,58.791
	c0.795,0,1.59,0.005,2.383-0.002c0.523-0.004,0.861-0.37,0.797-0.836c-0.053-0.386-0.372-0.624-0.852-0.624
	c-2.33-0.001-4.66-0.001-6.99,0c-0.096,0-0.194,0.005-0.289,0.025c-0.364,0.077-0.592,0.375-0.573,0.747
	c0.021,0.422,0.338,0.689,0.839,0.691c1.174,0.002,2.35,0,3.521,0C238.037,58.791,238.426,58.791,238.813,58.791z M246.227,54.674
	c0.358,0.037,0.613-0.086,0.854-0.346c0.504-0.546,1.009-1.091,1.292-1.789c0.344-0.846-0.101-1.494-1.011-1.493
	c-0.855,0-1.584,0.395-2.352,0.734c0.621,0.918,0.643,1.868,0.249,2.888C245.611,54.667,245.922,54.642,246.227,54.674z
	 M239.346,72.068c0.35-0.039,0.569-0.299,0.578-0.653c0.018-0.67,0.016-1.34-0.001-2.01c-0.007-0.296-0.171-0.55-0.465-0.607
	c-0.39-0.074-0.793-0.073-1.2-0.106c0,1.174,0,2.282,0,3.385C238.63,72.077,238.991,72.107,239.346,72.068z M235.439,63.681
	c-0.313,0.039-0.535,0.251-0.547,0.561c-0.029,0.722-0.024,1.445-0.002,2.168c0.008,0.288,0.203,0.51,0.49,0.553
	c0.379,0.056,0.766,0.055,1.148,0.079c0-1.167,0-2.276,0-3.429C236.156,63.634,235.796,63.635,235.439,63.681z M230.602,51.403
	c-0.553-0.222-1.086-0.414-1.677-0.346c-0.69,0.08-1.058,0.609-0.866,1.279c0.058,0.201,0.147,0.396,0.252,0.578
	c0.354,0.628,0.83,1.159,1.361,1.641c0.077,0.071,0.2,0.093,0.377,0.171C229.549,53.451,229.684,52.363,230.602,51.403z
	 M246.371,56.473c0.094-0.001,0.193-0.03,0.277-0.073c0.226-0.113,0.348-0.377,0.302-0.618c-0.058-0.294-0.235-0.479-0.563-0.499
	c-0.431-0.026-0.861-0.016-1.294-0.011c-0.059,0-0.138,0.044-0.17,0.093c-0.239,0.354-0.471,0.716-0.728,1.11
	C244.943,56.475,245.658,56.479,246.371,56.473z M230.344,55.347c-0.029-0.046-0.117-0.075-0.179-0.075
	c-0.353,0.001-0.618,0.252-0.63,0.581c-0.014,0.339,0.224,0.602,0.585,0.62c0.308,0.014,0.616,0.002,0.963,0.002
	C230.824,56.077,230.59,55.708,230.344,55.347z"/>
<path fill="#FFFFFF" d="M292.676,61.255h-1.212c-0.555,0-1.144-0.434-1.31-0.963l-0.693-1.691c-0.263-0.488-0.156-1.21,0.234-1.603
	l0.859-0.857c0.395-0.395,0.395-1.037,0-1.429l-1.429-1.428c-0.394-0.392-1.034-0.392-1.428,0l-0.859,0.858
	c-0.391,0.393-1.112,0.5-1.604,0.238l-1.687-0.694c-0.528-0.165-0.964-0.754-0.964-1.31v-1.211c0-0.553-0.456-1.009-1.01-1.009
	h-2.018c-0.558,0-1.012,0.456-1.012,1.009v1.211c0,0.556-0.432,1.145-0.963,1.31l-1.689,0.694c-0.49,0.263-1.209,0.156-1.602-0.238
	l-0.861-0.858c-0.393-0.392-1.033-0.392-1.426,0l-1.428,1.428c-0.393,0.392-0.393,1.034,0,1.428l0.857,0.858
	c0.394,0.393,0.5,1.114,0.236,1.603l-0.695,1.691c-0.164,0.531-0.752,0.965-1.31,0.965l-1.21-0.002c-0.555,0-1.01,0.454-1.01,1.01
	v2.018c0,0.556,0.455,1.01,1.01,1.01h1.21c0.558,0.001,1.144,0.436,1.308,0.965l0.697,1.689c0.262,0.49,0.154,1.213-0.236,1.604
	l-0.859,0.858c-0.391,0.393-0.391,1.035,0,1.428l1.43,1.428c0.393,0.393,1.033,0.393,1.426,0l0.86-0.858
	c0.392-0.392,1.11-0.5,1.601-0.234l1.691,0.695c0.531,0.166,0.963,0.753,0.963,1.308v1.208c0,0.554,0.454,1.009,1.012,1.009h2.018
	c0.554,0,1.01-0.455,1.01-1.009v-1.208c0-0.555,0.436-1.142,0.964-1.308l1.69-0.695c0.488-0.265,1.212-0.157,1.604,0.234
	l0.854,0.858c0.394,0.393,1.035,0.393,1.428,0l1.429-1.428c0.394-0.393,0.394-1.035,0-1.428l-0.858-0.858
	c-0.393-0.392-0.498-1.115-0.235-1.604l0.694-1.689c0.166-0.529,0.756-0.964,1.309-0.964h1.212c0.554,0,1.009-0.454,1.009-1.009
	v-2.02C293.684,61.709,293.229,61.255,292.676,61.255 M285.615,63.272c0,2.788-2.26,5.044-5.047,5.044
	c-2.786,0-5.045-2.257-5.045-5.044c0-2.786,2.259-5.043,5.045-5.043C283.355,58.229,285.615,60.486,285.615,63.272"/>
<path fill="#ECDED2" d="M176.385,202.28c-0.201,0-0.398-0.076-0.551-0.229c-0.301-0.302-0.301-0.8,0-1.102l11.087-11.17
	l-11.087-11.168c-0.301-0.307-0.301-0.801,0-1.104s0.794-0.304,1.096,0l11.635,11.724c0.302,0.299,0.302,0.799,0,1.104
	l-11.635,11.722C176.782,202.204,176.584,202.28,176.385,202.28z"/>
<g>
	<path fill="#FFFFFF" d="M270.887,181.784v-0.004H207.67v0.001c-4.41,0.009-7.982,3.586-7.982,7.999s3.572,7.989,7.982,7.999v0.001
		h63.217v-0.005c4.38-0.045,7.918-3.604,7.918-7.995S275.267,181.829,270.887,181.784z M207.688,196.854
		c-3.905,0-7.072-3.166-7.072-7.073c0-3.906,3.167-7.072,7.072-7.072s7.072,3.166,7.072,7.072
		C214.76,193.688,211.593,196.854,207.688,196.854z"/>
	<path fill="#FFFFFF" d="M209.934,184.861h-4.556c-0.187,0-0.356,0.104-0.442,0.267l-2.729,2.771
		c-0.086,0.162-0.077,0.355,0.022,0.51l5.035,6.799c0.092,0.145,0.252,0.23,0.424,0.23c0.17,0,0.33-0.086,0.422-0.23l5.037-6.799
		c0.101-0.155,0.105-0.354,0.018-0.518l-2.791-2.77C210.285,184.96,210.117,184.861,209.934,184.861z M205.378,185.364h1.81
		l-1.89,2.518H202.9L205.378,185.364z M207.709,185.501l1.811,2.381h-3.598L207.709,185.501z M202.838,188.386h2.4l1.967,5.896
		L202.838,188.386z M207.664,194.07l-1.895-5.686h3.817L207.664,194.07z M208.098,194.382l2.025-5.996h2.414L208.098,194.382z
		 M210.145,187.882l0.002-0.003l-1.912-2.515h1.699l2.537,2.518H210.145z"/>
</g>
<path fill="#C7C7CC" d="M158.205,197.78c-0.129,0-0.256-0.05-0.353-0.147c-0.193-0.191-0.193-0.512,0-0.705l7.096-7.146
	l-7.096-7.148c-0.193-0.195-0.193-0.512,0-0.706c0.192-0.194,0.508-0.194,0.701,0l7.446,7.503c0.192,0.191,0.192,0.512,0,0.707
	l-7.446,7.502C158.459,197.73,158.333,197.78,158.205,197.78z"/>
</svg>
