<?xml version="1.0" standalone="no"?>
<!DOCTYPE svg PUBLIC "-//W3C//DTD SVG 1.1//EN" "http://www.w3.org/Graphics/SVG/1.1/DTD/svg11.dtd" >
<svg xmlns="http://www.w3.org/2000/svg">
<metadata>
Created by FontForge 20120731 at Fri Nov 20 00:23:47 2015
 By Ads
</metadata>
<defs>
<font id="iconfont" horiz-adv-x="1024" >
  <font-face 
    font-family="iconfont"
    font-weight="500"
    font-stretch="normal"
    units-per-em="1024"
    panose-1="2 0 6 3 0 0 0 0 0 0"
    ascent="896"
    descent="-128"
    x-height="792"
    bbox="0 -128 1108 896"
    underline-thickness="50"
    underline-position="-100"
    unicode-range="U+0078-F681"
  />
<missing-glyph horiz-adv-x="374" 
d="M34 0v682h272v-682h-272zM68 34h204v614h-204v-614z" />
    <glyph glyph-name=".notdef" horiz-adv-x="374" 
d="M34 0v682h272v-682h-272zM68 34h204v614h-204v-614z" />
    <glyph glyph-name=".null" horiz-adv-x="0" 
 />
    <glyph glyph-name="nonmarkingreturn" horiz-adv-x="341" 
 />
    <glyph glyph-name="x" unicode="x" horiz-adv-x="1001" 
d="M281 543q-27 -1 -53 -1h-83q-18 0 -36.5 -6t-32.5 -18.5t-23 -32t-9 -45.5v-76h912v41q0 16 -0.5 30t-0.5 18q0 13 -5 29t-17 29.5t-31.5 22.5t-49.5 9h-133v-97h-438v97zM955 310v-52q0 -23 0.5 -52t0.5 -58t-10.5 -47.5t-26 -30t-33 -16t-31.5 -4.5q-14 -1 -29.5 -0.5
t-29.5 0.5h-32l-45 128h-439l-44 -128h-29h-34q-20 0 -45 1q-25 0 -41 9.5t-25.5 23t-13.5 29.5t-4 30v167h911zM163 247q-12 0 -21 -8.5t-9 -21.5t9 -21.5t21 -8.5q13 0 22 8.5t9 21.5t-9 21.5t-22 8.5zM316 123q-8 -26 -14 -48q-5 -19 -10.5 -37t-7.5 -25t-3 -15t1 -14.5
t9.5 -10.5t21.5 -4h37h67h81h80h64h36q23 0 34 12t2 38q-5 13 -9.5 30.5t-9.5 34.5q-5 19 -11 39h-368zM336 498v228q0 11 2.5 23t10 21.5t20.5 15.5t34 6h188q31 0 51.5 -14.5t20.5 -52.5v-227h-327z" />
    <glyph glyph-name="uniF600" unicode="&#xf600;" 
d="M96 0q-13 0 -22.5 9.5t-9.5 22.5v448q0 13 9.5 22.5t22.5 9.5t22.5 -9.5t9.5 -22.5v-448q0 -13 -9.5 -22.5t-22.5 -9.5zM864 512h-189q12 28 19.5 83t0.5 107q-3 30 -15.5 55t-32.5 42.5t-45 25.5q-15 5 -29.5 6.5t-27.5 -0.5t-24 -7.5t-19 -13.5q-12 -12 -22 -35
t-15 -41t-14 -52l-5 -18l-4 -16q-2 -10 -4 -16.5t-4.5 -14.5t-5 -13.5t-5.5 -10.5q-14 -23 -40 -43t-41 -27t-28 -11h-90q-13 0 -22.5 -9.5t-9.5 -22.5v-448q0 -13 9.5 -22.5t22.5 -9.5h87q22 -12 49 -24t83.5 -26t108.5 -14h216q33 0 68.5 13t51 38.5t44 207.5t28.5 220
q0 39 -31 68t-65 29zM833 21q-4 -7 -24.5 -14t-40.5 -7h-216q-18 0 -37 2t-36 6t-33.5 8.5t-30 10t-26 11t-22 10t-16.5 8.5t-11 6l-4 2h-16h-64v384h64q1 0 7 2h1h1h1h1h1l1 1q7 2 15 5.5t21.5 9.5t27.5 15t29 20.5t28.5 27t23.5 32.5q16 26 35 105q21 85 34 99q3 3 12.5 3
t24.5 -4q3 -2 5.5 -3t6 -3t6.5 -4.5t6.5 -6t6 -7.5t5.5 -9t5 -10.5t4 -12.5t3 -14q5 -46 -4 -98.5t-16 -72t-12 -30.5q-7 -16 2 -31q9 -14 27 -14h235q5 0 12.5 -4.5t13.5 -12.5t6 -16q0 -53 -40 -286q-16 -93 -23 -108z" />
    <glyph glyph-name="uniF601" unicode="&#xf601;" 
d="M767 -64q-9 1 -15 4l-242 134l-242 -133q-4 -2 -8 -3t-8.5 -1t-9 1.5t-7.5 4.5q-17 11 -14 31l47 285l-196 202q-14 14 -8 32.5t25 21.5l156 26q8 2 16 -1t13.5 -9.5t6.5 -15.5q3 -13 -5 -23.5t-21 -13.5l-95 -16l166 -170q3 -4 5 -8.5t3 -9.5t0 -10l-39 -235l200 110
q15 8 31 -1l199 -110l-38 236q-3 16 9 27l164 169l-225 34q-8 2 -14.5 6.5t-9.5 11.5l-100 213l-100 -212q-5 -12 -17.5 -16.5t-24.5 1t-16.5 18t0.5 24.5l130 274q8 18 29 18q9 0 17 -5t12 -13l120 -259l271 -42q19 -3 25 -21.5t-7 -32.5l-197 -201l46 -285q1 -6 -0.5 -12
t-5 -11t-8.5 -8q-8 -6 -18 -6z" />
    <glyph glyph-name="uniF602" unicode="&#xf602;" 
d="M512 -64q-185 0 -316.5 131.5t-131.5 316.5t131.5 316.5t316.5 131.5t316.5 -131.5t131.5 -316.5t-131.5 -316.5t-316.5 -131.5zM512 768q-104 0 -192.5 -51.5t-140 -140t-51.5 -192.5t51.5 -192.5t140 -140t192.5 -51.5t192.5 51.5t140 140t51.5 192.5t-51.5 192.5
t-140 140t-192.5 51.5zM727 502.5q-9 9.5 -22.5 9.5t-22.5 -9l-234 -236l-103 106q-9 9 -22.5 9.5t-23 -9t-9.5 -22.5t9 -23l126 -129h1v-1q1 -1 7 -4q0 -1 1 -1.5t2 -1.5q6 -2 12 -2q7 0 12 2l2 2q1 0 1.5 0.5t1.5 0.5q4 2 6 4v1l256 259q10 9 9.5 22t-9.5 22.5z" />
    <glyph glyph-name="uniF603" unicode="&#xf603;" 
d="M954 -12l-153 163q96 116 96 265q0 38 -7 75t-19.5 70.5t-30.5 64.5t-41 58t-50 50t-58.5 41t-65 31t-70 19.5t-74.5 6.5q-68 0 -131.5 -21t-114.5 -59.5t-89.5 -89.5t-59.5 -114.5t-21 -131.5q0 -113 55.5 -208.5t151.5 -151.5t209 -56q90 0 172 37q12 6 16.5 18.5
t-0.5 24.5q-4 8 -11 13t-15 5.5t-17 -2.5q-69 -32 -145 -32q-96 0 -177 47.5t-128 128.5t-47 176q0 72 28 137t75 112t112 75t137 28q95 0 176 -47t128.5 -128t47.5 -177q0 -141 -98 -244q-9 -9 -9 -22.5t10 -22.5l1 -1l2 -1l1 -1q1 -2 1 -3l166 -177q9 -10 23 -10
q13 1 22 9q10 9 10.5 22t-8.5 23z" />
    <glyph glyph-name="uniF604" unicode="&#xf604;" 
d="M849 -33h-674q-71 0 -99.5 49t5.5 111l340 609q35 63 91 63q13 0 25.5 -4t24 -12t22 -20t18.5 -27l341 -609q34 -63 5.5 -111.5t-99.5 -48.5zM512 735q-9 0 -18 -8t-17 -22l-340 -610q-17 -30 -7 -47q5 -8 16.5 -12.5t28.5 -4.5h674q35 0 45 17t-7 47l-341 610
q-16 30 -34 30zM512 256q-13 0 -22.5 9.5t-9.5 22.5v288q0 13 9.5 22.5t22.5 9.5t22.5 -9.5t9.5 -22.5v-288q0 -13 -9.5 -22.5t-22.5 -9.5zM464 144q0 -20 14 -34t34 -14t34 14t14 34q0 13 -6.5 24t-17.5 17.5t-24 6.5q-20 0 -34 -14t-14 -34z" />
    <glyph glyph-name="uniF605" unicode="&#xf605;" 
d="M512 160q-79 0 -135.5 56.5t-56.5 135.5t56.5 135.5t135.5 56.5t135.5 -56.5t56.5 -135.5t-56.5 -135.5t-135.5 -56.5zM512 480q-53 0 -90.5 -37.5t-37.5 -90.5t37.5 -90.5t90.5 -37.5t90.5 37.5t37.5 90.5t-37.5 90.5t-90.5 37.5zM864 0h-704q-40 0 -68 28t-28 68v512
q0 40 28 68t68 28h96q13 0 22.5 -9.5t9.5 -22.5t-9.5 -22.5t-22.5 -9.5h-96q-13 0 -22.5 -9.5t-9.5 -22.5v-512q0 -13 9.5 -22.5t22.5 -9.5h704q13 0 22.5 9.5t9.5 22.5v512q0 13 -9.5 22.5t-22.5 9.5h-352q-13 0 -22.5 9.5t-9.5 22.5t9.5 22.5t22.5 9.5h352q40 0 68 -28
t28 -68v-512q0 -40 -28 -68t-68 -28zM768 560q0 -20 14 -34t34 -14t34 14t14 34t-14 34t-34 14t-34 -14t-14 -34zM480 768q0 -13 -9.5 -22.5t-22.5 -9.5h-128q-13 0 -22.5 9.5t-9.5 22.5t9.5 22.5t22.5 9.5h128q13 0 22.5 -9.5t9.5 -22.5z" />
    <glyph glyph-name="uniF606" unicode="&#xf606;" 
d="M512 -32q-13 0 -23 9l-96 96q-9 10 -9 23t9.5 22.5t22.5 9.5t23 -9l73 -74l73 74q10 9 23 9h224q13 0 22.5 9.5t9.5 22.5v512q0 13 -9.5 22.5t-22.5 9.5h-640q-13 0 -22.5 -9.5t-9.5 -22.5v-512q0 -13 9.5 -22.5t22.5 -9.5h96q13 0 22.5 -9.5t9.5 -22.5t-9.5 -22.5
t-22.5 -9.5h-96q-40 0 -68 28t-28 68v512q0 40 28 68t68 28h640q40 0 68 -28t28 -68v-512q0 -40 -28 -68t-68 -28h-211l-86 -87q-10 -9 -23 -9zM336 384q-20 0 -34 14t-14 34t14 34t34 14t34 -14t14 -34t-14 -34t-34 -14zM528 384q-20 0 -34 14t-14 34t14 34t34 14t34 -14
t14 -34t-14 -34t-34 -14zM720 384q-20 0 -34 14t-14 34t14 34t34 14t34 -14t14 -34t-14 -34t-34 -14z" />
    <glyph glyph-name="uniF607" unicode="&#xf607;" 
d="M512 -32q-45 0 -87 41l-319 323q-25 31 -37.5 49.5t-24.5 54t-12 76.5q0 106 75 181t181 75q40 0 77.5 -12t69.5 -35q11 -7 13.5 -20t-5.5 -24t-21 -13.5t-24 5.5q-49 35 -110 35q-39 0 -74.5 -15t-61.5 -41t-41 -61.5t-15 -74.5q0 -43 13 -70t46 -69l316 -319
q22 -22 41 -22q18 0 41 23l317 320q58 62 58 137q0 79 -56.5 135.5t-135.5 56.5q-36 0 -69.5 -13t-60.5 -37l-134 -134q-6 -7 -14 -9t-16.5 0t-14.5 9q-4 3 -6 7.5t-3 9.5t0 10t3 9.5t6 8.5l135 135q75 68 174 68q35 0 68 -9t61 -25.5t52 -40.5t40.5 -52t25.5 -61t9 -68
q0 -56 -22 -101.5t-54 -80.5l-317 -320q-42 -42 -87 -42z" />
    <glyph glyph-name="uniF608" unicode="&#xf608;" 
d="M526 -28q-15 0 -32.5 9.5t-36.5 27.5l-182 183h-83q-40 0 -68 28t-28 68v192q0 40 28 68t68 28h83l182 183q37 37 69 37q9 0 17.5 -3.5t16 -10t12 -18.5t4.5 -28v-704q0 -31 -15 -45.5t-35 -14.5zM192 512q-13 0 -22.5 -9.5t-9.5 -22.5v-192q0 -13 9.5 -22.5t22.5 -9.5
h96q13 0 23 -9l192 -192l9 -9v676q-5 -4 -9 -9l-192 -192q-10 -9 -23 -9h-96zM688 166q-11 0 -19 6q-11 7 -13 20.5t6 23.5l12 18q22 29 32 45t20 45t10 60q0 33 -9 60.5t-18.5 42.5t-29.5 42q-10 13 -17 23q-8 10 -6 23.5t13 20.5q7 5 15.5 6t16.5 -2.5t13 -10.5
q3 -5 6.5 -9.5t9.5 -11.5q23 -31 34.5 -49.5t23.5 -55.5t12 -79q0 -25 -5 -49t-11 -41t-17.5 -37.5t-19 -31t-21.5 -29.5l-12 -17q-11 -13 -26 -13zM796 57q-12 0 -21 8q-10 9 -10.5 22t7.5 23q58 66 91 130t33 144t-33 144t-91 130q-8 10 -7.5 23t10.5 22q7 6 15.5 7.5
t16.5 -1t14 -9.5q16 -18 29 -35t28 -38t26.5 -41t22 -44t18 -48.5t11.5 -52.5t4 -57q0 -94 -38 -168.5t-101 -147.5q-3 -3 -6 -5t-6 -3.5t-6 -2t-7 -0.5z" />
    <glyph glyph-name="uniF609" unicode="&#xf609;" 
d="M352 320h-128q-13 0 -22.5 9.5t-9.5 22.5t9.5 22.5t22.5 9.5h96v96q0 13 9.5 22.5t22.5 9.5t22.5 -9.5t9.5 -22.5v-128q0 -13 -9.5 -22.5t-22.5 -9.5zM702 229q-46 0 -81.5 -28.5t-45.5 -72.5h-124q-7 29 -25 52t-45 36t-57 13q-27 0 -51 -10.5t-42 -28t-28 -41.5
t-10 -51q0 -54 38 -92.5t93 -38.5q44 0 79 27.5t47 69.5h126q12 -42 46.5 -69.5t79.5 -27.5q54 0 92.5 38.5t38.5 92.5t-38.5 92.5t-92.5 38.5zM323.5 31q-27.5 0 -47 19.5t-19.5 47.5t19.5 47.5t47 19.5t47.5 -19.5t20 -47.5t-20 -47.5t-47.5 -19.5zM702 31q-18 0 -33.5 9
t-24.5 24.5t-9 33.5q0 28 19.5 47.5t47.5 19.5t47.5 -19.5t19.5 -47.5t-19.5 -47.5t-47.5 -19.5zM864 800h-464q-13 0 -25.5 -4t-22 -11.5t-17 -17t-11.5 -22t-4 -25.5v-92l-195 -98q-2 -2 -4 -2q-56 -40 -56 -112v-322q0 -9 4.5 -16t12 -11.5t15.5 -4.5q14 0 23 9.5t9 22.5
v322q0 38 27 58l210 105q1 1 3 2q0 1 1 1q4 3 5 4t4 5l3 6q0 2 1 6v2l1 3v112q0 7 4.5 11.5t11.5 4.5h464q13 0 22.5 -9.5t9.5 -23.5v-607q0 -13 9.5 -22.5t22.5 -9.5t22.5 9.5t9.5 22.5v607q0 40 -28 68.5t-68 28.5z" />
    <glyph glyph-name="uniF60A" unicode="&#xf60a;" 
d="M799 -4h-639q-26 0 -48 12.5t-35 35t-13 48.5v578q0 40 28 68t68 28h642q40 0 68 -28t28 -68v-94q0 -13 -9 -22.5t-22.5 -9.5t-23 9.5t-9.5 22.5v94q0 5 -1.5 10t-4.5 9t-7 7t-8.5 4.5t-10.5 1.5h-642q-13 0 -22.5 -9.5t-9.5 -22.5v-578q0 -14 9.5 -23t22.5 -9h639
q14 0 23 9t9 23v98q0 14 9.5 23t23 9t22.5 -9t9 -23v-98q0 -40 -28 -68t-68 -28zM630 382q0 -13 9 -22t22 -9q9 0 16 4t11.5 11t4.5 16q0 13 -9.5 22t-22.5 9t-22 -9t-9 -22zM896 256h-320q-26 0 -45 19t-19 45v128q0 26 19 45t45 19h320q26 0 45 -19t19 -45v-128
q0 -26 -19 -45t-45 -19zM576 448v-128h320v128h-320z" />
    <glyph glyph-name="uniF60B" unicode="&#xf60b;" 
d="M287 384h-62q-13 0 -22.5 9.5t-9.5 22.5q0 9 4.5 16t11.5 11.5t16 4.5h62q13 0 22.5 -9.5t9.5 -22.5q0 -7 -2.5 -12.5t-7 -10t-10 -7t-12.5 -2.5zM883 768h-742q-32 0 -54.5 -22.5t-22.5 -54.5v-621q0 -29 21 -49.5t50 -20.5h754q29 0 50 20.5t21 49.5v621
q0 32 -22.5 54.5t-54.5 22.5zM896 691v-131h-223v144h210q3 0 6 -2t5 -5t2 -6zM447 704h162v-360l-71 28q-2 1 -4 1.5t-4 0.5h-4h-4q-2 0 -4 -1t-4 -1l-67 -28v360zM128 691q0 5 4 9t9 4h242v-144h-255v131zM889 64h-754q-6 1 -7 6v426h255v-200q0 -17 14 -26q8 -6 18 -6
q3 0 6 1l6 2l99 40l103 -40q5 -2 10 -2.5t10 1t9 4.5q15 9 15 26v200h223v-426q-2 -5 -7 -6z" />
    <glyph glyph-name="uniF60C" unicode="&#xf60c;" 
d="M953 543v1v1q-1 3 -2 5l-75 187q-6 19 -20 33t-33 21.5t-41 7.5h-527q-21 0 -39.5 -7.5t-31.5 -21t-20 -32.5l-80 -190q0 -1 -0.5 -2t-0.5 -3q-2 -3 -3 -7l-2 -8l-2 -8v-8l-2 -8v-8v-7q0 -49 25 -91t68 -65v0v0q36 -19 83 -19q82 0 134 63q52 -62 134 -63q81 1 133 63
q25 -30 60 -46t75 -16q23 0 44.5 5t39.5 15q42 23 66.5 64.5t24.5 89.5q0 28 -8 54zM839 391q-11 -6 -24.5 -9t-29.5 -3q-29 0 -54 14t-41 39q-4 8 -8 13q-12 13 -31 13q-20 0 -31 -13q-4 -5 -8 -13q-16 -25 -40.5 -39t-53.5 -15q-14 1 -28 4.5t-26 10.5t-22.5 17t-18.5 22
q-4 8 -7 12q-11 13 -31.5 13t-30.5 -12q-5 -5 -9 -14q-8 -12 -18.5 -22t-22.5 -17t-26 -10.5t-28 -3.5q-31 0 -53 12v0q-13 7 -24.5 17.5t-19 23t-11.5 27.5t-4 30q0 19 6 37q0 1 0.5 1.5t0.5 1.5l79 188q7 19 31 19h527q7 0 12 -1t12 -6t10 -14l74 -185q1 -2 1 -3
q6 -18 6 -37q0 -20 -7 -39t-20 -34.5t-31 -24.5zM863 288q-9 0 -16 -4.5t-11.5 -11.5t-4.5 -16v-175q0 -3 -1.5 -6.5t-4 -6t-5.5 -4t-7 -1.5h-602q-4 0 -7 1.5t-5.5 4t-4 5.5t-1.5 7v171q0 14 -9.5 23t-22.5 9q-7 0 -13 -2.5t-10 -6.5t-6.5 -10t-2.5 -13v-171q0 -34 24 -58
t58 -24h602q34 0 58 24.5t24 57.5v175q0 13 -9.5 22.5t-22.5 9.5zM768 512h-512q-13 0 -22.5 9.5t-9.5 22.5t9.5 22.5t22.5 9.5h512q13 0 22.5 -9.5t9.5 -22.5t-9.5 -22.5t-22.5 -9.5z" />
    <glyph glyph-name="uniF60D" unicode="&#xf60d;" 
d="M672 -16q-20 0 -34 14l-352 352q-7 7 -10.5 16t-3.5 18t3.5 18t10.5 16l352 352q14 14 34 14t34 -14q7 -7 10.5 -16t3.5 -18t-3.5 -18t-10.5 -16l-318 -318l318 -318q9 -9 12.5 -21.5t0 -25t-12.5 -21.5q-7 -7 -16 -10.5t-18 -3.5z" />
    <glyph glyph-name="uniF60E" unicode="&#xf60e;" 
d="M896 640h-288q-13 0 -22.5 9.5t-9.5 22.5t9.5 22.5t22.5 9.5h288q13 0 22.5 -9.5t9.5 -22.5t-9.5 -22.5t-22.5 -9.5zM896 480h-288q-13 0 -22.5 9.5t-9.5 22.5t9.5 22.5t22.5 9.5h288q13 0 22.5 -9.5t9.5 -22.5t-9.5 -22.5t-22.5 -9.5zM896 224h-288q-13 0 -22.5 9.5
t-9.5 22.5t9.5 22.5t22.5 9.5h288q13 0 22.5 -9.5t9.5 -22.5t-9.5 -22.5t-22.5 -9.5zM896 64h-288q-13 0 -22.5 9.5t-9.5 22.5t9.5 22.5t22.5 9.5h288q13 0 22.5 -9.5t9.5 -22.5t-9.5 -22.5t-22.5 -9.5zM384 416h-192q-40 0 -68 28t-28 68v192q0 40 28 68t68 28h192
q40 0 68 -28t28 -68v-192q0 -40 -28 -68t-68 -28zM192 736q-13 0 -22.5 -9.5t-9.5 -22.5v-192q0 -13 9.5 -22.5t22.5 -9.5h192q13 0 22.5 9.5t9.5 22.5v192q0 13 -9.5 22.5t-22.5 9.5h-192zM384 -32h-192q-40 0 -68 28t-28 68v192q0 40 28 68t68 28h192q40 0 68 -28t28 -68
v-192q0 -40 -28 -68t-68 -28zM192 288q-13 0 -22.5 -9.5t-9.5 -22.5v-192q0 -13 9.5 -22.5t22.5 -9.5h192q13 0 22.5 9.5t9.5 22.5v192q0 13 -9.5 22.5t-22.5 9.5h-192z" />
    <glyph glyph-name="uniF60F" unicode="&#xf60f;" 
d="M224 288q-40 0 -68 28t-28 68t28 68t68 28t68 -28t28 -68t-28 -68t-68 -28zM512 288q-40 0 -68 28t-28 68t28 68t68 28t68 -28t28 -68t-28 -68t-68 -28zM800 288q-40 0 -68 28t-28 68t28 68t68 28t68 -28t28 -68t-28 -68t-68 -28z" />
    <glyph glyph-name="uniF610" unicode="&#xf610;" 
d="M512 832q-185 0 -316.5 -131.5t-131.5 -316.5t131.5 -316.5t316.5 -131.5t316.5 131.5t131.5 316.5t-131.5 316.5t-316.5 131.5zM765 96q0 4 -1.5 9t-4 9t-6.5 7t-9 5q-2 1 -15 6.5t-24 9.5t-27 9.5t-34 10t-36 7.5v14q46 45 74 122.5t28 146.5q0 96 -47.5 148t-134.5 52
q-89 0 -140.5 -53t-51.5 -147q0 -28 6 -69.5t25.5 -99t48.5 -92.5v-17q-34 -9 -73.5 -19.5t-68.5 -20.5q-11 -4 -16 -14.5t-2 -21.5q-61 53 -95 127.5t-34 158.5q0 104 51.5 192.5t140 140t193 51.5t193 -51.5t140 -140t51.5 -192.5q0 -85 -35 -160t-96 -128z" />
    <glyph glyph-name="uniF611" unicode="&#xf611;" 
d="M928 352h-832q-13 0 -22.5 9.5t-9.5 22.5t9.5 22.5t22.5 9.5h832q13 0 22.5 -9.5t9.5 -22.5t-9.5 -22.5t-22.5 -9.5zM832 -32h-192q-13 0 -22.5 9.5t-9.5 22.5t9.5 22.5t22.5 9.5h192q13 0 22.5 9.5t9.5 22.5v160q0 13 9.5 22.5t22.5 9.5t22.5 -9.5t9.5 -22.5v-160
q0 -40 -28 -68t-68 -28zM352 -32h-160q-40 0 -68 28t-28 68v160q0 13 9.5 22.5t22.5 9.5t22.5 -9.5t9.5 -22.5v-160q0 -13 9.5 -22.5t22.5 -9.5h160q13 0 22.5 -9.5t9.5 -22.5t-9.5 -22.5t-22.5 -9.5zM128 512q-13 0 -22.5 9.5t-9.5 22.5v160q0 40 28 68t68 28h160
q13 0 22.5 -9.5t9.5 -22.5t-9.5 -22.5t-22.5 -9.5h-160q-13 0 -22.5 -9.5t-9.5 -22.5v-160q0 -13 -9.5 -22.5t-22.5 -9.5zM896 512q-13 0 -22.5 9.5t-9.5 22.5v160q0 13 -9.5 22.5t-22.5 9.5h-192q-13 0 -22.5 9.5t-9.5 22.5t9.5 22.5t22.5 9.5h192q40 0 68 -28t28 -68v-160
q0 -13 -9.5 -22.5t-22.5 -9.5z" />
    <glyph glyph-name="uniF612" unicode="&#xf612;" 
d="M464 112q0 -20 14 -34t34 -14t34 14t14 34q0 4 -1 8.5t-2 8t-3 7.5l-6 6q-2 4 -5 6.5t-6.5 4.5t-7.5 3.5t-8.5 2.5t-8.5 1q-20 0 -34 -14t-14 -34zM512 -64q-185 0 -316.5 131.5t-131.5 316.5t131.5 316.5t316.5 131.5t316.5 -131.5t131.5 -316.5t-131.5 -316.5
t-316.5 -131.5zM512 768q-104 0 -192.5 -51.5t-140 -140t-51.5 -192.5t51.5 -192.5t140 -140t192.5 -51.5t192.5 51.5t140 140t51.5 192.5t-51.5 192.5t-140 140t-192.5 51.5zM512 222q-9 0 -16 4.5t-11.5 12t-4.5 15.5v54q0 25 13 50t25.5 39.5t36.5 38.5q18 18 26.5 27
t17.5 23t9 24q0 26 -13 48.5t-35 35.5t-48 13q-40 0 -68 -27.5t-28 -67.5q0 -13 -9.5 -22.5t-22.5 -9.5t-22.5 9.5t-9.5 22.5q0 66 47 112.5t113 46.5q43 0 80 -21.5t58.5 -58.5t21.5 -81q0 -22 -12 -45.5t-24 -37t-35 -36.5q-19 -19 -28.5 -29t-19 -26t-9.5 -28v-54
q0 -13 -9.5 -22.5t-22.5 -9.5z" />
    <glyph glyph-name="uniF613" unicode="&#xf613;" 
d="M761 364l1 1t1 2q2 4 3 9t1.5 10t-0.5 10t-2.5 9.5t-4.5 9t-7 7.5l-353 334q-15 14 -34.5 13.5t-33.5 -15t-13 -34.5t15 -34l317 -299l-316 -305q-14 -13 -14.5 -33t13.5 -35q15 -14 35 -14q19 0 33 13l350 338v1q1 1 1.5 1t0.5 1h1q2 3 6 10z" />
    <glyph glyph-name="uniF614" unicode="&#xf614;" 
d="M418 672q0 40 28 68t67.5 28t68 -28t28.5 -68t-28.5 -68t-68 -28t-67.5 28t-28 68zM418 384q0 40 28 68t68 28q26 0 48 -13t35 -35t13 -48q0 -40 -28.5 -68t-67.5 -28q-26 0 -48.5 13t-35 35t-12.5 48zM418 96q0 40 28 68t68 28q26 0 48 -13t35 -35t13 -48
q0 -40 -28.5 -68t-68 -28t-67.5 28t-28 68z" />
    <glyph glyph-name="uniF615" unicode="&#xf615;" 
d="M986 306q-8 11 -21 13t-24 -6l-57 -41q15 55 15 111q0 38 -6.5 75t-19.5 70.5t-31 65t-41 58.5t-50 50t-58.5 41t-65 31t-70.5 19.5t-75 6.5q-113 0 -209 -56t-152 -152t-56 -209t56 -209t152 -152t209 -56q111 0 207 55q3 1 5.5 1.5t4.5 2.5q27 16 51 36q10 8 11.5 21
t-7 23.5t-21.5 11.5t-24 -7q-17 -14 -40 -28l-2 -1q-3 -1 -4 -1q-83 -50 -181 -50q-95 0 -176.5 47.5t-129 128.5t-47.5 177q0 48 13 93.5t35.5 84.5t55.5 71.5t71.5 55.5t84 35.5t93.5 12.5q96 0 177.5 -47.5t128.5 -128.5t47 -177q0 -66 -24 -128l-45 109q-5 12 -17.5 17
t-24.5 0t-17 -17.5t0 -24.5l72 -173q0 -1 3 -5v-1h1v-1l5 -5q2 -2 5 -3l1 -1h1q3 -2 5.5 -2.5t5.5 -0.5q0 -1 0.5 -0.5t1 0.5t0.5 -0.5t1 -0.5h1q0 1 1 1q3 0 7 1h1q4 2 7 4h1l152 109q10 8 12.5 21t-5.5 24zM607 522q6 6 8.5 14t0.5 16.5t-9 14.5q-9 9 -22 9.5t-23 -9.5
l-80 -77l-79 77q-10 10 -23 9.5t-22.5 -10t-9 -22.5t9.5 -22l90 -87v-19h-64q-13 0 -22.5 -9.5t-9.5 -22.5q0 -4 1 -8.5t3 -8t5 -6.5t6.5 -5t8 -3t8.5 -1h64v-32h-64q-9 0 -16 -4.5t-11.5 -11.5t-4.5 -16q0 -13 9.5 -22.5t22.5 -9.5h64v-67q0 -14 9.5 -23t22.5 -9q9 0 16 4
t11.5 11.5t4.5 16.5v67h64q13 0 22.5 9.5t9.5 22.5t-9.5 22.5t-22.5 9.5h-64v32h64q9 0 16 4.5t11.5 11.5t4.5 16q0 13 -9.5 22.5t-22.5 9.5h-64v14z" />
    <glyph glyph-name="uniF616" unicode="&#xf616;" 
d="M353 64q-27 0 -45.5 -18.5t-18.5 -45.5t18.5 -45.5t45.5 -18.5q17 0 31.5 8.5t23.5 23.5t9 32q0 27 -19 45.5t-45 18.5zM801 64q-27 0 -45.5 -18.5t-18.5 -45.5t18.5 -45.5t45 -18.5t45.5 18.5t19 45.5t-19 45.5t-45 18.5zM864 96h-520q-34 0 -61 24t-31 59l-54 382
l-31 179q-1 4 -3 8.5t-5 8t-6.5 6t-7.5 4t-8 1.5h-41q-13 0 -22.5 9.5t-9.5 22.5t9.5 22.5t22.5 9.5h41q14 0 27 -4t24 -11.5t20 -18t14.5 -23t7.5 -26.5l31 -178l54 -384q2 -11 10.5 -19t18.5 -8h520q13 0 22.5 -9.5t9.5 -22.5t-9.5 -22.5t-22.5 -9.5zM384 224
q-12 0 -21.5 8.5t-10.5 21.5q0 8 3.5 16t10.5 12.5t16 5.5l434 32q12 0 21 8t10 19l51 288q1 8 -1.5 16.5t-7.5 13.5q-2 2 -4 3.5t-5 2.5t-6 1h-554q-13 0 -22.5 9.5t-9.5 22.5t9.5 22.5t22.5 9.5h554q38 0 63 -29q30 -33 24 -81l-51 -289q-4 -33 -30.5 -57t-61.5 -24
l-431 -32h-3z" />
    <glyph glyph-name="uniF617" unicode="&#xf617;" 
d="M384 -32h-192q-40 0 -68 28t-28 68v192q0 40 28 68t68 28h192q40 0 68 -28t28 -68v-192q0 -40 -28 -68t-68 -28zM192 288q-13 0 -22.5 -9.5t-9.5 -22.5v-192q0 -13 9.5 -22.5t22.5 -9.5h192q13 0 22.5 9.5t9.5 22.5v192q0 13 -9.5 22.5t-22.5 9.5h-192zM736 0
q-13 0 -22.5 9.5t-9.5 22.5v64q0 13 9.5 22.5t22.5 9.5t22.5 -9.5t9.5 -22.5v-64q0 -13 -9.5 -22.5t-22.5 -9.5zM864 0q-13 0 -22.5 9.5t-9.5 22.5v96q0 13 9.5 22.5t22.5 9.5t22.5 -9.5t9.5 -22.5v-96q0 -13 -9.5 -22.5t-22.5 -9.5zM864 224q-13 0 -22.5 9.5t-9.5 22.5v64
q0 13 9.5 22.5t22.5 9.5t22.5 -9.5t9.5 -22.5v-64q0 -13 -9.5 -22.5t-22.5 -9.5zM736 160q-13 0 -22.5 9.5t-9.5 22.5v128q0 13 9.5 22.5t22.5 9.5t22.5 -9.5t9.5 -22.5v-128q0 -13 -9.5 -22.5t-22.5 -9.5zM608 0q-13 0 -22.5 9.5t-9.5 22.5v128q0 13 9.5 22.5t22.5 9.5
t22.5 -9.5t9.5 -22.5v-128q0 -13 -9.5 -22.5t-22.5 -9.5zM608 256q-13 0 -22.5 9.5t-9.5 22.5v32q0 13 9.5 22.5t22.5 9.5t22.5 -9.5t9.5 -22.5v-32q0 -13 -9.5 -22.5t-22.5 -9.5zM320 96h-64q-13 0 -22.5 9.5t-9.5 22.5v64q0 13 9.5 22.5t22.5 9.5h64q13 0 22.5 -9.5
t9.5 -22.5v-64q0 -13 -9.5 -22.5t-22.5 -9.5zM384 416h-192q-40 0 -68 28t-28 68v192q0 40 28 68t68 28h192q40 0 68 -28t28 -68v-192q0 -40 -28 -68t-68 -28zM192 736q-13 0 -22.5 -9.5t-9.5 -22.5v-192q0 -13 9.5 -22.5t22.5 -9.5h192q13 0 22.5 9.5t9.5 22.5v192
q0 13 -9.5 22.5t-22.5 9.5h-192zM320 544h-64q-13 0 -22.5 9.5t-9.5 22.5v64q0 13 9.5 22.5t22.5 9.5h64q13 0 22.5 -9.5t9.5 -22.5v-64q0 -13 -9.5 -22.5t-22.5 -9.5zM832 416h-192q-40 0 -68 28t-28 68v192q0 40 28 68t68 28h192q40 0 68 -28t28 -68v-192q0 -40 -28 -68
t-68 -28zM640 736q-13 0 -22.5 -9.5t-9.5 -22.5v-192q0 -13 9.5 -22.5t22.5 -9.5h192q13 0 22.5 9.5t9.5 22.5v192q0 13 -9.5 22.5t-22.5 9.5h-192zM768 544h-64q-13 0 -22.5 9.5t-9.5 22.5v64q0 13 9.5 22.5t22.5 9.5h64q13 0 22.5 -9.5t9.5 -22.5v-64q0 -13 -9.5 -22.5
t-22.5 -9.5z" />
    <glyph glyph-name="uniF618" unicode="&#xf618;" 
d="M608 128q-13 0 -22.5 9.5t-9.5 22.5v352q0 13 9.5 22.5t22.5 9.5t22.5 -9.5t9.5 -22.5v-352q0 -13 -9.5 -22.5t-22.5 -9.5zM416 128q-13 0 -22.5 9.5t-9.5 22.5v352q0 13 9.5 22.5t22.5 9.5t22.5 -9.5t9.5 -22.5v-352q0 -13 -9.5 -22.5t-22.5 -9.5zM928 672h-160v64
q0 40 -28 68t-67 28h-321q-40 0 -68 -28t-28 -68v-64h-160q-13 0 -22.5 -9.5t-9.5 -22.5t9.5 -22.5t22.5 -9.5h832q13 0 22.5 9.5t9.5 22.5t-9.5 22.5t-22.5 9.5zM320 736q0 13 9.5 22.5t22.5 9.5h321q8 0 15.5 -4t11.5 -11.5t4 -16.5v-64h-384v64zM736 -64h-448
q-40 0 -68 28t-28 68v480q0 14 9.5 23t22.5 9t22.5 -9t9.5 -23v-480q0 -13 9.5 -22.5t22.5 -9.5h448q13 0 22.5 9.5t9.5 22.5v479q0 24 23 31l9 1q13 0 22.5 -9.5t9.5 -22.5v-479q0 -40 -28 -68t-68 -28z" />
    <glyph glyph-name="uniF619" unicode="&#xf619;" 
d="M383 -64h-3q-121 11 -201.5 62t-80.5 116q0 41 38 74.5t93.5 54t123.5 30.5v13q-34 25 -56 60t-33 78t-14.5 83t-3.5 92q0 109 61 171t169 62q106 0 163 -60t57 -173q0 -52 -16.5 -114t-45.5 -116q-4 -8 -11.5 -12.5t-15.5 -4.5t-16 4q-12 6 -16 18.5t2 24.5
q25 47 40 101.5t15 98.5q0 34 -6 61t-18.5 47.5t-31.5 34t-44 20t-56 6.5q-166 0 -166 -169q0 -47 3 -82.5t12 -73t28.5 -66.5t48.5 -48q7 -4 11 -11t4 -16v-57q0 -12 -8.5 -21.5t-20.5 -10.5q-96 -10 -161 -41.5t-65 -57.5q0 -33 63.5 -69.5t159.5 -44.5q14 -1 22.5 -11.5
t7.5 -23.5q-1 -8 -5.5 -14.5t-11.5 -10.5t-15 -4zM769 128h-128q-14 0 -23 9.5t-9 22.5q0 6 2.5 12t6.5 10.5t10 7t13 2.5h128q13 0 22.5 -9.5t9.5 -22.5q0 -7 -2.5 -12.5t-7 -10t-10.5 -7t-12 -2.5zM705 29h-64q-14 0 -23 9t-9 23q0 5 1.5 10t4.5 9t7 7t9 4.5t10 1.5h64
q13 0 22.5 -9.5t9.5 -23t-9.5 -22.5t-22.5 -9zM833 -67h-256q-40 0 -68 28t-28 68v163q0 13 3.5 25.5t9.5 23t15 19.5t19.5 15t23 9.5t25.5 3.5h256q39 0 67.5 -28t28.5 -68v-163q0 -40 -28.5 -68t-67.5 -28zM577 224q-9 0 -16.5 -4.5t-11.5 -11.5t-4 -16v-163
q0 -14 9.5 -23t22.5 -9h256q13 0 22.5 9t9.5 23v163q0 13 -9.5 22.5t-22.5 9.5h-256z" />
    <glyph glyph-name="uniF61A" unicode="&#xf61a;" 
d="M980 491l-406 321q-26 21 -62 21t-62 -21l-406 -321q-10 -8 -11.5 -21t6.5 -23.5t21 -12t23 6.5l13 11v-388q0 -40 34.5 -68t74.5 -28h640q37 0 60 26.5t23 69.5v386l12 -9q4 -3 9 -5t11 -2q15 0 25 12q15 20 0 40zM480 32v177q0 14 32 14t32 -14v-177h-64zM864 64
q0 -32 -19 -32h-236h-1v1v176q0 31 -25 54.5t-71 23.5q-31 0 -53.5 -12t-32.5 -29t-10 -37v-176v-1h1h-212q-15 0 -30 10.5t-15 21.5v438l329 260q9 7 22.5 7t22.5 -7l330 -261v-437z" />
    <glyph glyph-name="uniF61B" unicode="&#xf61b;" 
d="M640 480h-256q-13 0 -22.5 9.5t-9.5 22.5t9.5 22.5t22.5 9.5h256q13 0 22.5 -9.5t9.5 -22.5t-9.5 -22.5t-22.5 -9.5zM579 352h-195q-13 0 -22.5 9.5t-9.5 22.5t9.5 22.5t22.5 9.5h195q14 0 23 -9.5t9 -22.5t-9 -22.5t-23 -9.5zM962 448q0 78 -35.5 149t-95.5 122.5
t-143 82t-174 30.5q-121 0 -224.5 -51.5t-163.5 -140t-60 -192.5q0 -87 45.5 -166t127.5 -135q7 -5 15.5 -5.5t16.5 3.5t12.5 11t5.5 15.5t-3 16t-11 12.5q-69 47 -107 112t-38 136q0 87 51.5 160.5t140 116.5t192.5 43t192.5 -43t140 -116.5t51.5 -160.5q0 -65 -30.5 -124
t-82 -102t-122.5 -68.5t-149 -25.5h-3l-2 -1q-6 1 -11.5 0t-10.5 -3.5t-8.5 -7t-5.5 -9.5q-9 -26 -94 -74q17 58 3 79q-3 5 -8 8.5t-10.5 5.5t-11.5 2q-13 0 -22.5 -9.5t-9.5 -22.5q0 -5 1.5 -9t3.5 -7q-2 -9 -7 -25t-12 -36t-14 -39q-9 -20 7 -35q9 -9 22 -9q4 0 7 0.5
t6 2.5q144 64 188 125q90 2 171.5 32.5t140.5 82t93.5 122t34.5 147.5z" />
    <glyph glyph-name="uniF61C" unicode="&#xf61c;" 
d="M512 -64q-73 0 -141.5 22.5t-123.5 64t-96.5 96.5t-64 123.5t-22.5 141.5q0 185 131.5 316.5t316.5 131.5q91 0 174 -35.5t143 -95.5t95.5 -143t35.5 -174t-35.5 -174t-95.5 -143t-143 -95.5t-174 -35.5zM512 768q-159 0 -271.5 -112.5t-112.5 -271.5q0 -104 51.5 -192.5
t140 -140t192.5 -51.5q78 0 149 30.5t122.5 82t82 122.5t30.5 149q0 104 -51.5 192.5t-140 140t-192.5 51.5zM416 158q-8 1 -14 3q-18 9 -18 29v322h-64q-13 0 -22.5 9.5t-9.5 22.5t9.5 22.5t22.5 9.5h96q13 0 22.5 -9.5t9.5 -22.5v-286l232 190h-8q-13 0 -22.5 9.5
t-9.5 22.5q0 7 2.5 12.5t7 10t10 7t12.5 2.5h97q7 0 13 -2.5t10.5 -7.5t6.5 -11q8 -21 -10 -36l-353 -289q-9 -8 -20 -8z" />
    <glyph glyph-name="uniF61D" unicode="&#xf61d;" 
d="M401 -64q-336 0 -336 162q0 37 34 67.5t84.5 49t111.5 28.5v6q-31 24 -51.5 57t-30 73t-13 74.5t-3.5 76.5q0 99 55 155t153 56h7q97 0 152.5 -56t55.5 -155q0 -42 -3.5 -76.5t-13 -74.5t-30 -73t-51.5 -57v-6q45 -7 85 -19.5t73 -30.5t52.5 -42.5t19.5 -52.5
q0 -115 -181 -149q-72 -13 -170 -13zM405 677q-48 0 -80 -16.5t-48 -49t-16 -81.5q0 -39 3 -70t11 -64.5t25.5 -60t43.5 -42.5q4 -3 7.5 -7.5t5.5 -9.5t2 -10v-52q0 -12 -8.5 -21t-20.5 -10q-57 -6 -105 -22t-72 -33t-24 -30q0 -98 272 -98q91 0 155.5 11.5t98 33.5t33.5 53
q0 21 -58.5 48.5t-142.5 36.5q-13 1 -21 10t-8 21v52q0 4 1 8t3 7.5t4.5 6.5t6.5 5q26 16 43.5 42.5t25.5 60t11 64.5t3 70q0 147 -144 147h-7zM899 132q-13 0 -22.5 9.5t-9.5 22.5q0 8 -10 18.5t-29 22.5t-42.5 23t-54 19.5t-61.5 11.5q-12 2 -20 11t-8 21v67q0 17 14 27
q29 18 49 48t28.5 63.5t11.5 58t3 47.5q0 40 -12 67.5t-33.5 41.5t-43.5 19.5t-48 5.5q-13 0 -22.5 9.5t-9.5 22.5t9.5 22.5t22.5 9.5q93 0 147 -53t54 -145q0 -27 -3.5 -55.5t-13.5 -67.5t-33 -76t-56 -62v-22q53 -10 103.5 -31.5t86 -55t35.5 -68.5q0 -13 -9.5 -22.5
t-22.5 -9.5z" />
    <glyph glyph-name="uniF61E" unicode="&#xf61e;" 
d="M752 -64h-475q-39 0 -70.5 26.5t-38.5 64.5l-68 416q-7 41 18 71q12 15 30 23t38 8h657q42 0 67.5 -30.5t18.5 -71.5l-69 -415q-1 -9 -4 -17t-7 -15.5t-9 -14.5t-11.5 -13t-13 -11t-14.5 -9t-15.5 -6.5t-16.5 -4t-17 -1.5zM186 481q-12 0 -18.5 -7.5t-4.5 -20.5l68 -415
q3 -15 16.5 -26.5t29.5 -11.5h475q10 0 20 5.5t17 14t8 18.5l69 415q2 13 -4.5 20.5t-18.5 7.5h-657zM320.5 289q-26.5 0 -45.5 18.5t-19 45.5q0 17 9 32t23.5 23.5t31.5 8.5q27 0 45.5 -19t18.5 -45.5t-18.5 -45t-45 -18.5zM320 353v-32v32zM706 289q-10 0 -20 3t-17.5 9
t-13.5 14t-9.5 17.5t-3.5 20.5q0 26 19 45t45 19q8 0 15 -2t13.5 -5t12 -7.5t10 -10t7.5 -11.5t4.5 -13.5t1.5 -14.5q0 -18 -8.5 -32.5t-23 -23t-32.5 -8.5zM706 353v-32v32zM738 576q-13 0 -22.5 9.5t-9.5 22.5q0 44 -29.5 81.5t-73.5 58t-90 20.5q-75 0 -133 -44t-58 -116
q0 -13 -9 -22.5t-22.5 -9.5t-23 9.5t-9.5 22.5q0 51 22 94t58.5 71t81.5 43.5t93 15.5q61 0 120 -28t98 -80.5t39 -115.5q0 -9 -4 -16t-11.5 -11.5t-16.5 -4.5z" />
    <glyph glyph-name="uniF61F" unicode="&#xf61f;" 
d="M929 608h-75q12 0 24 19.5t19 42.5q14 46 -17 87q-2 2 -4 5q-24 20 -51 29t-54 7t-52.5 -8.5t-50.5 -19t-42 -23t-33 -21.5q-7 -5 -10.5 -13t-3 -16.5t5.5 -15.5q7 -11 20 -13.5t24 5.5l1 1l2 1q13 9 27 18t38 20t45.5 16.5t46 3t42.5 -17.5q9 -13 5 -27
q-6 -16 -24 -31.5t-32 -20.5q-63 -24 -105 -27q-1 0 -2.5 -0.5t-2.5 -0.5h-89q-1 0 -2 2.5t-2 3.5q-109 101 -127 113q-88 61 -164.5 70t-128.5 -35l-5 -5q-30 -41 -16 -87q7 -23 18.5 -42.5t24.5 -19.5h-82q-13 0 -23 -10t-10 -23v-160v-11q0 -3 2 -8t5 -7t9.5 -4t15.5 -2
v-313q0 -42 27.5 -72t65.5 -30h646q25 0 46.5 14t34 37.5t12.5 50.5v313q12 0 18.5 2.5t9.5 7.5t3.5 9.5t0.5 12.5v160q0 14 -9 23.5t-22 9.5zM357 609q-41 3 -106 28q-6 1 -13.5 6t-16 12t-15 16t-9.5 18q-4 13 4 26q19 15 43.5 18t47 -1.5t48 -15.5t42.5 -21t34 -22
q3 -2 73 -65h-126q-1 0 -3 0.5t-3 0.5zM896 544v-96h-764l-4 -1v97h768zM835 32h-646q-12 0 -20.5 12t-8.5 26v314h704v-314q0 -14 -9 -26t-20 -12z" />
    <glyph glyph-name="uniF620" unicode="&#xf620;" 
d="M307 445q-73 0 -124.5 51.5t-51.5 124.5t51.5 124.5t124.5 51.5q48 0 88.5 -23.5t64 -64t23.5 -88.5q0 -73 -51.5 -124.5t-124.5 -51.5zM307 733q-47 0 -79.5 -33t-32.5 -79q0 -30 15 -56t40.5 -41t56.5 -15q46 0 79 33t33 79q0 30 -15 56t-41 41t-56 15zM719 445
q-47 0 -88 23.5t-64.5 64t-23.5 88.5q0 73 52 124.5t124.5 51.5t124 -51.5t51.5 -124.5q0 -36 -14 -68.5t-37.5 -56t-56 -37.5t-68.5 -14zM719 733q-46 0 -79 -33t-33 -79q0 -30 15 -56t41 -41t56 -15q47 0 79.5 33t32.5 79q0 30 -15 56t-40.5 41t-56.5 15zM304 -5
q-73 0 -124.5 51.5t-51.5 124t51.5 124.5t124 52t124.5 -52t52 -124q0 -48 -24 -88.5t-64.5 -64t-87.5 -23.5zM304 283q-47 0 -79.5 -33t-32.5 -79.5t32.5 -79t79 -32.5t79.5 32.5t33 79.5q0 30 -15 56t-41 41t-56 15zM923 -11l-66 69q41 48 41 113q0 72 -51.5 124t-124 52
t-124.5 -52t-52 -124q0 -67 45.5 -117t112.5 -58h4q12 0 21 8t10 20q2 8 -1.5 16t-10.5 13t-15 7q-43 5 -72.5 37t-29.5 74q0 30 15 56t41 41t56 15q47 0 79.5 -33t32.5 -79q0 -26 -11 -49.5t-32 -39.5q-10 -8 -11.5 -21t6.5 -23q4 -6 11 -9l1 -2l2 -3l77 -79q4 -5 10 -7.5
t13 -2.5q13 0 22 9q23 22 1 45z" />
    <glyph glyph-name="uniF621" unicode="&#xf621;" 
d="M512 832q-185 0 -316.5 -131.5t-131.5 -316.5t131.5 -316.5t316.5 -131.5t316.5 131.5t131.5 316.5t-131.5 316.5t-316.5 131.5zM512 0q-159 0 -271.5 112.5t-112.5 271.5t112.5 271.5t271.5 112.5t271.5 -112.5t112.5 -271.5t-112.5 -271.5t-271.5 -112.5zM641 384
q9 0 16.5 4.5t11.5 11.5t4 16q0 13 -9.5 22.5t-22.5 9.5h-97v15l119 124q9 10 8.5 23t-9.5 22q-3 3 -7 5t-8 3t-8 1t-8 -1t-7.5 -3.5t-6.5 -5.5l-102 -107l-107 108q-10 9 -23 9t-22.5 -9.5t-10 -22.5t9.5 -23l118 -118v-20h-95q-4 0 -8 -1t-7.5 -3t-6.5 -5t-5 -6.5t-3.5 -8
t-1.5 -8.5q0 -13 9.5 -22.5t22.5 -9.5h95v-64h-95q-8 0 -15.5 -4.5t-12 -11.5t-4.5 -16q0 -7 2.5 -12.5t7 -10t10.5 -7t12 -2.5h95v-95q0 -13 9.5 -22.5t22.5 -9.5t22.5 9.5t9.5 22.5v95h97q13 0 22.5 9.5t9.5 22.5q0 4 -1 7.5t-2.5 6.5t-3.5 6t-5 5t-6 3.5t-6.5 2.5t-7.5 1
h-97v64h97z" />
    <glyph glyph-name="uniF622" unicode="&#xf622;" 
d="M859 32h-694q-42 0 -71.5 29.5t-29.5 71.5v502q0 42 29.5 71.5t71.5 29.5h694q16 0 31.5 -5t28 -14.5t22 -22t14.5 -28t5 -31.5v-502q0 -42 -29.5 -71.5t-71.5 -29.5zM165 672q-15 0 -26 -11t-11 -26v-502q0 -15 11 -26t26 -11h694q15 0 26 11t11 26v502q0 15 -11 26
t-26 11h-694zM800 480h-576q-13 0 -22.5 9.5t-9.5 22.5t9.5 22.5t22.5 9.5h576q13 0 22.5 -9.5t9.5 -22.5t-9.5 -22.5t-22.5 -9.5zM320 160h-96q-13 0 -22.5 9.5t-9.5 22.5t9.5 22.5t22.5 9.5h96q13 0 22.5 -9.5t9.5 -22.5t-9.5 -22.5t-22.5 -9.5z" />
    <glyph glyph-name="uniF623" unicode="&#xf623;" 
d="M954 82l-137 180q79 76 79 185q0 70 -34 129t-93 93t-129 34q-106 0 -181 -75t-75 -181t75 -181t181 -75q67 0 125 33l138 -181l3 -3q2 -2 3.5 -3t3.5 -2l4 -2q2 -1 4 -1.5t4 -0.5h4h5q3 0 5 1t4.5 2.5t4.5 2.5q20 15 10 38q-2 4 -4 7zM448 447q0 80 56.5 136t135.5 56
q52 0 96.5 -25.5t70 -70t25.5 -96.5q0 -79 -56 -135.5t-136 -56.5q-89 0 -147 69q-44 54 -45 123zM320 576h-192q-13 0 -22.5 9.5t-9.5 22.5t9.5 22.5t22.5 9.5h192q13 0 22.5 -9.5t9.5 -22.5t-9.5 -22.5t-22.5 -9.5zM256 320h-128q-13 0 -22.5 9.5t-9.5 22.5t9.5 22.5
t22.5 9.5h128q13 0 22.5 -9.5t9.5 -22.5t-9.5 -22.5t-22.5 -9.5zM480 96h-352q-13 0 -22.5 9.5t-9.5 22.5t9.5 22.5t22.5 9.5h352q13 0 22.5 -9.5t9.5 -22.5t-9.5 -22.5t-22.5 -9.5z" />
    <glyph glyph-name="uniF624" unicode="&#xf624;" 
d="M384 576h512q13 0 22.5 9.5t9.5 22.5t-9.5 22.5t-22.5 9.5h-512q-13 0 -22.5 -9.5t-9.5 -22.5t9.5 -22.5t22.5 -9.5zM896 416h-512q-13 0 -22.5 -9.5t-9.5 -22.5t9.5 -22.5t22.5 -9.5h512q13 0 22.5 9.5t9.5 22.5t-9.5 22.5t-22.5 9.5zM896 192h-512q-13 0 -22.5 -9.5
t-9.5 -22.5t9.5 -22.5t22.5 -9.5h512q13 0 22.5 9.5t9.5 22.5t-9.5 22.5t-22.5 9.5zM128 608q0 -27 18.5 -45.5t45.5 -18.5t45.5 18.5t18.5 45.5t-18.5 45.5t-45.5 18.5t-45.5 -18.5t-18.5 -45.5zM128 384q0 -27 18.5 -45.5t45.5 -18.5t45.5 18.5t18.5 45.5t-18.5 45.5
t-45.5 18.5t-45.5 -18.5t-18.5 -45.5zM128 160q0 -27 18.5 -45.5t45.5 -18.5t45.5 18.5t18.5 45.5t-18.5 45.5t-45.5 18.5t-45.5 -18.5t-18.5 -45.5z" />
    <glyph glyph-name="uniF625" unicode="&#xf625;" 
d="M736 -96h-448q-40 0 -68 28t-28 68v768q0 40 28 68t68 28h448q40 0 68 -28t28 -68v-768q0 -40 -28 -68t-68 -28zM288 800q-13 0 -22.5 -9.5t-9.5 -22.5v-768q0 -13 9.5 -22.5t22.5 -9.5h448q13 0 22.5 9.5t9.5 22.5v768q0 13 -9.5 22.5t-22.5 9.5h-448zM512 0
q-26 0 -45 18.5t-19 45t19 45.5t45 19t45 -19t19 -45q0 -18 -8.5 -32.5t-23.5 -23t-32 -8.5zM512 64v-32v32zM704 160h-384q-13 0 -22.5 9.5t-9.5 22.5v544q0 13 9.5 22.5t22.5 9.5h384q13 0 22.5 -9.5t9.5 -22.5v-544q0 -13 -9.5 -22.5t-22.5 -9.5zM352 224h320v480h-320
v-480z" />
    <glyph glyph-name="uniF626" unicode="&#xf626;" 
d="M512 32v32v-32zM736 832h-448q-26 0 -45 -19t-19 -45v-768q0 -26 19 -45t45 -19h448q26 0 45 19t19 45v768q0 26 -19 45t-45 19zM512 0q-26 0 -45 18.5t-19 45t19 45.5t45 19t45 -19t19 -45q0 -18 -8.5 -32.5t-23.5 -23t-32 -8.5zM704 192h-384v544h384v-544z" />
    <glyph glyph-name="uniF627" unicode="&#xf627;" 
d="M576 736h-128q-13 0 -22.5 9.5t-9.5 22.5t9.5 22.5t22.5 9.5h128q13 0 22.5 -9.5t9.5 -22.5t-9.5 -22.5t-22.5 -9.5zM819 550l36 35q9 10 9 23t-9 23q-18 17 -39 5q-4 -3 -7 -5l-33 -33q-20 20 -43.5 36t-49.5 29.5t-53.5 22t-57.5 13.5t-60 5q-104 0 -192.5 -51.5
t-140 -140t-51.5 -192.5t51.5 -192.5t140 -140t192.5 -51.5t192.5 51.5t140 140t51.5 192.5q0 26 -3.5 51t-10 48.5t-16 46.5t-21.5 43.5t-26 40.5zM544 2v30q0 13 -9.5 22.5t-22.5 9.5t-22.5 -9.5t-9.5 -22.5v-30q-113 11 -194 92t-92 194h30q13 0 22.5 9.5t9.5 22.5
t-9.5 22.5t-22.5 9.5h-30q11 113 92 194t194 92v-30q0 -13 9.5 -22.5t22.5 -9.5t22.5 9.5t9.5 22.5v30q113 -11 194 -92t92 -194h-30q-9 0 -16 -4.5t-11.5 -11.5t-4.5 -16q0 -24 22 -31l10 -1h30q-12 -127 -110 -211q-77 -65 -176 -75zM652 473l-160 -128
q-10 -8 -11.5 -21.5t6.5 -23.5q10 -12 25 -12q4 0 7 1t6.5 2.5t6.5 3.5l160 128q10 8 11.5 21.5t-6.5 23.5q-4 5 -9.5 8t-11.5 4t-12.5 -1t-11.5 -6z" />
    <glyph glyph-name="uniF628" unicode="&#xf628;" 
d="M890 146q-5 7 -13.5 19.5t-28.5 47t-36 68t-28.5 76.5t-12.5 77q0 118 -45.5 189t-117.5 98v15q0 40 -28 68t-68 28t-68 -28t-28 -68v-17q-19 -13 -12 -35q4 -12 16 -18.5t24 -2.5q14 5 28 7t29 2h22q86 0 135 -63t49 -175q0 -71 34 -150t76 -144q-38 -17 -78.5 -32
t-105.5 -29.5t-121 -14.5q-137 0 -305 77q110 171 110 293q0 94 35 154q6 11 3 24t-15 19q-8 5 -16 5t-15.5 -4.5t-12.5 -11.5q-14 -25 -23.5 -54t-14.5 -62t-5 -70q0 -34 -12.5 -77t-28.5 -76t-36 -67.5t-28.5 -47.5t-13.5 -19q-8 -12 -5 -26t16 -21t35.5 -18t82 -33
t115.5 -34q11 -33 31 -58t46.5 -39t56.5 -14q45 0 81 30.5t53 80.5q35 8 72 19.5t62.5 21t50.5 20.5t34 15.5t14 7.5q4 2 7.5 5.5t5.5 7.5t3 8q3 15 -5 26zM501 736q-2 0 -21 -2v2q0 13 9.5 22.5t22.5 9.5t22.5 -9.5t9.5 -22.5v-1q-4 0 -7.5 0.5t-6.5 0.5h-7h-22zM512 -32
q-34 0 -58 35q31 -3 58 -3t58 3q-11 -16 -26 -25.5t-32 -9.5z" />
    <glyph glyph-name="uniF629" unicode="&#xf629;" 
d="M960 535l-104 246q-8 19 -30 19h-594q-9 0 -16.5 -4t-11.5 -12l-133 -243q-11 -18 3 -35l417 -525q5 -6 11.5 -9.5t14.5 -3.5q15 0 25 13l414 521q5 7 6.5 16t-2.5 17zM742 736l-226 -182l-208 182h434zM238 713l192 -169h-206q-13 0 -22.5 -9.5t-9.5 -22.5q0 -9 4.5 -16
t11.5 -11.5t16 -4.5h256v-382l-343 431zM544 87v393h256q13 0 22.5 9.5t9.5 22.5t-9.5 22.5t-22.5 9.5h-195l210 169l79 -186z" />
    <glyph glyph-name="uniF62A" unicode="&#xf62a;" 
d="M288 0h-128q-13 0 -22.5 9.5t-9.5 22.5v544q0 13 9.5 22.5t22.5 9.5h128q13 0 22.5 -9.5t9.5 -22.5v-544q0 -13 -9.5 -22.5t-22.5 -9.5zM192 64h64v480h-64v-480zM576 0h-128q-13 0 -22.5 9.5t-9.5 22.5v352q0 13 9.5 22.5t22.5 9.5h128q13 0 22.5 -9.5t9.5 -22.5v-352
q0 -13 -9.5 -22.5t-22.5 -9.5zM480 64h64v288h-64v-288zM864 0h-128q-13 0 -22.5 9.5t-9.5 22.5v704q0 13 9.5 22.5t22.5 9.5h128q13 0 22.5 -9.5t9.5 -22.5v-704q0 -13 -9.5 -22.5t-22.5 -9.5zM768 64h64v640h-64v-640z" />
    <glyph glyph-name="uniF62B" unicode="&#xf62b;" 
d="M387 416h-192q-39 0 -67.5 28.5t-28.5 67.5v192q0 40 28.5 68t67.5 28h192q40 0 68 -28t28 -68v-192q0 -26 -12.5 -48t-35 -35t-48.5 -13zM195 736q-8 0 -15.5 -4t-12 -11.5t-4.5 -16.5v-192q0 -5 2 -10t4.5 -9t6.5 -6.5t9 -4.5t10 -2h192q7 0 13 2.5t10 7t6.5 10.5
t2.5 12v192q0 14 -9.5 23t-22.5 9h-192zM387 -32h-192q-26 0 -48 13t-35 35t-13 48v192q0 20 7.5 37.5t20.5 30.5t31 20.5t37 7.5h192q40 0 68 -28t28 -68v-192q0 -26 -12.5 -48t-35 -35t-48.5 -13zM195 288q-13 0 -22.5 -9t-9.5 -23v-192q0 -13 9.5 -22.5t22.5 -9.5h192
q13 0 22.5 9.5t9.5 22.5v192q0 7 -2.5 13t-6.5 10t-10 6.5t-13 2.5h-192zM832 416h-192q-26 0 -48 13t-35 35t-13 48v192q0 40 28 68t68 28h192q40 0 68 -28t28 -68v-192q0 -39 -28 -67.5t-68 -28.5zM640 736q-9 0 -16 -4t-11.5 -11.5t-4.5 -16.5v-192q0 -13 9.5 -22.5
t22.5 -9.5h192q9 0 16.5 4.5t11.5 12t4 15.5v192q0 14 -9.5 23t-22.5 9h-192zM832 -32h-192q-40 0 -68 28.5t-28 67.5v192q0 26 13 48.5t35 35t48 12.5h192q26 0 48 -12.5t35 -35t13 -48.5v-192q0 -39 -28 -67.5t-68 -28.5zM640 288q-6 0 -12 -2.5t-10.5 -6.5t-7 -10
t-2.5 -13v-192q0 -13 9.5 -22.5t22.5 -9.5h192q13 0 22.5 9.5t9.5 22.5v192q0 14 -9.5 23t-22.5 9h-192z" />
    <glyph glyph-name="uniF62C" unicode="&#xf62c;" 
d="M512 -32q-8 0 -15 3.5t-11 9.5l-65 91q-156 28 -256.5 133.5t-100.5 242.5q0 104 60 192.5t163.5 140t224.5 51.5q91 0 174 -30.5t143 -82t95.5 -122.5t35.5 -149q0 -137 -100.5 -242.5t-256.5 -133.5l-65 -91q-10 -13 -26 -13zM512 768q-159 0 -271.5 -94t-112.5 -226
q0 -76 40.5 -143.5t113 -112.5t162.5 -59q13 -2 21 -13l47 -65l47 65q2 4 5.5 6.5t7.5 4.5t8 2q137 21 226.5 110t89.5 205q0 132 -112.5 226t-271.5 94zM288.5 384q-26.5 0 -45.5 19t-19 45t19 45t45.5 19t45 -19t18.5 -45t-18.5 -45t-45 -19zM288 448v-32v32zM736 384
q-7 0 -14.5 1.5t-13.5 5t-12 7.5t-10 10t-7.5 12t-5 13.5t-1.5 14.5q0 26 19 45t45 19q10 0 20 -3t18 -9t14 -14t9 -18t3 -20q0 -26 -18.5 -45t-45.5 -19zM736 448v-32v32zM512.5 384q-26.5 0 -45.5 19t-19 45t19 45t45 19q10 0 20 -3t18 -9t14 -14t9 -18t3 -20
q0 -26 -18.5 -45t-45 -19zM512 448v-32v32z" />
    <glyph glyph-name="uniF62D" unicode="&#xf62d;" 
d="M506 -33q-282 0 -282 139q0 31 27.5 57t68 42t90.5 25q-46 38 -62 97.5t-16 133.5q0 84 47 131.5t130 47.5h6q83 0 129.5 -47.5t46.5 -131.5q0 -18 -0.5 -34.5t-2.5 -36t-5.5 -36t-9.5 -34.5t-14 -33.5t-19.5 -30.5t-26.5 -26q79 -13 133 -45.5t54 -78.5
q-2 -138 -294 -139zM509 576q-57 0 -85 -28.5t-28 -86.5q0 -68 13.5 -116.5t52.5 -73.5q5 -3 8 -7t5 -9t2 -11v-42q0 -6 -2.5 -11.5t-6 -10t-9 -7t-11.5 -3.5q-23 -2 -45.5 -7t-39.5 -10.5t-31.5 -12t-24 -12.5t-14.5 -11.5t-5 -10.5q0 -75 218 -75q108 0 169 20t61 55
q0 7 -11.5 16t-31.5 18.5t-51.5 18t-65.5 11.5q-13 2 -21 11t-8 21v42q0 18 15 27q39 25 52 73.5t13 116.5q0 115 -112 115h-6zM929 131q-13 0 -22.5 9.5t-9.5 22.5q0 23 -36.5 52t-93.5 35q-12 1 -20.5 10t-8.5 22v72q0 8 4 15t11 12q31 19 49.5 52t24.5 62.5t6 62.5
q0 30 -11 52.5t-26 34t-35 18.5t-33.5 8.5t-25.5 1.5q-7 0 -13 2.5t-10 7t-6.5 10.5t-2.5 12q0 3 0.5 6t1.5 5l2 6q1 2 3 4t4 3.5t4.5 3t5 2.5t5.5 1.5t6 0.5q19 0 38.5 -3t39 -9.5t36.5 -16.5t32 -24.5t26 -32.5t17 -41.5t6 -51.5q0 -74 -24 -130t-71 -91v-28
q70 -15 114.5 -58t44.5 -88q0 -13 -9.5 -22.5t-22.5 -9.5zM98 131q-13 0 -22.5 9.5t-9.5 22.5q0 45 44.5 88t114.5 58v28q-95 71 -95 221q0 24 4.5 45.5t13 38.5t20.5 31t26 24t29.5 18t33 12.5t34.5 7t34 2.5q13 0 22.5 -9.5t9.5 -22.5q0 -6 -2.5 -12t-7 -10.5t-10 -7
t-12.5 -2.5q-13 0 -26 -1.5t-33 -8.5t-35 -18.5t-26 -34t-11 -52.5q0 -127 80 -177q4 -3 7.5 -7.5t5.5 -9.5t2 -10v-72q0 -13 -8.5 -22t-20.5 -10q-57 -6 -93.5 -35t-36.5 -52q0 -24 -23 -31q-5 -1 -9 -1z" />
    <glyph glyph-name="uniF62E" unicode="&#xf62e;" 
d="M991 576q0 46 -32.5 78.5t-79 32.5t-79 -32.5t-32.5 -78.5q0 -39 24.5 -69.5t61.5 -39.5q-35 -70 -73 -120t-61 -50q-24 0 -67 69t-87 190q17 8 31 19.5t23.5 26.5t15 33t5.5 37q0 52 -37 89t-89 37t-89 -37t-37 -89q0 -26 9.5 -49t26.5 -40t39 -27q-24 -65 -47.5 -115.5
t-42.5 -78.5t-33.5 -42t-23.5 -14q-16 0 -35.5 14t-39 38t-37 51.5t-33.5 57.5q38 9 62 39.5t24 69.5q0 46 -32.5 78.5t-78.5 32.5t-79 -32.5t-33 -78.5q0 -31 16 -57t43 -41l22 -445q0 -17 14 -26q3 -2 9 -5t23 -10.5t37.5 -14t53.5 -14.5t69.5 -14t87 -10t105.5 -4
q270 0 384 73q14 9 15 25l20 446q26 14 41.5 40t15.5 57zM832 576q0 9 4 18t10 15.5t15 10t19 3.5q19 0 33 -14t14 -33.5t-14 -33.5t-33 -14q-13 0 -24 6.5t-17.5 17.5t-6.5 24zM453 671q0 26 18 44.5t44 18.5q8 0 16 -2.5t15 -6.5t13 -9.5t10 -12.5t6 -15t2 -17
q0 -15 -7 -28.5t-20 -22t-29 -10.5q-3 0 -6 -1q-3 1 -6 1q-24 2 -40 20t-16 41zM146.5 623q19.5 0 33.5 -14t14 -33.5t-14 -33.5t-33 -14q-5 0 -9 1t-8 2.5t-7.5 3.5t-6.5 4.5t-5.5 5.5t-5 6.5t-3.5 7.5l-2 8q-1 4 -1 9q0 19 14 33t33.5 14zM851 54q-120 -55 -336 -55
t-336 55l-15 302q78 -114 153 -114q97 0 198 268q35 -92 69.5 -153.5t68.5 -92.5t67 -31q67 0 144 122z" />
    <glyph glyph-name="uniF62F" unicode="&#xf62f;" 
d="M664.5 661.5q-9.5 9.5 -22.5 10t-23 -9.5l-76 -73l-73 73q-7 6 -15 8t-16 0t-15 -8q-9 -9 -9 -22.5t9 -22.5l73 -73h-50q-13 0 -22.5 -9t-9.5 -22.5t9.5 -23t22.5 -9.5h64v-32h-64q-13 0 -22.5 -9t-9.5 -22.5t9.5 -23t22.5 -9.5h64v-65q0 -14 9.5 -23t23 -9t22.5 9t9 23
v65h65q8 0 15.5 4.5t12 12t4.5 15.5q0 14 -9.5 23t-22.5 9h-65v32h65q13 0 22.5 9.5t9.5 23t-9.5 22.5t-22.5 9h-51l75 72q9 10 9.5 23t-9 22.5zM940 158q-70 29 -142 57q47 51 72.5 115.5t25.5 132.5q0 60 -19 116.5t-53 101.5t-79 79t-101.5 52.5t-115.5 18.5
q-100 0 -185 -49t-134 -134t-49 -185v-16q0 -8 1 -16l2 -16q1 -8 6 -15t13 -10t16 -2q14 2 22 12.5t6 23.5q-2 19 -2 39q0 126 89 215t215 89q61 0 117.5 -24t97 -64.5t65 -97t24.5 -118.5q0 -42 -11.5 -81.5t-33 -75t-52.5 -64.5l-1 -1v-2q-75 28 -94 31q-39 6 -63 -29
q-19 -28 -8 -56q2 -5 8 -14.5t13.5 -19.5t17.5 -23q-42 0 -91.5 7.5t-100.5 27.5q-15 6 -35 22t-32.5 29t-36.5 37q-31 34 -48.5 50.5t-44 33t-49.5 16.5q-14 0 -26.5 -5t-23.5 -15q-40 -36 -12 -109q10 -28 30.5 -60.5t47 -64t59 -60.5t66.5 -51.5t70 -36t68 -13.5h478
q14 0 23 9.5t9 22.5v160q1 22 -19 30zM896 0h-446l-1 -32v32q-46 0 -107 42t-109 99t-66 103q-12 33 -5 39q2 2 3.5 2.5t2.5 1t2 0.5q22 0 96 -79q27 -29 42 -44t39.5 -34t45.5 -27q103 -39 216 -39q43 0 69 4q8 2 15 7.5t10 13.5q2 5 2 10.5t-2 11t-6 9.5q-53 63 -67 86v1
q32 -5 265 -100v-107h1z" />
    <glyph glyph-name="uniF630" unicode="&#xf630;" 
d="M512.5 892q-103.5 0 -197 -40.5t-161.5 -108.5t-108.5 -161.5t-40.5 -196.5t40.5 -197t108.5 -162t161.5 -108.5t197 -40.5t197 40.5t161.5 108.5t108.5 162t40.5 197t-40.5 196.5t-108.5 161.5t-161.5 108.5t-197 40.5zM512.5 -71q-92.5 0 -177 36t-145.5 97t-97 145.5
t-36 177t36 177t97 145.5t145.5 97t177 36t177 -36t145.5 -97t97 -145.5t36 -177t-36 -177t-97 -145.5t-145.5 -97t-177 -36zM490 368q-2 11 -10.5 17.5t-19.5 4.5l-50 -8v110h52q10 0 18 7.5t8 18t-8 18.5t-18 8h-52v86q0 7 -3.5 13t-9.5 9.5t-13 3.5q-11 0 -18.5 -7.5
t-7.5 -18.5v-86h-35v52q0 7 -3.5 13t-9.5 9t-13 3q-10 0 -18 -7.5t-8 -17.5v-62q0 -14 -6.5 -23t-13.5 -9q-11 0 -18.5 -7.5t-7.5 -18.5t7.5 -18.5t18.5 -7.5q41 0 62 42h45v-118l-107 -16q-11 -2 -17.5 -10.5t-4.5 -19.5q1 -4 2.5 -7t4 -6t5.5 -5t6.5 -3t7.5 -1h2h2l99 16
v-177q0 -10 7.5 -17.5t18.5 -7.5q5 0 10 2t8.5 5.5t5.5 8t2 9.5v185l58 9q11 1 17.5 10t4.5 19zM756 492h-104v52h87q10 0 18 7.5t8 18t-8 18.5t-18 8h-87v69q0 10 -7.5 18t-18.5 8q-7 0 -13 -3.5t-9.5 -9.5t-3.5 -13v-69h-69q-11 0 -18.5 -8t-7.5 -18.5t7.5 -18t18.5 -7.5
h69v-52h-86q-11 0 -18.5 -8t-7.5 -18.5t7.5 -18t18.5 -7.5h242q11 0 18.5 7.5t7.5 18t-7.5 18.5t-18.5 8zM756 370h-52v35q0 11 -7.5 18.5t-18.5 7.5t-18.5 -7.5t-7.5 -18.5v-35h-138q-11 0 -18.5 -7.5t-7.5 -18t7.5 -18t18.5 -7.5h138v-124q0 -14 -2 -19.5t-12.5 -9.5
t-33.5 -4q-11 0 -18.5 -7.5t-7.5 -18.5q0 -7 3.5 -13t9.5 -9.5t13 -3.5q14 0 22.5 0.5t25 5t26.5 12.5t18 25.5t8 41.5v124h52q11 0 18.5 7.5t7.5 18t-7.5 18t-18.5 7.5zM540 293q-7 0 -13 -3.5t-9.5 -9.5t-3.5 -13v-52q0 -7 3.5 -13t9.5 -9.5t13 -3.5q10 0 18 7.5t8 18.5
v52q0 20 -20 25q-4 1 -6 1z" />
    <glyph glyph-name="uniF631" unicode="&#xf631;" 
d="M511 891q-103 0 -196.5 -40t-161.5 -108t-108 -162t-40 -197t40 -196.5t108 -161.5t161.5 -108t196.5 -40q83 0 160 25.5t139.5 72.5t109.5 109t72.5 139.5t25.5 159.5q0 103 -40.5 197t-108 162t-161.5 108t-197 40zM511 -70q-74 0 -143.5 22.5t-125 65t-98 98.5
t-65.5 125t-23 143q0 93 36.5 177t97 145t145 97t177 36t176.5 -36t145 -97t97 -145t36 -176.5t-36 -176.5t-97 -145t-145 -97t-177 -36zM747 501l-304 -31v142q0 11 -7.5 18.5t-18.5 7.5t-18.5 -7.5t-7.5 -18.5v-147l-145 -16q-10 -1 -17 -9t-6 -19q1 -10 8.5 -16.5
t17.5 -6.5h1h2l139 14v-128q0 -62 25 -91.5t95 -29.5h140q13 0 21.5 0.5t24 4.5t25.5 11.5t17.5 24t7.5 38.5q0 4 -1.5 8t-3.5 7.5t-5.5 5.5t-7.5 3.5t-8 1.5q-11 0 -18.5 -7.5t-7.5 -18.5q0 -17 -7 -22t-37 -5h-140q-16 0 -26.5 1t-18.5 4.5t-12 7.5t-6.5 13t-3.5 18t-1 25
v134l309 32q11 1 17.5 9.5t5.5 19t-9.5 17t-18.5 5.5z" />
    <glyph glyph-name="uniF632" unicode="&#xf632;" 
d="M522.5 896q-101.5 0 -194 -39.5t-159.5 -106.5t-106.5 -159.5t-39.5 -194t39.5 -194t106.5 -159.5t159.5 -106.5t194 -39.5t194 39.5t159.5 106.5t106.5 159.5t39.5 194t-39.5 194t-106.5 159.5t-159.5 106.5t-194 39.5zM523 -52q-91 0 -174.5 35.5t-143.5 95.5
t-95.5 143t-35.5 174t35.5 174.5t95.5 143.5t143.5 95.5t174.5 35.5t174 -35.5t143 -95.5t95.5 -143.5t35.5 -174.5t-35.5 -174t-95.5 -143t-143 -95.5t-174 -35.5zM406 624q1 7 -1.5 13t-8 10.5t-12.5 5.5q-10 1 -18.5 -5t-10.5 -17t-7.5 -32t-35.5 -82.5t-76 -122.5
q-4 -6 -5 -12.5t2 -13t8 -10.5q7 -5 16 -5q6 0 11 2.5t9 7.5q13 17 25 35v-220q0 -11 7.5 -18.5t18.5 -7.5q7 0 12.5 3.5t9 9.5t3.5 13v305q45 85 53 141zM745 468q11 0 18.5 7.5t7.5 17.5q0 3 -1 5v4q-1 2 -2.5 4t-2.5 3.5t-3 3t-4 2.5l-4 2q-2 1 -4 1.5t-5 0.5h-186
q4 63 1 110q-1 7 -4.5 12.5t-9.5 8.5t-14 3q-10 -1 -17 -9t-7 -18q1 -1 1 -3v-8v-13v-16v-19q0 -10 -0.5 -23t-1.5 -25h-86q-6 0 -12 -3.5t-9.5 -9.5t-3.5 -13q0 -10 7.5 -17.5t17.5 -7.5h82q-22 -192 -106 -263q-8 -7 -9 -17.5t6 -18.5q3 -3 6 -5t6.5 -3t7.5 -1t8.5 1.5
t7.5 4.5q101 85 125 302h190zM754 323q-5 0 -10 -2t-8.5 -5.5t-5.5 -8.5t-2 -10v-59q0 -4 -2.5 -9t-7 -8.5t-9 -6t-7.5 -2.5h-51q-15 0 -23 8q-3 3 -4.5 8t-1.5 12v185q0 5 -2 10t-5.5 8.5t-8 5.5t-9.5 2q-11 0 -18.5 -7.5t-7.5 -18.5v-185q-1 -34 21 -56q13 -14 29.5 -18.5
t29.5 -4.5h51q13 0 27 6t25 16t18 25t7 30v59q0 7 -3 13t-9 9.5t-13 3.5zM617 586l61 -27q5 -2 10 -2q17 0 24 16q4 10 0 19.5t-14 13.5l-61 27q-10 4 -19.5 0t-14.5 -13q-8 -20 9 -32q3 -1 5 -2z" />
    <glyph glyph-name="uniF633" unicode="&#xf633;" horiz-adv-x="1061" 
d="M713 476h-55q0 -53 -37.5 -90.5t-90.5 -37.5t-90.5 37.5t-37.5 90.5h-55q0 -76 53.5 -129.5t129.5 -53.5t129.5 53.5t53.5 129.5zM1060 285q0 28 -6 54.5t-17 50t-27 44t-35.5 37.5t-42.5 29q-2 108 -56 199t-146 144t-200 53t-200 -53t-146 -144t-56 -199
q-58 -31 -93 -88.5t-35 -126.5q0 -84 51.5 -149.5t130.5 -86.5l-55 -177h56l18 55l50 165h-3h-1q-80 0 -136 56t-56 136q0 46 20.5 86t56.5 67q16 -109 84.5 -194.5t170.5 -123.5l-59 -192l-17 -55h55l18 55l78 226q-120 24 -199.5 119.5t-79.5 221.5q0 94 46.5 174
t126.5 126.5t174 46.5q71 0 135 -27.5t110.5 -74t74 -110.5t27.5 -135q0 -126 -79.5 -221.5t-199.5 -119.5l78 -226l19 -55h54l-17 55l-59 192q102 38 170.5 123.5t84.5 194.5q36 -27 56.5 -67t20.5 -86q0 -80 -56 -136t-135 -56h-2h-2l49 -165l18 -55h56l-55 177
q79 21 130.5 86.5t51.5 149.5z" />
    <glyph glyph-name="uniF634" unicode="&#xf634;" horiz-adv-x="1108" 
d="M596 384h-128v64h58q33 0 52 1h19v61q-15 -1 -42.5 -2.5t-47.5 -2.5l-20 -1l69 73l-67 33l-21 -98h-256v-64q12 2 35.5 2t46.5 -0.5t55 -1t55 -0.5v-64h-128v-64q66 -1 128 0v-128q0 -7 0.5 -18t0.5 -16.5t-1 -13t-5.5 -11t-11.5 -6.5t-18.5 -2.5t-28.5 3.5
q7 -14 7 -20.5t-4 -20t-3 -23.5q11 2 21.5 2t23 -1t19.5 -1q64 0 64 64v192h128v64zM302 589l33 -76l62 22q-3 6 -8 15.5t-15 30t-14 30.5zM596 640v64h-128v64h-64v-64h-128v-64h320zM276 256h64v-128h-64v128zM532 256h64v-128h-64v128zM916 896h-704q-52 0 -96.5 -25.5
t-70 -70t-25.5 -96.5v-640q0 -80 56 -136t136 -56h704q52 0 96 25.5t70 70t26 96.5v640q0 80 -56.5 136t-135.5 56zM1043 74q0 -37 -17 -68.5t-47.5 -50t-68.5 -18.5h-689q-57 0 -97 40t-40 97v621q0 57 40 97t97 40h689q57 0 95 -40t38 -97v-621zM724 512v128q58 0 106 7
t66 15l19 7l-50 76q-2 2 1 -4q-48 -36 -206 -37q2 -19 2 -52t-1 -77t-1 -63v-256q0 -22 -5.5 -47t-21 -50.5t-37.5 -30.5q14 -4 26.5 -16.5t22.5 -28t15 -19.5q25 37 44.5 93.5t19.5 98.5q0 19 -0.5 52t-0.5 66.5t1 73.5h64v-384h64v384h20h14q7 0 14 -1t16 -3v72
q-17 1 -40.5 0.5t-50.5 -1t-49.5 -1.5t-36.5 -1z" />
    <glyph glyph-name="uniF635" unicode="&#xf635;" horiz-adv-x="1109" 
d="M340 704q-4 -12 -16 -54t-17 -58.5t-17 -51.5t-21.5 -56t-24.5 -49t-32 -51q3 -10 3 -26t-2 -27l-1 -11q49 37 64 64v-320h64v448q5 10 10.5 22t9.5 22.5t10 25t9.5 24t9 26t8 23.5t8.5 24.5t8 22.5zM763 564q4 8 9 22.5t9.5 29t6.5 19.5q-6 6 -17 14.5t-22.5 15.5
t-22 13.5t-17.5 10.5l-6 4l-43 -39q11 -10 36 -30t40.5 -33.5t26.5 -26.5zM916 896h-704q-52 0 -96.5 -25.5t-70 -70t-25.5 -96.5v-640q0 -80 56.5 -136t135.5 -56h704q80 0 136 56t56 136v640q0 80 -56 136t-136 56zM1044 74q0 -57 -38.5 -97t-94.5 -40h-690
q-56 0 -96.5 40t-40.5 97v621q0 28 11 53.5t29.5 43.5t43.5 29t53 11h690q56 0 94.5 -40t38.5 -97v-621zM852 256q-12 -5 -21.5 -8.5t-22 -7.5t-20.5 -6q-1 -25 -1 -106h-83q-9 0 -16 2t-11.5 5t-7.5 8.5t-5 10t-3 12t-1 12.5v14v256h192v64h-256q2 21 2 51t-1 73t-1 68h-64
v-35q0 -29 0.5 -57.5t0.5 -58.5t-1 -41h-128v-64h128q0 -8 -1.5 -22.5t-10 -56.5t-21 -79.5t-39 -83.5t-60.5 -78q4 -3 4 -64q1 0 3 1t7.5 4t11 7t14.5 10t17 13.5t18 17.5t18.5 21t18 26t17.5 30q21 42 37.5 105.5t23.5 105.5l6 43v-276q2 -108 64 -108h124q41 0 54.5 15.5
t13.5 52.5q0 12 -0.5 58t0.5 66z" />
    <glyph glyph-name="uniF636" unicode="&#xf636;" horiz-adv-x="1108" 
d="M659 195q-1 -15 -2 -40t-1 -36t1 -41l69 2l-2 114zM468 407v64q-2 0 -5 -1t-12 -3t-16.5 -3.5t-16.5 -4t-14 -3.5v56h64v64q-10 -1 -33.5 -0.5t-30.5 0.5v128h-64v-128q-14 0 -32.5 -1t-31.5 1v-64q7 3 25 1.5t39 -1.5v-64q-14 -3 -37.5 -10.5t-50.5 -11.5q12 -30 18 -68
q6 2 11 4l8 4q3 2 7 3.5t7.5 3t8.5 3.5t12 4t16 4v-64q0 -23 -15.5 -29.5t-46.5 -3.5q3 -4 13.5 -16.5t16 -22t7.5 -21.5q4 1 13 0.5t17.5 -1t18 0t15.5 2.5q9 3 15.5 10t8.5 12l2 5l-1 64v72q0 2 6.5 4.5t16 4.5t18.5 3.5t16 2.5h7zM272 70l66 -3l7 126l-60 2zM463 192
q3 -26 2.5 -39t-3.5 -41.5t-3 -46.5l75 3q-2 39 -3.5 69.5t-1.5 42.5l-1 11zM915 896h-703q-80 0 -136 -56.5t-56 -135.5v-640q0 -80 56 -136t136 -56h703q80 0 136 56t56 136v640q0 39 -15 74.5t-40.5 61t-61.5 41t-75 15.5zM1043 74q0 -57 -38 -97t-95 -40h-689
q-57 0 -97 40t-40 97v621q0 37 18.5 68.5t50 50t68.5 18.5h689q57 0 95 -40t38 -97v-621zM827 193q0 -8 1 -20.5t6 -44.5t14 -56l84 -1l-45 124zM888 369q-7 -34 -14 -51.5t-13 -17.5q-12 0 -14 30q-2 25 -2 50t0.5 45.5t2.5 65t3 85.5q-19 2 -128 0q5 48 5 80t-2 40l-3 8
q-42 -5 -64 0q2 -20 0 -128q-24 -1 -69 -1t-58 1v-64q9 2 55.5 0t71.5 0q-1 -20 -3 -32t-6.5 -22.5t-10.5 -20.5q-8 6 -20.5 13.5t-24 15t-16.5 10.5l-37 -41l10 -6q5 -3 10.5 -7t12 -9t13.5 -10t14 -11q-41 -84 -134 -134q35 -12 63 -37q63 43 120 124q39 -34 49 -46l47 48
q-17 14 -35 31.5t-27 24.5q16 25 22.5 45t16.5 64h64q0 -4 -1 -10.5t-2.5 -27t-2.5 -39.5t-1 -44.5t2 -46.5t7.5 -40.5t13.5 -31.5q35 -40 68 -40q46 0 74 100q-16 2 -30 11.5t-27 25.5z" />
    <glyph glyph-name="uniF637" unicode="&#xf637;" 
d="M888 598q-6 6 -14.5 8t-16.5 -0.5t-14 -9.5l-427 -454l-233 230q-10 9 -23 9t-22.5 -9.5t-9.5 -23t10 -22.5l256 -253h1q1 -1 7 -4q0 -1 1 -1.5t2 -1.5q3 -1 6 -1.5t6 -0.5q6 0 12 3q1 0 2 1t2 1q5 3 7 5v0l449 479q9 9 9 22.5t-10 22.5z" />
    <glyph glyph-name="uniF638" unicode="&#xf638;" 
d="M557 383l266 264q9 9 9 22t-9 23q-6 6 -14.5 8.5t-16.5 0t-15 -8.5l-265 -264l-263 264q-6 6 -14 8t-16.5 0t-14.5 -8q-10 -9 -10 -22.5t10 -22.5l263 -264l-265 -264q-10 -9 -10 -22.5t9.5 -22.5t22.5 -9q3 0 6 0.5t6 1.5t5.5 3t5.5 4l265 264l265 -267q10 -9 23 -9
q6 0 12 2.5t11 6.5q9 10 9 23t-9 23z" />
    <glyph glyph-name="uniF639" unicode="&#xf639;" 
d="M800 -64h-576q-40 0 -68 28t-28 68v640q0 40 28 68t68 28h448q13 0 22.5 -9.5t9.5 -22.5t-9.5 -22.5t-22.5 -9.5h-448q-13 0 -22.5 -9.5t-9.5 -22.5v-640q0 -13 9.5 -22.5t22.5 -9.5h576q13 0 22.5 9.5t9.5 22.5v512q0 13 9.5 22.5t22.5 9.5t22.5 -9.5t9.5 -22.5v-512
q0 -40 -28 -68t-68 -28zM612 448q-13 0 -23 9q-6 7 -8 15t0 16t8 15l318 318q10 9 23 9t23 -9q17 -18 5 -39q-3 -4 -5 -7l-318 -318q-10 -9 -23 -9zM480 448h-192q-13 0 -22.5 9.5t-9.5 22.5t9.5 22.5t22.5 9.5h192q13 0 22.5 -9.5t9.5 -22.5t-9.5 -22.5t-22.5 -9.5z
M672 256h-384q-13 0 -22.5 9.5t-9.5 22.5t9.5 22.5t22.5 9.5h384q13 0 22.5 -9.5t9.5 -22.5t-9.5 -22.5t-22.5 -9.5z" />
    <glyph glyph-name="uniF63A" unicode="&#xf63a;" 
d="M957 492q-2 5 -5.5 9.5t-8.5 7.5t-11 4l-271 42l-120 259q-4 8 -12 13t-17 5q-21 0 -29 -18l-122 -258l-271 -41q-19 -3 -25.5 -21.5t7.5 -32.5l196 -202l-47 -285q-3 -20 13.5 -31.5t33.5 -1.5l242 133l242 -134q7 -4 15 -4h1q13 0 22.5 9.5t9.5 22.5q0 6 -2 11l-45 279
l197 201q13 14 7 33z" />
    <glyph glyph-name="uniF63B" unicode="&#xf63b;" 
d="M512 -67q-148 0 -268 89q-71 54 -116.5 130t-58 165t9.5 174.5t75 157.5q73 98 183 144.5t228.5 32.5t216.5 -87q62 -46 105 -111t61 -141q3 -12 -4 -23.5t-19.5 -14.5t-24 3.5t-14.5 19.5q-11 43 -31 82.5t-48 73.5t-64 60q-83 63 -184.5 74.5t-196 -28.5t-156.5 -123
q-46 -62 -65 -135.5t-8 -149.5t49.5 -141t100.5 -112q83 -62 185 -74t196 28t156 124q13 16 23.5 33.5t19 36.5t15 38t10.5 39q3 13 14 20.5t24 4.5t20 -14t5 -24q-4 -16 -8.5 -31t-10 -30t-12 -29.5t-14 -28.5t-16.5 -27.5t-18 -26.5q-54 -72 -130 -117t-165 -58
q-33 -4 -65 -4z" />
    <glyph glyph-name="uniF63C" unicode="&#xf63c;" 
d="M512 288q-79 0 -135.5 56.5t-56.5 135.5t56.5 135.5t135.5 56.5t135.5 -56.5t56.5 -135.5t-56.5 -135.5t-135.5 -56.5zM512 608q-53 0 -90.5 -37.5t-37.5 -90.5t37.5 -90.5t90.5 -37.5t90.5 37.5t37.5 90.5t-37.5 90.5t-90.5 37.5zM512 -64q-13 1 -22 9q-10 9 -10 22.5
t9 22.5q39 41 86 97.5t100.5 129.5t89 144.5t35.5 118.5q0 119 -84.5 203.5t-203.5 84.5t-203.5 -84.5t-84.5 -203.5q0 -57 52.5 -151.5t151.5 -215.5q9 -11 7.5 -24t-12 -21.5t-23.5 -7t-21 11.5q-219 268 -219 408q0 146 103 249t249 103t249 -103t103 -249
q0 -53 -34 -127.5t-76.5 -136.5t-98 -130.5t-80 -95.5t-40.5 -44q-9 -10 -23 -10z" />
    <glyph glyph-name="uniF63D" unicode="&#xf63d;" 
d="M369 66v-1q-4 0 -10 -1h-4h-3q-52 0 -89 36.5t-38 88.5q-2 53 34 91q37 39 89 40h2h2q20 0 38.5 -6t35.5 -18q46 -16 92 45t19 95q-9 7 -18 17q-2 1 -3 3q-31 35 -33 80q-1 53 35 91t89 40h1h3q44 0 78.5 -28t44.5 -71q4 -14 7 -30.5t2 -50t-9 -68.5t-31 -83t-59 -96
q-115 -154 -248 -172q-15 -2 -27 -2zM365 130q7 0 16 1t26.5 4.5t37.5 13.5t43.5 25.5t51 42t53.5 61.5q38 52 59.5 101.5t24 85.5t1 54.5t-5.5 31.5q-2 9 -6 17t-10 14.5t-13 11t-15.5 7t-17.5 2.5t-17.5 -2.5t-15.5 -7t-12.5 -10.5t-9.5 -13t-6 -15.5t-2 -16.5
q1 -13 5.5 -23t11.5 -17v-1q6 -6 12 -10q4 -3 6 -6q10 -10 16.5 -24t11 -36.5t-5.5 -53.5t-35 -64q-55 -74 -124 -74q-24 0 -47 9q-4 2 -8 5q-17 14 -38 14q-28 -1 -46 -20t-17 -45q0 -13 5 -24.5t13.5 -19.5t20 -13t24.5 -5q1 1 3 1q6 0 10 -1zM512 -67q-91 0 -174 35
q-12 5 -17 17t0 24.5t17.5 17.5t24.5 0q71 -30 149 -30q104 0 192.5 51.5t140 140t51.5 192.5q0 39 -8 77t-22.5 72t-35.5 65t-46.5 57t-57 47t-65.5 35.5t-72 22.5t-77 8q-104 0 -192.5 -51.5t-140 -140t-51.5 -192.5q0 -111 59 -204q4 -8 4.5 -16.5t-3.5 -16t-11 -11.5
q-12 -7 -25 -4t-20 14q-22 35 -37 74t-23 80.5t-8 83.5q0 91 35.5 174t95.5 143t143 95.5t174 35.5t174 -35.5t143 -95.5t95.5 -143t35.5 -174t-35.5 -174t-95.5 -143t-143 -95.5t-174 -35.5z" />
    <glyph glyph-name="uniF63E" unicode="&#xf63e;" 
d="M512 -64q-185 0 -316.5 131.5t-131.5 316.5t131.5 316.5t316.5 131.5t316.5 -131.5t131.5 -316.5t-131.5 -316.5t-316.5 -131.5zM512 768q-104 0 -192.5 -51.5t-140 -140t-51.5 -192.5t51.5 -192.5t140 -140t192.5 -51.5t192.5 51.5t140 140t51.5 192.5t-51.5 192.5
t-140 140t-192.5 51.5zM557 383l138 136q10 10 10 23t-9.5 22.5t-22.5 9.5t-23 -9l-138 -137l-137 137q-6 6 -14 8t-16.5 0t-14.5 -8q-9 -9 -9 -22.5t9 -22.5l136 -137l-137 -136q-9 -9 -9.5 -22.5t9 -23t22.5 -9.5q14 0 23 10l138 136l138 -140q10 -9 23 -9t22.5 9.5
t9.5 22.5t-9 23z" />
    <glyph glyph-name="uniF63F" unicode="&#xf63f;" 
d="M512 -64q-185 0 -316.5 131.5t-131.5 316.5t131.5 316.5t316.5 131.5t316.5 -131.5t131.5 -316.5t-131.5 -316.5t-316.5 -131.5zM512 768q-159 0 -271.5 -112.5t-112.5 -271.5t112.5 -271.5t271.5 -112.5t271.5 112.5t112.5 271.5t-112.5 271.5t-271.5 112.5zM669 395
q-1 2 -2 3.5t-2.5 3.5t-2.5 3v0l-159 160q-9 9 -22.5 9t-22.5 -9q-6 -6 -8.5 -14.5t-0.5 -16.5t9 -14l136 -137l-138 -136q-9 -9 -9 -22.5t9.5 -23t22.5 -9.5t22 10l161 158q15 15 7 35z" />
    <glyph glyph-name="uniF640" unicode="&#xf640;" 
d="M224 255.5q0 26.5 18.5 45t45 18.5t45.5 -18.5t19 -45t-19 -45t-45.5 -18.5t-45 18.5t-18.5 45zM673 256q0 10 3 19.5t9 17.5t14 14t17.5 9t20.5 3q26 0 45 -18.5t19 -45t-19 -45t-45.5 -18.5t-45 18.5t-18.5 45.5zM705 384h-384q-13 0 -22.5 9.5t-9.5 22.5t9.5 22.5
t22.5 9.5h384q13 0 22.5 -9.5t9.5 -22.5t-9.5 -22.5t-22.5 -9.5zM896 444v5q0 4 -1 7l-32 159q0 2 -0.5 4t-1.5 3q-16 34 -53 58t-72 24h-35v2l-1 4l-19 62q-6 25 -29.5 42.5t-52.5 17.5h-174q-29 0 -52 -17t-29 -41l-20 -63v-5v-2h-36q-38 0 -74.5 -22t-51.5 -62
q-1 -3 -1 -5l-32 -160q-1 -3 -1 -7v-4q-28 -11 -46 -35.5t-18 -55.5v-195q0 -39 28 -66.5t68 -27.5h32v-2q0 -53 37.5 -90.5t90.5 -37.5q35 0 64.5 17t46.5 46.5t17 64.5v2h128v-2q0 -53 37.5 -90.5t90.5 -37.5t90.5 37.5t37.5 90.5v2h32q40 0 68 27t28 67v195q0 54 -45 82
q-10 5 -19 9zM406 758q0 1 2.5 3.5t7 4.5t9.5 2h174q8 0 13.5 -4t6.5 -9l16 -51h-246zM896 158q0 -13 -9 -21.5t-23 -8.5h-64q-13 0 -22.5 -9.5t-9.5 -22.5v-34q0 -26 -19 -45t-45 -19t-45 19t-19 45v34q0 13 -9.5 22.5t-22.5 9.5h-192q-13 0 -22.5 -9.5t-9.5 -22.5v-34
q0 -26 -19 -45t-45 -19q-17 0 -32 8.5t-23.5 23.5t-8.5 32v34q0 13 -9.5 22.5t-22.5 9.5h-64q-14 0 -23 8.5t-9 21.5v195q0 5 1 9t3.5 7.5t5.5 6.5t6.5 5t7.5 3t9 1q6 0 12 2.5t10.5 7t7 10.5t2.5 13l-1 28l31 153q5 13 16 22.5t24 14t25 4.5h448q16 0 36 -13t30 -29
l30 -152v-29q0 -8 4.5 -15.5t11.5 -12t16 -4.5q13 0 22.5 -9t9.5 -23v-195z" />
    <glyph glyph-name="uniF641" unicode="&#xf641;" 
d="M512 832q-185 0 -316.5 -131.5t-131.5 -316.5t131.5 -316.5t316.5 -131.5t316.5 131.5t131.5 316.5t-131.5 316.5t-316.5 131.5zM512 0q-104 0 -192.5 51.5t-140 140t-51.5 192.5t51.5 192.5t140 140t192.5 51.5t192.5 -51.5t140 -140t51.5 -192.5t-51.5 -192.5
t-140 -140t-192.5 -51.5zM672 384h-160v224q0 9 -4.5 16t-11.5 11.5t-16 4.5q-7 0 -12.5 -2.5t-10 -7t-7 -10.5t-2.5 -12v-256q0 -13 9.5 -22.5t22.5 -9.5h192q7 0 12.5 2.5t10 7t7 10t2.5 12.5q0 13 -9.5 22.5t-22.5 9.5z" />
    <glyph glyph-name="uniF642" unicode="&#xf642;" 
d="M890 565q-17 18 -39 5q-3 -3 -6 -5l-328 -331l-332 329q-3 3 -6 5t-6.5 3t-7 1.5t-7 0t-7 -1.5t-6.5 -3t-5 -5q-4 -3 -6.5 -8t-3 -9.5t0 -9.5t3 -9.5t6.5 -8.5l353 -350h1l1 -1v-1q5 -4 10.5 -6.5t12.5 -2.5q13 0 22 9l350 354q10 9 10 22.5t-10 22.5z" />
    <glyph glyph-name="uniF643" unicode="&#xf643;" 
d="M736 768q-102 0 -176 -70q-6 -5 -48 -48l-47 47q-74 71 -177 71q-35 0 -68 -9t-61 -25.5t-52 -40.5t-40.5 -52t-25.5 -61t-9 -68q0 -100 76 -182l317 -321q42 -41 87 -41t87 42l319 322q25 31 37.5 49.5t24.5 54t12 76.5q0 30 -6.5 58.5t-19.5 54t-30.5 47.5t-39.5 39.5
t-47.5 30.5t-54 19.5t-58.5 6.5z" />
    <glyph glyph-name="uniF644" unicode="&#xf644;" 
d="M512 832q-185 0 -316.5 -131.5t-131.5 -316.5t131.5 -316.5t316.5 -131.5t316.5 131.5t131.5 316.5t-131.5 316.5t-316.5 131.5zM289 72q7 0 10 1q47 17 90 28t68 13q12 1 20.5 10t8.5 22v59q0 15 -11 24q-37 32 -54.5 94.5t-17.5 128.5q0 136 125 136q40 0 66 -15
t39 -45t13 -76q0 -21 -3 -44.5t-9 -45.5t-14 -43t-18 -39t-21.5 -33t-24.5 -24q-12 -10 -12 -25v-55q0 -3 0.5 -5.5t1 -4.5t1.5 -4t2.5 -4t2.5 -3l4 -4q1 -1 3 -2.5t4.5 -2.5t4.5 -1.5t5 -0.5q50 -6 148 -45h3q1 -1 2 -1q-31 -20 -65 -34.5t-72 -22.5t-77 -8q-122 0 -223 72
zM765 95q0 23 -20 31q-80 31 -137 43v14q48 45 75 121.5t27 147.5q0 64 -21.5 108.5t-62 68t-98.5 23.5q-59 0 -101.5 -23.5t-65 -68.5t-22.5 -108q0 -17 1 -36t6 -51.5t13.5 -61t24.5 -59.5t38 -53v-17q-61 -11 -145 -41q-11 -3 -16.5 -13.5t-3.5 -21.5q-60 53 -94.5 127.5
t-34.5 158.5q0 104 51.5 192.5t140 140t192.5 51.5t192.5 -51.5t140 -140t51.5 -192.5q0 -85 -35 -160t-96 -129z" />
    <glyph glyph-name="uniF645" unicode="&#xf645;" 
d="M800 -32h-576q-40 0 -68 28t-28 68v640q0 40 28 68t68 28h576q40 0 68 -28t28 -68v-640q0 -40 -28 -68t-68 -28zM224 736q-13 0 -22.5 -9.5t-9.5 -22.5v-640q0 -13 9.5 -22.5t22.5 -9.5h576q13 0 22.5 9.5t9.5 22.5v640q0 13 -9.5 22.5t-22.5 9.5h-576zM641 351h-353
q-7 0 -13 2.5t-10 7t-6.5 10.5t-2.5 12q0 13 9.5 22.5t22.5 9.5h353q3 0 6 -0.5t5.5 -1.5t5 -2.5t4.5 -3t3.5 -3.5t3 -4.5t2.5 -5t1.5 -5.5t0.5 -6q0 -9 -4.5 -16t-11.5 -11.5t-16 -4.5zM735 160h-447q-7 0 -13 3t-10 7t-6.5 10t-2.5 12t1.5 10.5t4.5 8.5t7 7t8.5 4.5
t10.5 1.5h447q13 0 22.5 -9t9.5 -23q0 -5 -1.5 -10t-4.5 -8.5t-7 -6.5t-9 -5t-10 -2zM256 591q0 -20 14 -34t34 -14q13 0 24 6.5t17.5 17.5t6.5 24q0 20 -14 34t-34 14q-13 0 -24 -6.5t-17.5 -17.5t-6.5 -24zM463 591q0 -8 2.5 -15.5t7 -13.5t10.5 -10t13 -6.5t15 -2.5
q13 0 24 6.5t17.5 17.5t6.5 24t-6.5 24t-17.5 17.5t-24 6.5t-24 -6.5t-17.5 -17.5t-6.5 -24zM671 591q0 -13 6.5 -24t17.5 -17.5t24 -6.5t24 6.5t17.5 17.5t6.5 24t-6.5 24t-17.5 17.5t-24 6.5t-24 -6.5t-17.5 -17.5t-6.5 -24z" />
    <glyph glyph-name="uniF646" unicode="&#xf646;" 
d="M256 512q0 -27 18.5 -45.5t45.5 -18.5t45.5 18.5t18.5 45.5t-18.5 45.5t-45.5 18.5t-45.5 -18.5t-18.5 -45.5zM843 0h-662q-48 0 -82.5 34.5t-34.5 82.5v534q0 48 34.5 82.5t82.5 34.5h662q48 0 82.5 -34.5t34.5 -82.5v-534q0 -48 -34.5 -82.5t-82.5 -34.5zM181 704
q-22 0 -37.5 -15.5t-15.5 -37.5v-534q0 -6 1.5 -12t4 -11t6 -10t8.5 -8.5t10 -6t11 -4t12 -1.5h662q22 0 37.5 15.5t15.5 37.5v534q0 22 -15.5 37.5t-37.5 15.5h-662zM224 127l-10 1q-12 4 -18 16t-3 24q2 7 6.5 17.5t15 34.5t25.5 45t34.5 42t46.5 33.5t56 11.5
q35 -1 92 -18q24 -7 35.5 -10t35.5 -6t39 2q14 2 22.5 17t20.5 53q8 26 13.5 40.5t20 39t31 38t45.5 24.5t65 11q9 0 16 -4.5t11.5 -11.5t4.5 -16q0 -13 -9.5 -22.5t-22.5 -9.5q-28 0 -46.5 -6.5t-31 -23t-19.5 -32.5t-17 -46q-5 -16 -8 -24.5t-9 -23t-12.5 -23.5t-15.5 -19
t-21.5 -16t-27.5 -8q-16 -3 -32.5 -3t-29 1t-28.5 4.5t-24 6.5l-24 7q-17 5 -26 7.5t-23.5 5t-26.5 2.5h-1q-22 0 -43 -15.5t-36 -39.5t-25 -45t-16 -38q-7 -22 -30 -23z" />
    <glyph glyph-name="uniF647" unicode="&#xf647;" 
d="M886 214q-11 9 -24 7.5t-21 -11.5q-6 -7 -7 -15.5t2 -16.5t10 -13q3 -3 6 -7l8 -8q3 -4 6 -10l8 -10l6 -12t6 -11.5t5 -11.5t3.5 -11.5t2.5 -11t1 -9.5q0 -41 -28.5 -69.5t-69.5 -28.5q-51 0 -80 41q-65 93 -96 126q-17 18 -39.5 30.5t-41.5 18.5t-40 9t-28.5 3.5
t-14.5 0.5q-97 20 -156 89.5t-46 149.5q12 84 92 133q83 51 188 35t170 -89q62 -71 49 -154q-1 -6 -3 -12l-2 -12q-2 -6 -4.5 -12t-5 -11.5t-5.5 -11.5q-12 -21 5 -38l7 -5q8 -4 16 -4t15.5 4t12.5 12q21 38 27 81q17 112 -64 205q-20 22 -43 40.5t-49.5 32t-55.5 23
t-60 14.5q-128 19 -231 -44q-51 -31 -83 -77t-40 -100q-16 -106 57.5 -196.5t195.5 -115.5h3q4 0 9.5 -0.5t13 -1t16 -2t18 -3.5t19 -5.5t18.5 -7.5t18 -10t15 -13q10 -10 23 -26.5t25 -32.5t22 -30.5t17 -24t8 -10.5q7 -10 16 -18.5t19 -15.5t21.5 -12.5t23 -9t24 -5.5
t24.5 -2q67 0 114.5 47.5t47.5 114.5q0 37 -24 83t-52 68zM64 575.5q0 -26.5 19 -45.5t45 -19q18 0 32.5 8.5t23 23.5t8.5 32q0 27 -18.5 45.5t-45 18.5t-45.5 -18.5t-19 -45zM273 668q-18 0 -31 11q-15 13 -17 32.5t11 34.5q36 43 102 68q81 31 175 12q20 -4 31 -20.5
t7 -36t-20.5 -30.5t-36.5 -7q-24 5 -47.5 5t-41 -3.5t-34 -9.5t-26.5 -12t-19 -13t-12 -10l-5 -5l-5 -4q-2 -3 -5 -5t-6 -3t-6.5 -2t-7 -1.5t-6.5 -0.5z" />
    <glyph glyph-name="uniF648" unicode="&#xf648;" 
d="M939 640q-12 4 -24 -1.5t-16 -18.5l-25 -69q-5 11 -10.5 21.5t-11.5 21t-12.5 20t-13.5 18.5l-16 20q-7 9 -15.5 17.5t-17 16.5t-18 16t-18.5 15q-91 68 -202.5 80.5t-214.5 -30.5t-172 -134q-33 -44 -53.5 -94.5t-27 -104t0.5 -109.5q12 -82 54.5 -153t110.5 -121
q112 -83 251 -83q98 0 187.5 43t149.5 123q14 18 25.5 37.5t21 39.5t16.5 41t11 43q2 5 1.5 10t-3 9.5t-5.5 8t-7.5 6.5t-9.5 4q-8 2 -16.5 -1t-14 -9t-7.5 -15q-16 -74 -63 -135q-35 -46 -82 -78.5t-99.5 -47.5t-107.5 -15t-109.5 18t-100.5 52q-57 43 -93 102.5t-46 129.5
q-21 144 67 261q58 76 145.5 113t182 26t172.5 -68q21 -16 39.5 -35t34 -40t28 -44t21.5 -48l-110 43q-13 5 -25 -0.5t-17 -17.5q-2 -6 -2 -12.5t2.5 -12t7 -10t10.5 -7.5l162 -63q6 -2 12 -2h1h2l2 -1q3 0 6.5 1t6.5 2t5.5 3t4.5 4l4 6q2 2 3 6l58 161q8 23 -12 37z" />
    <glyph glyph-name="uniF649" unicode="&#xf649;" 
d="M896 669q-13 0 -23 9l-96 96q-9 10 -9 23t9 23q18 17 39 4q4 -2 7 -4l96 -96q9 -10 9 -23t-9.5 -22.5t-22.5 -9.5zM129 671q-13 1 -22 9q-10 10 -10 23t10 23l96 96q9 9 22 9t23 -9q2 -3 3.5 -5t2.5 -4.5t2 -5.5t1 -5v-6q0 -3 -1 -6l-2 -4q-1 -3 -2.5 -5.5t-3.5 -4.5
l-96 -96q-9 -9 -23 -9zM727 550q9 10 9 23t-9.5 22.5t-22.5 9.5t-23 -9l-128 -128v-1q-20 10 -41 10t-41 -10v1l-96 96q-10 9 -23 9t-22.5 -9.5t-9.5 -22.5t9 -23l96 -96h1q-10 -20 -10 -41q0 -40 28 -68t68 -28q26 0 48 13t35 35t13 48q0 21 -10 41h1zM512 349
q-6 0 -12 2.5t-10.5 7t-7 10t-2.5 12.5q0 13 9.5 22.5t22.5 9.5q6 0 12 -2.5t10.5 -7t7 -10.5t2.5 -12q0 -13 -9.5 -22.5t-22.5 -9.5zM810 91q56 57 87 132t31 158q0 113 -55.5 208.5t-151.5 151.5t-209 56t-209 -56t-151.5 -151.5t-55.5 -208.5q0 -84 31.5 -159t88.5 -132
l-49 -74q-8 -11 -5 -24t14 -21q8 -5 17 -5q8 0 15 3.5t12 10.5l44 67q111 -82 248 -82q138 0 249 84l46 -67q3 -4 7 -7.5t9 -5t10 -1.5q10 0 18 6q11 7 13.5 20t-4.5 24zM160 380.5q0 95.5 47 177t128.5 128.5t176.5 47t176.5 -47t128.5 -128.5t47 -177t-47 -176.5
t-128.5 -128t-176.5 -47t-176.5 47t-128.5 128t-47 176.5z" />
    <glyph glyph-name="uniF64A" unicode="&#xf64a;" 
d="M546 256h-1q-12 0 -23.5 7.5t-21.5 18.5l-37 43q-9 10 -8.5 24t10.5 23t23 8.5t22 -10.5l37 -40l174 179l-50 55l-72 -75q-6 -6 -14.5 -8t-16.5 0t-15 8q-9 9 -9 22.5t9 22.5l74 75q18 18 45 18q13 0 24.5 -5t20.5 -14l50 -53q18 -19 17.5 -45.5t-18.5 -44.5l-176 -185
q-24 -24 -44 -24zM352 141q-8 0 -16 2t-15.5 6.5t-13.5 10.5l-51 49q-19 18 -19 45t19 45l179 187q25 26 45 26t45 -25l42 -45q9 -9 9 -23.5t-9.5 -23.5t-22.5 -9.5t-23 8.5l-41 41l-179 -181l51 -48l75 73q9 9 22 9t23 -9q4 -5 6.5 -11t2.5 -12t-2.5 -12t-6.5 -11l-75 -73
q-19 -18 -45 -19zM512 -64q-185 0 -316.5 131.5t-131.5 316.5t131.5 316.5t316.5 131.5t316.5 -131.5t131.5 -316.5t-131.5 -316.5t-316.5 -131.5zM512 768q-159 0 -271.5 -112.5t-112.5 -271.5t112.5 -271.5t271.5 -112.5t271.5 112.5t112.5 271.5t-112.5 271.5
t-271.5 112.5z" />
    <glyph glyph-name="uniF64B" unicode="&#xf64b;" 
d="M512 128q-13 0 -22.5 9.5t-9.5 22.5v96q0 13 9.5 22.5t22.5 9.5t22.5 -9.5t9.5 -22.5v-96q0 -13 -9.5 -22.5t-22.5 -9.5zM832 -64h-640q-40 0 -68 28t-28 68v352q0 40 28 68t68 28h640q40 0 68 -28t28 -68v-352q0 -40 -28 -68t-68 -28zM192 416q-13 0 -22.5 -9.5
t-9.5 -22.5v-352q0 -13 9.5 -22.5t22.5 -9.5h640q13 0 22.5 9.5t9.5 22.5v352q0 13 -9.5 22.5t-22.5 9.5h-640zM736 416q-13 0 -22.5 9.5t-9.5 22.5v130q0 52 -29.5 96.5t-74 69t-90.5 24.5q-74 0 -132 -52.5t-58 -137.5v-130q0 -13 -9.5 -22.5t-22.5 -9.5t-22.5 9.5
t-9.5 22.5v130q0 76 38 135.5t95 89t121 29.5q26 0 53 -6t52 -18t48 -28.5t42 -38.5t33 -47t22 -55t8 -61v-130q0 -13 -9.5 -22.5t-22.5 -9.5z" />
    <glyph glyph-name="uniF64C" unicode="&#xf64c;" 
d="M512 128q-13 0 -22.5 9.5t-9.5 22.5v96q0 13 9.5 22.5t22.5 9.5t22.5 -9.5t9.5 -22.5v-96q0 -13 -9.5 -22.5t-22.5 -9.5zM832 -64h-640q-40 0 -68 28t-28 68v384q0 40 28 68t68 28h640q40 0 68 -28t28 -68v-384q0 -40 -28 -68t-68 -28zM192 448q-13 0 -22.5 -9.5
t-9.5 -22.5v-384q0 -13 9.5 -22.5t22.5 -9.5h640q13 0 22.5 9.5t9.5 22.5v384q0 13 -9.5 22.5t-22.5 9.5h-640zM288 480q-13 0 -22.5 9.5t-9.5 22.5v65q0 58 23 107t61 81t85.5 49.5t96.5 17.5q76 0 143 -41t101 -108q6 -11 2 -24t-16 -19t-24.5 -1.5t-18.5 15.5
q-13 26 -33 47t-44.5 36t-52.5 23t-57 8q-79 0 -140.5 -53t-61.5 -138v-65q0 -13 -9.5 -22.5t-22.5 -9.5z" />
    <glyph glyph-name="uniF64D" unicode="&#xf64d;" 
d="M832 -32h-640q-40 0 -68 28t-28 68v640q0 40 28 68t68 28h640q40 0 68 -28t28 -68v-640q0 -40 -28 -68t-68 -28zM192 736q-13 0 -22.5 -9.5t-9.5 -22.5v-640q0 -13 9.5 -22.5t22.5 -9.5h640q13 0 22.5 9.5t9.5 22.5v640q0 13 -9.5 22.5t-22.5 9.5h-640z" />
    <glyph glyph-name="uniF64E" unicode="&#xf64e;" 
d="M727 502.5q-9 9.5 -22.5 9.5t-22.5 -9l-234 -236l-103 106q-9 9 -22.5 9.5t-23 -9t-9.5 -22.5t9 -23l126 -129h1v-1q1 -1 7 -4q0 -1 1 -1.5t2 -1.5q3 -1 6 -1.5t6 -0.5q7 0 12 2l2 2q1 0 1.5 0.5t1.5 0.5q4 2 6 4v1l256 259q10 9 9.5 22t-9.5 22.5zM832 -32h-640
q-40 0 -68 28t-28 68v640q0 40 28 68t68 28h640q40 0 68 -28t28 -68v-640q0 -40 -28 -68t-68 -28zM192 736q-13 0 -22.5 -9.5t-9.5 -22.5v-640q0 -13 9.5 -22.5t22.5 -9.5h640q13 0 22.5 9.5t9.5 22.5v640q0 13 -9.5 22.5t-22.5 9.5h-640z" />
    <glyph glyph-name="uniF64F" unicode="&#xf64f;" 
d="M512 -62q-90 0 -171.5 33.5t-145 97t-97.5 145t-34 170.5q0 59 15 115.5t44.5 107t71.5 92.5q64 64 145.5 97.5t171.5 33.5t171.5 -33.5t145.5 -97.5q42 -42 71.5 -92.5t44.5 -107t15 -115.5q0 -89 -34 -170.5t-97.5 -145t-145 -97t-171.5 -33.5zM512 766q-77 0 -147 -29
t-125 -83q-27 -27 -48 -58.5t-35 -65.5t-21.5 -71t-7.5 -75q0 -77 29 -146.5t83.5 -123.5t124.5 -83t147 -29q51 0 99.5 13t92 38t80.5 61q54 54 83 124t29 146.5t-29 146t-83.5 123.5t-124.5 83t-147 29zM736 416h-192v192q0 13 -9.5 22.5t-22.5 9.5t-22.5 -9.5t-9.5 -22.5
v-192h-192q-13 0 -22.5 -9.5t-9.5 -22.5t9.5 -22.5t22.5 -9.5h192v-192q0 -13 9.5 -22.5t22.5 -9.5t22.5 9.5t9.5 22.5v192h192q13 0 22.5 9.5t9.5 22.5t-9.5 22.5t-22.5 9.5z" />
    <glyph glyph-name="uniF650" unicode="&#xf650;" 
d="M887 279l-353 350l-1 1h-1v1q-18 17 -39 4q-4 -2 -6 -5l-350 -353q-10 -9 -10 -22.5t10 -22.5q4 -5 10 -7t12.5 -2t12 2t10.5 7l328 331l332 -330q10 -9 23 -9q6 0 12 2.5t11 7.5q3 3 5 6.5t3 7.5t1 8t-1 8t-3.5 8t-5.5 7z" />
    <glyph glyph-name="uniF651" unicode="&#xf651;" 
d="M205 33h-11q-53 5 -93 55t-59 132.5t-11 179.5q12 150 74.5 246t143.5 89q55 -5 106 -76q8 -11 5.5 -24t-12.5 -21q-7 -5 -15.5 -6t-16.5 2.5t-13 10.5q-18 25 -32 37t-27 13q-47 4 -93 -75.5t-56 -201.5q-7 -80 7 -149t40.5 -107t57.5 -41q26 -2 51.5 17.5t46 58.5
t34.5 91q3 11 11.5 17.5t19.5 6.5h300q5 0 10 -1.5t9 -5t7 -7.5t5 -10q22 -80 58.5 -125.5t76.5 -40.5q22 2 42 24t34 60q35 91 22 215q-6 60 -22.5 113.5t-41.5 92.5q-22 35 -46 52.5t-46 15.5q-29 -3 -60 -49q-9 -14 -26 -14h-237q-13 0 -22.5 9.5t-9.5 22.5t9.5 22.5
t22.5 9.5h220q45 57 97 62q80 9 145.5 -87t80.5 -244q14 -139 -26 -244q-21 -56 -54.5 -88.5t-75.5 -36.5q-61 -6 -113.5 44.5t-82.5 145.5h-252q-42 -139 -127 -178q-27 -13 -55 -13zM320 448h-32v32q0 13 -9.5 22.5t-22.5 9.5t-22.5 -9.5t-9.5 -22.5v-32h-32
q-13 0 -22.5 -9.5t-9.5 -22.5t9.5 -22.5t22.5 -9.5h32v-32q0 -13 9.5 -22.5t22.5 -9.5t22.5 9.5t9.5 22.5v32h32q13 0 22.5 9.5t9.5 22.5t-9.5 22.5t-22.5 9.5zM736 512q0 -27 18.5 -45.5t45.5 -18.5t45.5 18.5t18.5 45.5t-18.5 45.5t-45.5 18.5t-45.5 -18.5t-18.5 -45.5z
M608 384q0 -27 18.5 -45.5t45.5 -18.5t45.5 18.5t18.5 45.5t-18.5 45.5t-45.5 18.5t-45.5 -18.5t-18.5 -45.5z" />
    <glyph glyph-name="uniF652" unicode="&#xf652;" 
d="M516 544q-3 0 -6 1l-356 64q-11 2 -18.5 10.5t-7.5 20.5v96q0 40 28 68t68 28h576q40 0 68 -28t28 -68v-96q0 -12 -7.5 -20.5t-18.5 -10.5l-348 -64q-2 -1 -3 -1h-3zM192 667l324 -58l316 58v69q0 13 -9.5 22.5t-22.5 9.5h-576q-13 0 -22.5 -9.5t-9.5 -22.5v-69zM800 -64
h-576q-40 0 -68 28t-28 68v480q0 13 9.5 22.5t22.5 9.5t22.5 -9.5t9.5 -22.5v-480q0 -13 9.5 -22.5t22.5 -9.5h576q13 0 22.5 9.5t9.5 22.5v480q0 13 9.5 22.5t22.5 9.5t22.5 -9.5t9.5 -22.5v-480q0 -40 -28 -68t-68 -28zM608 256q13 0 22.5 9.5t9.5 22.5t-9.5 22.5
t-22.5 9.5h-52l76 73q10 10 10 23t-9 22q-5 5 -10.5 7.5t-12 2.5t-12.5 -2t-10 -7l-77 -73l-73 73q-9 9 -22.5 9t-23 -9.5t-9.5 -22.5t10 -22l74 -74h-51q-14 0 -23 -9.5t-9 -22.5q0 -9 4 -16t11.5 -11.5t16.5 -4.5h64v-32h-64q-14 0 -23 -9.5t-9 -22.5q0 -9 4 -16
t11.5 -11.5t16.5 -4.5h64v-64q0 -6 1.5 -10.5t4.5 -8.5t7 -7t9 -4.5t10 -1.5q13 0 22.5 9t9.5 23v64h64q13 0 22.5 9.5t9.5 22.5t-9.5 22.5t-22.5 9.5h-64v32h64z" />
    <glyph glyph-name="uniF653" unicode="&#xf653;" 
d="M512 -62q-61 0 -118.5 16t-106.5 45t-90 70t-70 90t-45 106.5t-16 118.5q0 91 35.5 173.5t95 142t142 95t173.5 35.5q61 0 118.5 -16t106.5 -45t90 -70t70 -90t45 -106.5t16 -118.5q0 -91 -35.5 -173.5t-95 -142t-142 -95t-173.5 -35.5zM512 766q-62 0 -120.5 -19.5
t-105.5 -54.5t-82 -82t-54.5 -105.5t-19.5 -120.5q0 -104 51 -192t139 -139t192 -51t192 51t139 139t51 192t-51 192t-139 139t-192 51zM464 592q0 -20 14 -34t34 -14t34 14t14 34t-14 34t-34 14t-34 -14t-14 -34zM512 128q-13 0 -22.5 9.5t-9.5 22.5v288q0 13 9.5 22.5
t22.5 9.5t22.5 -9.5t9.5 -22.5v-288q0 -13 -9.5 -22.5t-22.5 -9.5z" />
    <glyph glyph-name="uniF654" unicode="&#xf654;" 
d="M752 53h-510q-12 0 -23 -5t-19 -14t-12.5 -21t-4.5 -26q0 -28 17 -47.5t42 -19.5h510q25 0 42 19.5t17 47.5t-17 47t-42 19zM987 650q-6 6 -13 11l-6 4l-8 4q-3 2 -7 3.5t-7.5 2.5t-7.5 2t-8.5 2t-8.5 1h-8q-29 0 -53.5 -14t-39 -39t-14.5 -54q0 -10 2 -20.5t6 -19.5
t9.5 -17.5t12 -15.5t14.5 -13q-15 -18 -32.5 -36t-45 -37.5t-42.5 -15.5q-14 4 -26 30t-18 56t-11 68t-6 56t-2 31q39 6 64.5 36t25.5 69q0 29 -14 54t-39 39t-54 14t-53.5 -14t-38.5 -39t-14 -54q0 -10 1.5 -19.5t5 -18.5t8.5 -17.5t11.5 -15.5t14 -12.5t15.5 -10.5
q-7 -17 -15.5 -36t-22 -46t-28.5 -44t-26 -17q-12 0 -26.5 18t-28.5 46t-22 46t-14 35q24 14 38.5 38.5t14.5 53.5q0 45 -31 76t-76 31q-21 0 -41 -8.5t-34 -22.5t-22.5 -34t-8.5 -42q0 -34 20 -62t52 -39q10 -4 20 -5q-1 -9 -2.5 -23.5t-7.5 -53.5t-13.5 -69t-19.5 -56
t-26 -29q-18 -5 -43.5 12t-40.5 33.5t-27 33.5q45 32 45 87q0 45 -31.5 76t-75.5 31q-13 0 -26 -3q-49 -5 -68 -53q-13 -24 -13 -51q0 -36 22 -64q12 -18 31 -28q25 -14 54 -14l16 1q4 -28 10.5 -65t20.5 -103t34 -109.5t42 -44.5q24 -1 548 -1q56 0 110 248q8 38 13 65l1 9
h11q14 0 27.5 3.5t25.5 10.5q33 11 43 46q5 11 8 22.5t3 23.5q0 46 -33 77z" />
    <glyph glyph-name="uniF655" unicode="&#xf655;" 
d="M512 190q-79 0 -135.5 56.5t-56.5 135.5v256q0 52 25.5 96.5t70 70t96.5 25.5q79 0 135.5 -56.5t56.5 -135.5v-256q0 -19 -4 -38t-11 -36t-17.5 -33t-23.5 -28.5t-28.5 -23t-32.5 -18t-36 -11.5t-39 -4zM512 766q-53 0 -90.5 -37.5t-37.5 -90.5v-256q0 -53 37.5 -90.5
t90.5 -37.5q21 0 40.5 6.5t35 18.5t27.5 27.5t18.5 35t6.5 40.5v256q0 11 -1.5 21t-5 19.5t-8 18.5t-10.5 16.5t-13 15t-14.5 13t-16.5 10t-18.5 8t-20 5t-20.5 1.5zM864 416v128q0 13 -9.5 22.5t-22.5 9.5t-22.5 -9.5t-9.5 -22.5v-128q0 -79 -38.5 -145.5t-105 -105.5
t-144.5 -39q-119 0 -203.5 85t-84.5 205v128q0 13 -9.5 22.5t-22.5 9.5t-22.5 -9.5t-9.5 -22.5v-128q0 -138 92.5 -239t227.5 -114v-63h-192q-13 0 -22.5 -9.5t-9.5 -22.5q0 -9 4.5 -16t11.5 -11.5t16 -4.5h448q13 0 22.5 9.5t9.5 22.5t-9.5 22.5t-22.5 9.5h-192v63
q135 13 227.5 114t92.5 239z" />
    <glyph glyph-name="uniF656" unicode="&#xf656;" 
d="M769 192q-54 0 -91 -38l-310 172q7 13 11 28t4 30q0 17 -6 36l305 189q37 -33 85 -33q53 0 90.5 37.5t37.5 90.5t-37.5 90.5t-90.5 37.5t-90.5 -37.5t-37.5 -90.5q0 -5 0.5 -10.5t1.5 -11t2.5 -10t3.5 -9.5l-302 -188q-38 37 -90 37q-53 0 -90.5 -37.5t-37.5 -90.5
t37.5 -90.5t90.5 -37.5q38 0 70 21l321 -179q-5 -18 -5 -34q0 -53 37.5 -90.5t90.5 -37.5t90.5 37.5t37.5 90.5t-37.5 90.5t-90.5 37.5zM767 768q27 0 45.5 -19t18.5 -45q0 -10 -3 -20t-9 -18t-14 -14t-17.5 -9t-20.5 -3q-26 0 -45 18.5t-19 45.5q0 7 2 14.5t5 13.5t7.5 12
t10 10t11.5 7.5t13.5 5t14.5 1.5zM191 384.5q0 26.5 19 45t45.5 18.5t45 -18.5t18.5 -45t-18.5 -45.5t-45 -19t-45.5 19t-19 45.5zM769 0q-27 0 -45.5 19t-18.5 45q0 13 5 25t13.5 20.5t20.5 13.5t25 5q26 0 45 -18.5t19 -45.5q0 -17 -8.5 -31.5t-23.5 -23.5t-32 -9z" />
    <glyph glyph-name="uniF657" unicode="&#xf657;" 
d="M608 478q-5 5 -9.5 9t-10.5 8q-5 5 -12 8t-15 3q-10 0 -19 -5.5t-14 -14t-5 -19.5q0 -5 1 -9.5t3 -8.5t5 -7v0l4 -4q3 -3 5 -4q7 -6 11 -10l3 -3q29 -31 24 -74.5t-36 -75.5l-172 -171q-12 -12 -26.5 -19.5t-30.5 -10t-31.5 0t-30.5 10t-27 19.5l-3 3q-30 30 -30 73
t30 73l76 76q5 4 8.5 9t5.5 11t2 13q0 17 -12.5 29.5t-29.5 12.5q-5 0 -9 -1t-8 -2.5t-7 -3.5l-1 -1q-5 -3 -8 -7l-79 -74q-56 -56 -56 -135t56 -135l3 -3q56 -56 135 -56t135 56l172 172q22 22 36 48.5t19 55t2 57t-16 55.5t-35 49zM856 730l-4 3q-55 56 -134.5 56
t-134.5 -56l-172 -171q-56 -57 -57.5 -128.5t53.5 -127.5l3 -3l10 -10q2 -2 4.5 -4t4.5 -3v0q9 -5 19 -5q7 0 14 3t12 8t7.5 11.5t2.5 14.5t-3 16q-3 6 -20 24l-4 3q-28 32 -22 69.5t38 69.5l172 172q19 19 46 26t53.5 0t46.5 -26l3 -4q15 -14 22.5 -33.5t7.5 -39t-7.5 -39
t-22.5 -34.5l-76 -75q-17 -13 -17 -34q0 -7 2 -13.5t6 -11.5t9 -9t11.5 -6t13.5 -2q12 0 22 6l1 1q6 4 10 9l80 73q36 37 49 86t0 98.5t-49 85.5z" />
    <glyph glyph-name="uniF658" unicode="&#xf658;" 
d="M190 425q11 0 18.5 7.5t7.5 18.5q0 7 -3.5 13t-9.5 9.5t-13 3.5h-1h-62h-4q-15 0 -25.5 -10.5t-10.5 -25.5v-434q0 -14 10 -24.5t25 -10.5h6h61v0h1q10 0 17 7.5t7 17.5t-7 17.5t-17 7.5h-51l2 403h49zM927 462q-10 15 -22.5 25.5t-27 15t-32.5 5.5h-3h-2l-206 1
q23 66 23 129q0 14 -1 28t-3 27.5t-5 27.5v-1q-4 18 -13.5 33t-23 25.5t-30 17t-34.5 6.5q-42 0 -69 -31t-27 -75v-3v-3v-4q-1 -53 -28 -98.5t-71.5 -74t-96.5 -34.5v-55l-1 -222v-230h520q7 0 13 1t11.5 3t10.5 4.5t12 7.5q25 16 38 42q1 1 1.5 2.5t1.5 3t1.5 3t0.5 2.5
l77 345q2 5 1 12q1 16 -2.5 32.5t-12.5 31.5zM894 409l-83 -368q-1 -1 -2 -3t-2 -3.5t-3 -2.5l-2 -4l-4 -2q-6 -4 -14 -5h-3h-1l-477 1v407q77 35 121 72t67 102q6 17 9 33q1 6 2 12.5t1.5 12t1 10.5t0.5 9v8v4v2q-3 25 12 39t33 14q18 -1 34 -19t16 -34v-1q1 -1 2 -5v-6
q1 -4 2 -10v-10q1 -6 1.5 -12.5t0.5 -12.5q0 -10 -0.5 -20t-1.5 -16t-1.5 -11t-1.5 -7v-3q-5 -23 -12.5 -44.5t-18.5 -42.5l-2 -8q-1 -4 -1 -8q0 -5 1.5 -8.5t4 -6t6 -4t8.5 -2t9 -1t9 -0.5h239h15q3 0 6 -0.5t6 -1.5t5 -3l6 -2q2 -2 4 -4.5t4 -5.5q8 -13 4 -29v0zM265 -28
v0v0z" />
    <glyph glyph-name="uniF659" unicode="&#xf659;" 
d="M928 608h-99q3 37 3 67v15v15l-2 16q0 8 -1 17q0 12 -9.5 20.5t-21.5 8.5h-571q-13 0 -22 -8.5t-10 -20.5q-3 -35 -3 -63q0 -30 3 -67h-99q-13 0 -22.5 -9.5t-9.5 -22.5q0 -99 53.5 -161.5t138.5 -62.5h3l2 1q39 -81 96 -131.5t123 -60.5v-1v-128h-128q-13 0 -22.5 -9.5
t-9.5 -22.5q0 -9 4.5 -16t11.5 -11.5t16 -4.5h320q13 0 22.5 9.5t9.5 22.5t-9.5 22.5t-22.5 9.5h-128v128v1q66 10 123 60.5t97 131.5l2 -1h2q85 0 138.5 62.5t53.5 161.5q0 13 -9.5 22.5t-22.5 9.5zM130 544h72q11 -67 31 -126q-41 8 -68.5 41.5t-34.5 84.5zM512 223
q-68 0 -127 61.5t-94 165.5t-35 225q0 14 1 28h510q1 -15 1 -28q0 -121 -35 -225t-94 -165.5t-127 -61.5zM791 418q20 58 31 126h72q-5 -34 -18.5 -60.5t-35.5 -43t-49 -22.5z" />
    <glyph glyph-name="uniF65A" unicode="&#xf65a;" 
d="M512 832q-185 0 -316.5 -131.5t-131.5 -316.5t131.5 -316.5t316.5 -131.5t316.5 131.5t131.5 316.5t-131.5 316.5t-316.5 131.5zM512 0q-159 0 -271.5 112.5t-112.5 271.5t112.5 271.5t271.5 112.5t271.5 -112.5t112.5 -271.5t-112.5 -271.5t-271.5 -112.5zM736 480
q0 66 -47 113t-113 47h-256q-13 0 -22.5 -9.5t-9.5 -22.5t9.5 -22.5t22.5 -9.5h256q40 0 68 -28t28 -68t-28 -68t-68 -28h-160v96q0 13 -9.5 22.5t-22.5 9.5t-22.5 -9.5t-9.5 -22.5v-288h-32q-13 0 -22.5 -9.5t-9.5 -22.5t9.5 -22.5t22.5 -9.5h128q13 0 22.5 9.5t9.5 22.5
t-9.5 22.5t-22.5 9.5h-32v128h79l118 -178l3 -3h1v-1l1 -1q4 -4 9 -6l2 -1q6 -2 11 -2h64q13 0 22.5 9.5t9.5 22.5t-9.5 22.5t-22.5 9.5h-47l-85 128h4q66 0 113 47t47 113z" />
    <glyph glyph-name="uniF65B" unicode="&#xf65b;" 
d="M937 703l-227 64q-7 2 -13.5 1t-12.5 -5q-3 -2 -5.5 -4.5t-4 -5t-3 -5.5t-1.5 -7q-10 -58 -54.5 -95.5t-103.5 -37.5q-14 0 -29 4t-26 9.5t-24 13.5q-12 7 -24.5 4t-19.5 -14.5t-4 -24t14 -19.5q18 -11 33 -18t36.5 -13t43.5 -6q73 0 131 42t81 110l172 -48v-225l-122 24
q-15 3 -26.5 -6.5t-11.5 -24.5v-352q0 -13 -9.5 -22.5t-22.5 -9.5h-384q-13 0 -22.5 9.5t-9.5 22.5v384q0 15 -12 24.5t-26 6.5l-122 -24v193l201 57q8 3 14 9t8 14t0 17q-4 13 -15.5 19t-24.5 3l-224 -64q-7 -2 -12 -6.5t-8 -11t-3 -13.5v-256q0 -15 11.5 -24.5t26.5 -6.5
l122 24v-345q0 -26 13 -48t35 -35t48 -13h384q40 0 68 28t28 68v313l122 -24q15 -3 26.5 6.5t11.5 24.5v288q-1 24 -23 31zM320 128q0 -13 9.5 -22.5t22.5 -9.5h320q13 0 22.5 9.5t9.5 22.5t-9.5 22.5t-22.5 9.5h-320q-13 0 -22.5 -9.5t-9.5 -22.5z" />
    <glyph glyph-name="uniF65C" unicode="&#xf65c;" 
d="M864 480q0 146 -103 249t-249 103t-249 -103t-103 -249q0 -137 92.5 -237.5t227.5 -112.5v-2v-64h-128q-13 0 -22.5 -9.5t-9.5 -22.5q0 -9 4.5 -16t11.5 -11.5t16 -4.5h128v-32q0 -13 9.5 -22.5t22.5 -9.5t22.5 9.5t9.5 22.5v32h128q13 0 22.5 9.5t9.5 22.5t-9.5 22.5
t-22.5 9.5h-128v64v2q135 12 227.5 112.5t92.5 237.5zM512 192q-119 0 -203.5 84.5t-84.5 203.5t84.5 203.5t203.5 84.5t203.5 -84.5t84.5 -203.5t-84.5 -203.5t-203.5 -84.5z" />
    <glyph glyph-name="uniF65D" unicode="&#xf65d;" 
d="M927 775q0 1 -1 1v3q-1 2 -4 6q0 1 -0.5 2.5t-1.5 1.5v1h-1q-1 1 -5 4l-5 3q-6 3 -13 3h-224q-13 0 -22.5 -9.5t-9.5 -22.5q0 -24 22 -31l10 -1h139l-152 -135q-94 71 -211 71q-95 0 -176.5 -47t-128.5 -128.5t-47 -176.5t47 -176.5t128.5 -128.5t176.5 -47t176.5 47
t128.5 128.5t47 176.5q0 137 -94 238l158 139v-121q0 -3 0.5 -6.5t1.5 -5.5l4 -6q1 -2 3.5 -4.5t4.5 -3.5l6 -4q2 -1 5.5 -1.5t6.5 -0.5q13 0 22.5 9.5t9.5 22.5v192q0 3 -1 7zM736 320q0 -119 -84.5 -203.5t-203.5 -84.5t-203.5 84.5t-84.5 203.5t84.5 203.5t203.5 84.5
t203.5 -84.5t84.5 -203.5z" />
    <glyph glyph-name="uniF65E" unicode="&#xf65e;" 
d="M963 450q0 104 -60 192.5t-163 140t-224.5 51.5t-225 -51.5t-163.5 -140t-60 -192.5q0 -88 45.5 -166.5t127.5 -134.5q7 -5 15.5 -5.5t16.5 3t12.5 11t5 16t-3 16t-10.5 12.5q-69 47 -107 111.5t-38 136.5q0 86 51.5 160t140 117t192.5 43t192.5 -43t140 -117t51.5 -160
q0 -52 -19.5 -101t-55 -88.5t-82.5 -69t-105.5 -45.5t-121.5 -16h-3l-2 -1q-12 2 -22 -4t-14 -17q-9 -25 -94 -73q17 58 3 79q-11 15 -30 15q-13 0 -22.5 -9t-9.5 -23q0 -8 4 -15q-5 -33 -33 -100q-8 -20 8 -35q3 -3 6.5 -5t7.5 -3t8 -1h4h2l4 2h3q144 65 188 126
q119 2 220.5 53.5t160.5 139.5t59 191zM343 291q6 -3 14 -3q20 0 29 17l71 140l92 -142q9 -15 26 -15h1q17 0 26 14l129 189q8 11 5.5 24t-13.5 20.5t-24 5t-21 -13.5l-101 -149l-96 148q-9 15 -28 15q-9 -1 -16 -5.5t-11 -12.5l-97 -188q-4 -9 -3.5 -17t5 -15.5t12.5 -11.5
z" />
    <glyph glyph-name="uniF65F" unicode="&#xf65f;" 
d="M480 544q-79 0 -135.5 -56.5t-56.5 -135.5t56.5 -135.5t135.5 -56.5t135.5 56.5t56.5 135.5t-56.5 135.5t-135.5 56.5zM480 224q-53 0 -90.5 37.5t-37.5 90.5t37.5 90.5t90.5 37.5t90.5 -37.5t37.5 -90.5t-37.5 -90.5t-90.5 -37.5zM576 64h-416q-13 0 -22.5 9.5
t-9.5 22.5v512q0 13 9.5 22.5t22.5 9.5h96q13 0 22.5 9.5t9.5 22.5t-9.5 22.5t-22.5 9.5h-96q-40 0 -68 -28t-28 -68v-512q0 -40 28 -68t68 -28h416q13 0 22.5 9.5t9.5 22.5t-9.5 22.5t-22.5 9.5zM512 640h320q13 0 22.5 -9.5t9.5 -22.5v-256q0 -13 9.5 -22.5t22.5 -9.5
t22.5 9.5t9.5 22.5v256q0 40 -28 68t-68 28h-320q-13 0 -22.5 -9.5t-9.5 -22.5t9.5 -22.5t22.5 -9.5zM736 560q0 -20 14 -34t34 -14t34 14t14 34t-14 34t-34 14t-34 -14t-14 -34zM320 736h128q13 0 22.5 9.5t9.5 22.5t-9.5 22.5t-22.5 9.5h-128q-13 0 -22.5 -9.5t-9.5 -22.5
t9.5 -22.5t22.5 -9.5zM960 128h-96v96q0 13 -9.5 22.5t-22.5 9.5t-22.5 -9.5t-9.5 -22.5v-96h-96q-13 0 -22.5 -9.5t-9.5 -22.5t9.5 -22.5t22.5 -9.5h96v-96q0 -13 9.5 -22.5t22.5 -9.5t22.5 9.5t9.5 22.5v96h96q13 0 22.5 9.5t9.5 22.5t-9.5 22.5t-22.5 9.5z" />
    <glyph glyph-name="uniF660" unicode="&#xf660;" 
d="M229 535h24q5 0 8.5 3.5t3.5 8.5v263q0 5 -3.5 8.5t-8.5 3.5h-24q-3 0 -5 -1t-3.5 -2.5t-2.5 -3.5t-1 -5v-263q0 -5 3.5 -8.5t8.5 -3.5zM361 535h72q2 0 4 1t4 2.5t3 3.5t1 5v263q0 3 -1 5t-3 3.5t-4 2.5t-4 1h-72q-5 0 -8.5 -3.5t-3.5 -8.5v-263q0 -5 3.5 -8.5t8.5 -3.5
zM768 535h24q5 0 8.5 3.5t3.5 8.5v263q0 5 -3.5 8.5t-8.5 3.5h-24q-2 0 -4.5 -1t-4 -2.5t-2.5 -3.5t-1 -5v-263q0 -5 3.5 -8.5t8.5 -3.5zM672 391v-216q0 -15 10.5 -25.5t25.5 -10.5t25.5 10.5t10.5 25.5v216q0 7 -3 13.5t-7.5 11.5t-11 8t-14.5 3q-15 0 -25.5 -10.5
t-10.5 -25.5zM876 535h60q5 0 8.5 3.5t3.5 8.5v263q0 5 -3.5 8.5t-8.5 3.5h-60q-2 0 -4 -0.5t-3.5 -1.5t-2.5 -2.5t-1.5 -3.5t-0.5 -4v-263q0 -4 1.5 -6.5t4.5 -4t6 -1.5zM696 547v263q0 2 -0.5 4t-1.5 3.5t-2.5 2.5t-3.5 1.5t-4 0.5h-72q-5 0 -8.5 -3.5t-3.5 -8.5v-263
q0 -5 3.5 -8.5t8.5 -3.5h72q11 1 12 12zM519 427h-437q-8 0 -14.5 -6.5t-6.5 -15.5v-436q0 -9 6.5 -15.5t14.5 -6.5h437q9 0 15 6.5t6 15.5v436q0 5 -1.5 9t-4.5 6.5t-7 4.5t-8 2zM469 19h-336v336h336v-336zM924 235q-7 0 -14 -3t-11.5 -7.5t-7.5 -11.5t-3 -14v-180h-180
q-15 0 -25.5 -10.5t-10.5 -25t10.5 -25.5t25.5 -11h216q15 0 25.5 11t10.5 25v216q0 15 -10.5 25.5t-25.5 10.5zM85 535h60q5 0 8.5 3.5t3.5 8.5v263q0 3 -1 5t-2.5 3.5t-4 2.5t-4.5 1h-60q-2 0 -4 -0.5t-3 -1.5l-2 -2q-2 -2 -2.5 -4t-0.5 -4v-263q0 -4 1.5 -6.5t4.5 -4
t6 -1.5zM924 427q-15 0 -25.5 -10.5t-10.5 -25.5v-48q0 -15 10.5 -25.5t25.5 -10.5t25.5 10.5t10.5 25.5v48q0 15 -10.5 25.5t-25.5 10.5zM253 115h96q5 0 9 2t7.5 5t5.5 7.5t2 9.5v96q0 7 -3.5 12.5t-9 8.5t-11.5 3h-96q-10 0 -17 -7t-7 -17v-96q0 -6 3 -11.5t8.5 -9
t12.5 -3.5zM522 535q4 0 7.5 1t6 2.5t3.5 3.5t1 5v263q0 5 -5 8.5t-13 3.5q-4 0 -8.5 -1.5t-6.5 -4t-2 -6.5v-263q0 -5 5 -8.5t12 -3.5z" />
    <glyph glyph-name="uniF661" unicode="&#xf661;" 
d="M513 832q-91 0 -174 -35.5t-143 -95.5t-95.5 -143t-35.5 -174t35.5 -174t95.5 -143t143 -95.5t173.5 -35.5t173.5 35.5t143 95.5t95.5 143t35.5 174q0 61 -16 119t-45 107t-70 90.5t-90.5 70.5t-107.5 45t-118 16zM513 -10q-80 0 -153 31.5t-126 84t-84 125.5t-31 153
t31 153t84 125.5t126 84t152.5 31.5t152.5 -31.5t126 -84t84 -125.5t31 -153q0 -107 -52.5 -197.5t-143.5 -143.5t-197 -53zM632 387q6 0 11.5 2t9.5 6.5t6.5 10t2.5 11.5q0 12 -8.5 21t-21.5 9h-64l61 82q6 6 8 13.5t0 15.5t-8 14q-9 8 -21.5 8t-21.5 -8l-75 -97l-74 97
q-9 8 -21.5 8t-21.5 -8q-6 -6 -8 -14t0 -15.5t8 -13.5l61 -82h-64q-6 0 -11.5 -2.5t-9.5 -6.5t-6.5 -9.5t-2.5 -11.5q0 -13 8.5 -21.5t21.5 -8.5h90v-61h-90q-13 0 -21.5 -8.5t-8.5 -21t8.5 -21.5t21.5 -9h90v-80q0 -8 4 -15t11 -11t15 -4q13 0 22 8.5t9 21.5v80h90
q8 0 15 4t11 11t4 15t-4 15t-11 11t-15 4h-90v61h90z" />
    <glyph glyph-name="uniF662" unicode="&#xf662;" 
d="M855 654h-139v62q0 35 -25.5 61t-59.5 26h-236q-10 0 -19.5 -2.5t-18 -7t-16 -10.5t-13.5 -13.5t-10.5 -16t-7 -18.5t-2.5 -19v-62h-138q-7 0 -12.5 -3.5t-9 -9t-3.5 -12.5v-538q0 -53 35.5 -90t84.5 -37h495q50 0 85 37t35 90v538q0 10 -7.5 17.5t-17.5 7.5zM360 716
q0 13 11 24.5t24 11.5h236q13 0 23.5 -11.5t10.5 -24.5v-62h-305v62zM308 603v-82q-12 -12 -12 -29q0 -16 12 -27.5t28 -11.5q11 0 20 5t14.5 14.5t5.5 19.5q0 5 -1.5 10t-3.5 9t-5 7.5t-6 5.5v79h305v-79q-16 -12 -16 -32q0 -10 5.5 -19.5t14.5 -14.5t20 -5q16 0 28 11.5
t12 27.5q0 17 -13 29v82h113v-458h-633v458h112zM760 15h-495q-28 0 -48.5 22t-20.5 54v10h633v-10q0 -21 -9 -38.5t-25 -27.5t-35 -10z" />
    <glyph glyph-name="uniF663" unicode="&#xf663;" 
d="M781 644q-39 30 -83.5 51t-92.5 31q-4 22 -17 40t-33 28.5t-43 10.5q-17 0 -33 -6t-28 -16.5t-20.5 -25t-11.5 -31.5q-99 -21 -176 -82q-36 -28 -61.5 -60.5t-39.5 -67.5t-14 -67q0 -13 2 -25t6 -22.5t9.5 -20t12.5 -17.5t16 -15l44 -361q2 -10 9 -16t17 -6h536
q6 0 11.5 2.5t9 8t4.5 11.5l45 361q45 38 45 100q0 24 -7.5 50t-22.5 51t-36.5 49t-47.5 45zM476 735q13 19 36 19q7 0 14 -2.5t12 -6.5t9 -10q3 -3 4.5 -7t2.5 -8.5t1 -9.5q0 -7 -2.5 -13.5t-6.5 -12.5q-6 -8 -15 -12.5t-19 -4.5t-19 4.5t-15 12.5q-3 4 -5 8t-3.5 9t-1.5 9
q0 14 8 25zM266 16l-37 298q5 -1 11 -1q4 1 6 1l22 9l27 -307h-29zM336 16l-26 307l30 -9q3 -1 7 -1t8 2l25 8l13 -307h-57zM482 16h-48l-13 309l16 -11q8 -2 16 1l29 4v-303zM589 16h-61v309l28 -10q7 -3 15 0l32 9zM631 16l13 309l40 -11q8 -2 16 1l14 6l-27 -305h-56z
M757 16h-28l27 306l16 -7q7 -3 16 0h1h1l5 2zM780 367l-34 14q-10 3 -19 0l-38 -15l-58 16q-7 1 -14 -1l-53 -15l-44 15q-9 2 -17 0l-40 -15l-57 15q-7 3 -15 0l-45 -16l-51 16q-8 2 -16 0l-36 -14q-64 28 -64 82q0 67 71.5 134.5t173.5 91.5q11 -26 35 -42.5t53 -16.5
q19 0 36.5 7.5t30.5 21t20 30.5q68 -16 125 -53t89 -83t32 -90q0 -55 -65 -82zM715 576l-47 24q-8 4 -17.5 1t-13.5 -12t-1 -18t11 -13l47 -24q3 -1 5.5 -1.5t5.5 -0.5q14 1 21 13q4 8 1 17.5t-12 13.5zM497 554l-41 -51q-4 -5 -5 -11t1.5 -12t7.5 -10q6 -5 14 -5q12 0 19 9
l40 51q6 8 5 17.5t-8.5 15.5t-17 5t-15.5 -9zM337 601l-44 -28q-9 -5 -11 -14.5t3 -17.5q7 -11 20 -11q7 0 12 3l45 28q4 2 6.5 6t3.5 8.5t0.5 9t-3.5 8.5q-3 5 -8.5 8t-11.5 3t-12 -3z" />
    <glyph glyph-name="uniF664" unicode="&#xf664;" 
d="M899 633h-181l6 12q3 6 5 12.5t3.5 12.5t2 12.5t0.5 13.5q0 46 -30 79.5t-83 33.5q-26 0 -48 -8.5t-39 -26.5t-29 -44q-12 26 -29 44q-18 18 -39.5 26.5t-47.5 8.5q-20 0 -38 -5.5t-28 -13t-19 -17.5q-7 -7 -12 -16t-8.5 -19t-5.5 -20.5t-2 -21.5q0 -34 17 -63h-169
q-11 0 -19 -7.5t-8 -19.5v-245q0 -8 4 -14t10 -9.5t13 -3.5h37v-346q0 -12 8 -19.5t19 -7.5h646q11 0 19 7.5t8 19.5v346h37q11 0 19 8t8 19v245q0 12 -8 19.5t-19 7.5zM574 736q9 10 21 14.5t27 4.5t27 -5t19 -14t10 -19t3 -21q0 -6 -1 -12t-3 -12t-5 -11t-6 -9
q-16 -18 -44 -19l-86 1q2 18 5.5 35t12 36t20.5 31zM331 696q0 25 15 42t44 17t48 -19q30 -31 37 -103h-85q-31 0 -45 20t-14 43zM152 579h259v-191h-259v191zM216 334h195v-319h-195v319zM465 15v564h94v-564h-94zM808 15h-195v319h195v-319zM872 388h-259v191h259v-191z
" />
    <glyph glyph-name="uniF665" unicode="&#xf665;" 
d="M218 97q9 -10 22 -10q1 0 2 0.5t2 0.5q7 1 13 5t9 10l144 280l129 -126q10 -9 23 -8q3 0 6 1l4 2q3 1 5 2.5t3.5 3.5t3.5 4l168 258l28 -21q6 -4 12.5 -7t13 -4.5t12.5 -1.5q21 0 36 13t20 34l50 206q7 30 -8 48q-6 9 -16.5 12.5t-23 1.5t-25.5 -9l-177 -110
q-6 -4 -10.5 -8t-8 -9t-6.5 -10t-4 -10.5t-2 -11.5q0 -10 3 -19.5t9 -17.5t15 -15l35 -26l-151 -231l-131 129q-11 10 -25.5 8t-21.5 -16l-142 -276l-79 90v353q0 27 19 46.5t46 19.5h388q12 0 20.5 8.5t8.5 20.5q0 6 -2 11.5t-6 9.5t-9.5 6t-11.5 2h-388q-51 0 -87.5 -36.5
t-36.5 -87.5v-521q0 -51 36.5 -87.5t87.5 -36.5h533q17 0 33 4.5t29.5 12.5t25 19.5t19.5 25t12.5 29.5t4.5 33v333q0 12 -8.5 21t-20.5 9q-8 0 -15 -4t-11 -11t-4 -15v-333q0 -13 -5 -25.5t-14 -21t-21 -13.5t-25 -5h-533q-18 0 -33 8.5t-23.5 23.5t-8.5 33v79zM703 630
l2 2l156 96l-44 -181l-1 -1l-1 1l-110 82z" />
    <glyph glyph-name="uniF666" unicode="&#xf666;" 
d="M791 690v38q0 10 -6.5 16.5t-16.5 6.5h-506q-9 0 -16 -6.5t-7 -16.5v-38h-4q-18 0 -34 -5.5t-29 -15.5t-23 -23t-15.5 -29.5t-5.5 -33.5v-461q0 -29 14.5 -53.5t39 -39t53.5 -14.5h553q44 0 75.5 31.5t31.5 75.5v461q0 29 -14 53t-37.5 38.5t-52.5 15.5zM849 583v-139
h-58v200q24 -2 41 -19.5t17 -41.5zM285 705h460v-261h-460v261zM235 644h4v-200h-61h-4v139q0 25 18 43t43 18zM788 61h-553q-25 0 -43 18t-18 43v277q2 -1 4 -1h671v-276q0 -25 -18 -43t-43 -18zM566 589q2 0 4 0.5t4 2t3 3t2 4t1 4.5q0 4 -2 7t-5 5t-7 2h-30l28 29
q3 3 4 6.5t0 7t-4 6.5q-4 4 -10 4t-10 -4l-35 -35l-36 35q-10 10 -20 0t0 -20l29 -29h-30q-4 0 -7.5 -2t-5.5 -5t-2 -7q0 -6 4.5 -10t10.5 -4h42v-29h-42q-6 0 -10.5 -4t-4.5 -10t4.5 -10t10.5 -4h42v-38q0 -6 4.5 -10.5t10.5 -4.5q2 0 5 1.5t5 3.5t3 4.5t1 5.5v38h43
q2 0 4 0.5t4 2t3 3t2 4t1 4.5t-1 4.5t-2 4t-3 3t-4 2t-4 0.5h-43v29h43z" />
    <glyph glyph-name="uniF667" unicode="&#xf667;" 
d="M694 624q33 43 33 85q0 8 -1.5 16t-4.5 18t-8.5 18.5t-14 17.5t-20 16.5t-28 14.5t-36 11.5t-46 7.5t-56.5 3q-28 0 -54 -2.5t-56.5 -10.5t-52.5 -20.5t-37 -35.5t-15 -54q0 -42 33 -85q-50 -33 -93.5 -80.5t-73 -97.5t-46 -99.5t-16.5 -88.5q0 -73 29 -133t82.5 -101.5
t130 -64.5t169.5 -23q187 0 299 87.5t112 234.5q0 82 -65.5 191.5t-163.5 174.5zM511.5 -2q-99.5 0 -176.5 27.5t-125 87t-48 145.5q0 30 13.5 70.5t39.5 83.5t59.5 82t77.5 70.5t90 46.5q-36 17 -60 45.5t-24 52.5q0 32 42.5 46.5t111.5 14.5q33 0 60 -3t48.5 -10.5
t33 -19.5t11.5 -28q0 -24 -23.5 -52.5t-59.5 -45.5q57 -18 110.5 -62t89.5 -95.5t58 -104.5t22 -91q0 -86 -48 -145.5t-125.5 -87t-177 -27.5zM609 321q6 0 11.5 2.5t10 6.5t6.5 10t2 12q0 8 -4 15t-11 11.5t-15 4.5h-42l47 47q3 3 5 7.5t3 9t0 9.5t-3 9t-5 8q-9 9 -22 9
t-22 -9l-58 -58l-58 58q-9 9 -21.5 9t-21.5 -9t-9 -21.5t9 -21.5l47 -47h-43q-13 0 -22 -9t-9 -22t9 -22t22 -9h66v-33h-69q-8 0 -15 -4t-11.5 -11t-4.5 -16q0 -12 9 -21t22 -9h69v-59q0 -5 1.5 -9.5t4.5 -8.5t6.5 -6.5t8.5 -4.5t10 -2q8 0 15 4.5t11 11.5t4 15v59h64
q13 0 22 9t9 21q0 3 -1 6l-2 6q-1 3 -2.5 5.5t-3.5 4.5t-4.5 3.5t-5.5 3t-6 2t-6 0.5h-64v33h67z" />
    <glyph glyph-name="uniF668" unicode="&#xf668;" 
d="M838 803h-648q-20 0 -35.5 -14t-15.5 -42l-1 -726q0 -58 45 -58q11 0 22 3t21 8l235 105q6 3 15 6v41q-15 -3 -28 -9l-230 -108q-3 -2 -4.5 -2.5t-5 -2t-5.5 -1.5t-5.5 -0.5t-5.5 0.5q-17 5 -17 29v701q0 12 7.5 22.5t18.5 10.5h622q14 0 20.5 -9t6.5 -22v-707
q0 -11 -2 -16.5t-3.5 -6t-5.5 -1.5q-3 -1 -16 3l-259 111q-2 1 -4 1.5t-4 1.5t-3.5 1.5t-3.5 0.5v-40q3 -2 4 -2l255 -113q10 -4 25 -4q22 0 37.5 16t15.5 48v726q0 19 -15.5 34t-32.5 15zM302 476l139 23l61 130l64 -129l140 -19l-100 -102l25 -143l-125 66l-124 -69
l22 143zM506 260l165 -76l-26 182l130 137l-185 31l-88 167l-85 -169l-177 -35l125 -134l-21 -185z" />
    <glyph glyph-name="uniF669" unicode="&#xf669;" 
d="M823 375q-10 9 -23 9t-23 -9l-233 -234v563q0 13 -9.5 22.5t-22.5 9.5t-22.5 -9.5t-9.5 -22.5v-563l-233 234l-6 4q-3 2 -6.5 3t-7 1.5t-7 0t-7 -1.5t-6.5 -3l-6 -4q-6 -7 -8 -15t0 -16t8 -15l288 -288q5 -4 11 -6.5t12 -2.5q7 0 12 2q6 3 11 7l288 288q6 7 8 15t0 16
t-8 15z" />
    <glyph glyph-name="uniF66A" unicode="&#xf66a;" 
d="M192 448q0 -27 18.5 -45.5t45.5 -18.5t45.5 18.5t18.5 45.5t-18.5 45.5t-45.5 18.5t-45.5 -18.5t-18.5 -45.5zM715 640h-534q-13 0 -26.5 -3t-25 -9t-21.5 -14t-18 -18t-14 -21.5t-9 -25t-3 -26.5v-406q0 -48 34.5 -82.5t82.5 -34.5h534q48 0 82.5 34.5t34.5 82.5v406
q0 48 -34.5 82.5t-82.5 34.5zM768 117q0 -22 -15.5 -37.5t-37.5 -15.5h-534q-22 0 -37.5 15.5t-15.5 37.5v406q0 14 7 26.5t19.5 19.5t26.5 7h534q22 0 37.5 -15.5t15.5 -37.5v-406zM843 768h-587q-13 0 -22.5 -9.5t-9.5 -22.5t9.5 -22.5t22.5 -9.5h587q14 0 26.5 -7
t19.5 -19.5t7 -26.5v-395q0 -13 9.5 -22.5t22.5 -9.5t22.5 9.5t9.5 22.5v395q0 48 -34.5 82.5t-82.5 34.5zM673 447q-31 0 -55.5 -5t-40 -15.5t-26 -20.5t-17 -26t-9 -25t-5.5 -24q-6 -26 -10.5 -33.5t-18.5 -9.5q-15 -3 -27.5 -1.5t-17 3.5t-14.5 7q-36 22 -78 23
q-35 1 -65 -15t-46 -35.5t-29 -46.5t-16 -38t-5 -19q-3 -13 4 -24t20 -14l7 -1q11 0 20 7t11 18q1 4 3 11.5t10 25.5t18 31.5t27.5 24.5t37.5 11h2q16 0 25 -3t21 -11q11 -6 19 -9.5t21.5 -7.5t27 -3t34.5 3q16 3 28 8t20.5 13.5t14 16t9.5 19.5t5.5 18.5t3.5 17.5l4 20
q2 6 6 15t10 13t15 9t23 6.5t33 1.5q13 0 22.5 9.5t9.5 23t-9.5 22.5t-22.5 9z" />
    <glyph glyph-name="uniF66B" unicode="&#xf66b;" 
d="M805 747q-39 15 -76.5 19t-65.5 -0.5t-54.5 -16t-43 -23t-31 -25.5t-18.5 -19.5t-7 -8.5q-5 6 -13.5 16t-36.5 31.5t-59.5 34t-82.5 13t-104 -20.5q-42 -16 -75.5 -48.5t-52 -79t-22 -101.5t19.5 -119t68 -128t128 -132t195 -129q5 -3 10.5 -5t10 -3t8 -2t6.5 -1v0v0
q16 1 35 11q112 61 195 129t128 132t67.5 128t19.5 119t-22 101.5t-52 79t-75 48.5zM539 80q-9 -5 -16.5 -7t-13.5 -2q-4 0 -8 1t-10 3t-12 5q-99 57 -171.5 117t-111 114.5t-57 107t-14 96t22.5 79.5t47.5 60.5t65.5 35.5q46 12 78.5 6.5t60.5 -22.5t46 -35.5t35 -33
t28 -14.5v0v0q11 0 28 14.5t35 33t46 35.5t60.5 22.5t77.5 -6.5q80 -24 117 -98q53 -105 -19 -233q-85 -147 -315 -279z" />
    <glyph glyph-name="uniF66C" unicode="&#xf66c;" 
d="M805 747q-39 15 -76.5 19t-65.5 -0.5t-54.5 -16t-43 -23t-31 -25.5t-18.5 -19.5t-7 -8.5q-5 6 -13.5 16t-36.5 31.5t-59.5 34t-82.5 13t-104 -20.5q-42 -16 -75.5 -48.5t-52 -79t-22 -101.5t19.5 -119t68 -128t128 -132t195 -129q5 -3 10.5 -5t10 -3t8 -2t6.5 -1v0v0
q16 1 35 11q112 61 195 129t128 132t67.5 128t19.5 119t-22 101.5t-52 79t-75 48.5z" />
    <glyph glyph-name="uniF66D" unicode="&#xf66d;" 
d="M637 462q7 11 3.5 24t-15 19.5t-24 3.5t-19.5 -15q-19 -33 -67.5 -56t-97 -23t-97 23.5t-67.5 56.5q-7 11 -19.5 14.5t-24 -3t-15 -19.5t3.5 -24q15 -26 41 -48t56.5 -35.5t62 -21t60 -7.5t60 7.5t61.5 21t56.5 35t41.5 47.5zM704 192q40 0 68 28t28 68v416q0 40 -28 68
t-68 28h-576q-40 0 -68 -28t-28 -68v-416q0 -40 28 -68t68 -28v-160q0 -22 20 -30q6 -2 12 -2q14 0 23 10l171 182h350zM193 220v2v2q0 13 -9 22.5t-23 9.5h-33q-13 0 -22.5 9.5t-9.5 22.5v416q0 13 9.5 22.5t22.5 9.5h576q13 0 22.5 -9.5t9.5 -22.5v-416q0 -13 -9.5 -22.5
t-22.5 -9.5h-364h-1q-1 0 -3 -0.5t-3 -0.5t-3 -1h-1q-1 0 -2 -1q-2 -1 -7 -5h-1l-2 -2h-1l-124 -133zM896 608q-7 0 -12.5 -2.5t-10 -7t-7 -10.5t-2.5 -12q0 -9 4.5 -16.5t12 -11.5t15.5 -4q6 0 10.5 -2t8.5 -5t7 -6.5t4.5 -8.5t1.5 -10v-352q0 -14 -9 -23t-23 -9h-32
q-13 0 -22.5 -9.5t-9.5 -22.5v-1v0v-50l-73 73q-9 10 -23 10h-160q-13 0 -22.5 -9.5t-9.5 -22.5q0 -9 4.5 -16t11.5 -11.5t16 -4.5h147l118 -119q9 -10 23 -10l12 3q9 4 14 12t6 17v97q20 0 37.5 7.5t30.5 20.5t20.5 30.5t7.5 37.5v352q0 53 -45 81q-24 14 -51 15z" />
    <glyph glyph-name="uniF66E" unicode="&#xf66e;" 
d="M257 319h512q14 0 23 9.5t9 22.5q0 4 -0.5 7.5t-2.5 6.5l-4 6q-2 3 -4.5 5t-6 3.5t-7 2.5t-7.5 1h-512q-13 0 -22.5 -9.5t-9.5 -22.5t9.5 -22.5t22.5 -9.5zM257 127h512q7 0 13 2.5t10 7t6.5 10t2.5 12.5q0 13 -9 22.5t-23 9.5h-512q-9 0 -16.5 -4.5t-11.5 -11.5t-4 -16
q0 -13 9.5 -22.5t22.5 -9.5zM448 704h160q13 0 22.5 9.5t9.5 22.5t-9.5 22.5t-22.5 9.5h-160q-13 0 -22.5 -9.5t-9.5 -22.5t9.5 -22.5t22.5 -9.5zM847 768h-47q-13 0 -22.5 -9.5t-9.5 -22.5t9.5 -22.5t22.5 -9.5h47q5 0 11 -9t6 -23v-96h-704v96q0 9 4 16t11.5 11.5
t15.5 4.5h65q13 0 22.5 9.5t9.5 22.5t-9.5 22.5t-22.5 9.5h-65q-39 0 -67 -28t-28 -68v-640q0 -40 28 -68t68 -28h640q40 0 68 28t28 68v640q0 40 -24 68t-57 28zM864 32q0 -13 -9.5 -22.5t-22.5 -9.5h-640q-13 0 -22.5 9.5t-9.5 22.5v480h704v-480zM704 672q13 0 22.5 9.5
t9.5 22.5v96q0 13 -9.5 22.5t-22.5 9.5t-22.5 -9.5t-9.5 -22.5v-96q0 -13 9.5 -22.5t22.5 -9.5zM352 672q13 0 22.5 9.5t9.5 22.5v96q0 13 -9.5 22.5t-22.5 9.5t-22.5 -9.5t-9.5 -22.5v-96q0 -13 9.5 -22.5t22.5 -9.5z" />
    <glyph glyph-name="uniF66F" unicode="&#xf66f;" 
d="M786 288q-52 0 -95 -28.5t-64 -73.5l-72 144l241 455q3 6 3.5 12.5t-1 12t-5.5 10.5t-10 8q-8 4 -16.5 4t-15.5 -4.5t-11 -12.5l-220 -414l-203 413q-6 12 -18.5 16.5t-24.5 -1.5t-16.5 -18.5t1.5 -24.5l225 -455l-81 -151q-13 31 -37 55.5t-56.5 38.5t-68.5 14
q-48 0 -88.5 -23.5t-64 -64.5t-23.5 -88q0 -73 51.5 -124.5t124.5 -51.5q53 0 96.5 28.5t64.5 75.5l116 221l101 -205q18 -53 64 -86.5t103 -33.5q48 0 88.5 23.5t64 64t23.5 88.5q0 72 -51.5 124t-124.5 52zM241 0q-46 0 -79 32.5t-33 79t33 79.5t79 33t79 -33t33 -79
q0 -23 -9 -44t-24 -36t-35.5 -23.5t-43.5 -8.5zM786 0q-57 0 -91 47l-15 31q-2 5 -3 10.5t-2 11.5t-1 12q0 11 2.5 22t6.5 21t10 19t13.5 16.5t17 14t19 10.5t21 6.5t22.5 2.5q46 0 79 -33t33 -79.5t-33 -79t-79 -32.5z" />
    <glyph glyph-name="uniF670" unicode="&#xf670;" 
d="M314 273q8 0 13.5 5.5t5.5 13.5v255h83v-255q0 -8 5.5 -13.5t14.5 -5.5q4 0 7.5 1.5t6 4t4 6t1.5 7.5v271v1v1v1v1q0 8 -5.5 14t-13.5 6h-122q-9 0 -14.5 -6t-5.5 -14v-1v-1v-1v-1v-271q0 -4 1.5 -7.5t4 -6t6.5 -4t8 -1.5zM390 299q-1 0 -2 1q2 9 3.5 18.5t2 13.5t0.5 6
v171q0 8 -5.5 13.5t-13.5 5.5q-4 0 -8 -1.5t-6.5 -4t-4 -6t-1.5 -7.5v-169q0 -4 -1.5 -12t-6.5 -27t-12 -36.5t-21 -37.5t-31 -33q-4 -2 -6 -5.5t-2.5 -7t0.5 -7.5t3 -7q6 -8 16 -8q6 0 12 3q44 32 68 94l77 -91q6 -6 16 -6q7 0 12 4q7 6 7.5 14t-4.5 14zM505 510h216
q8 0 14 6t6 14t-6 14t-14 6h-80q0 1 -0.5 2.5t-1.5 2.5l-21 42q-4 7 -11.5 9.5t-15 -1.5t-10 -11.5t1.5 -15.5l15 -28h-93q-4 0 -8 -2t-6.5 -4.5t-4 -6t-1.5 -7.5q0 -8 6 -14t14 -6zM738 410h-67l36 58q4 7 2 15t-9 12.5t-15 2.5t-12 -9l-42 -68q-1 -2 -1.5 -5t-0.5 -6h-144
q-3 0 -5.5 -0.5t-4.5 -2t-4 -3.5t-3 -4t-2 -4.5t-1 -5.5q0 -4 1.5 -7.5t4.5 -6t6.5 -4t7.5 -1.5h253q8 0 13.5 5.5t5.5 14t-5.5 14t-13.5 5.5zM529 495q-5 -3 -7.5 -7.5t-2 -9.5t3.5 -10l23 -36q3 -5 7.5 -7.5t9.5 -2.5q2 0 5 1t5 3q7 4 9 12t-3 15l-23 36q-4 7 -12 9
t-15 -3zM701 325h-183q-8 0 -14 -6t-6 -14v-123q0 -4 1.5 -8t4.5 -6.5t6.5 -4t7.5 -1.5h183q8 0 14 5.5t6 14.5v123q0 3 -0.5 5.5t-2 4.5t-3.5 4t-4 3.5t-4.5 2t-5.5 0.5zM681 201h-143v84h143v-84zM512 816q-88 0 -168.5 -34t-138.5 -92t-92 -138.5t-34 -168.5
q0 -59 15.5 -115t43.5 -103.5t68 -87.5t87.5 -68t103.5 -43.5t115 -15.5q88 0 168.5 34t138.5 92t92 138.5t34 168.5t-34 168.5t-92 138.5t-138.5 92t-168.5 34zM512 5q-102 0 -189 51t-138 138t-51 189t51 189t138 138t189 51t189 -51t138 -138t51 -189q0 -149 -102 -258
q-101 -107 -247 -119q-15 -1 -29 -1z" />
    <glyph glyph-name="uniF671" unicode="&#xf671;" 
d="M511 815q-88 0 -168.5 -34.5t-138.5 -92.5t-92.5 -138.5t-34.5 -168.5t34.5 -168.5t92.5 -138.5t138.5 -92.5t168.5 -34.5t168.5 34.5t138.5 92.5t92.5 138.5t34.5 168.5q0 44 -9 87t-25.5 81.5t-40 73.5t-53 64.5t-64.5 53t-73.5 40t-81.5 25.5t-87 9zM511 3
q-103 0 -190 50.5t-137.5 137.5t-50.5 190q0 77 30 147t80.5 120.5t120.5 80.5t147 30q102 0 189.5 -50.5t138 -138t50.5 -189.5q0 -51 -13.5 -100t-38 -90.5t-59.5 -76.5t-76.5 -59.5t-90.5 -38t-100 -13.5zM390 541q3 -5 8.5 -8.5t11.5 -3.5t11 2q6 3 9.5 8.5t3.5 11.5
t-3 12l-27 52q-4 8 -13.5 11t-17.5 -1q-6 -3 -9.5 -8.5t-3.5 -11.5t3 -12zM521 402q-5 3 -11 4t-12 -1.5t-10 -7.5l-38 -49q-10 6 -16 10v32v2q-1 1 -1 2l16 20q8 10 13.5 18t10 16t7.5 13t5.5 10t3 7t1.5 3q3 9 -0.5 17.5t-12.5 12.5q-3 1 -5 1h-5h-1h-152q-9 0 -16 -6.5
t-7 -16.5t7 -16.5t16 -6.5h114q-49 -77 -143 -147q-8 -6 -9.5 -15.5t4.5 -16.5q7 -10 19 -10q1 0 3 1h4q2 1 3.5 2t3.5 2q21 15 39.5 31t34.5 32v-187q0 -10 7 -17t16.5 -7t16.5 7t7 17v145q38 -25 55 -45q4 -4 8.5 -6t9.5 -2q9 0 15 5q4 4 6 8t2.5 8.5t-1 9t-4.5 7.5
q-13 15 -36 33l37 48q5 8 4 17.5t-9 15.5zM588 627q-10 0 -16.5 -6.5t-6.5 -16.5v-446q0 -7 3 -12t8.5 -8.5t11.5 -3.5q10 0 16.5 7t6.5 17v446q0 10 -6.5 16.5t-16.5 6.5zM660 457q-7 7 -16.5 7t-16.5 -7t-7 -16.5t7 -16.5l80 -79q7 -7 16 -7q3 0 6 0.5t6 2t5 4.5q7 6 7 16
t-7 17z" />
    <glyph glyph-name="uniF672" unicode="&#xf672;" 
d="M323 109q-40 0 -68 28.5t-28 67.5q0 10 2 19.5t5.5 18t9 16.5t12 14.5t14 11.5t16 8.5t18 5.5t19.5 2q20 0 37.5 -7.5t30.5 -20.5t20.5 -30.5t7.5 -37.5q0 -39 -28 -67.5t-68 -28.5zM323 237q-9 0 -16 -4t-11.5 -11.5t-4.5 -16t4.5 -16t11.5 -12t16 -4.5t16 4.5t11.5 12
t4.5 16t-4.5 16t-11.5 11.5t-16 4zM416 -31h-132q-124 0 -161 56q-26 41 -26 136v141q0 37 6.5 60.5t20 42t44.5 48.5l327 320q27 26 71 26t71 -26l263 -256q29 -28 29 -71t-29 -71l-290 -295q-32 -31 -48 -45.5t-41.5 -33t-50.5 -25.5t-54 -7zM566 737q-16 0 -26 -10
l-327 -320q-37 -36 -44.5 -51.5t-7.5 -53.5v-141q0 -31 1 -48t5.5 -33.5t12 -24t22 -13.5t33.5 -7.5t49 -1.5h132q37 0 65.5 19.5t83.5 73.5l27 26l263 268q10 10 10 26t-9 25l-263 256q-5 4 -12 7t-15 3z" />
    <glyph glyph-name="uniF673" unicode="&#xf673;" 
d="M495 651h34v130h-28l-1 -4q0 -3 -1 -5.5t-2 -4.5q-3 -4 -7 -6l-4 -2q-2 -1 -5 -1q-1 -1 -3 -1h-4h-2h-7v-28h30v-78zM868 324h-189q-6 0 -12 -1v246q0 22 -16 38.5t-38 16.5h-200q-15 0 -27.5 -7.5t-20 -20t-7.5 -27.5v-118q-6 2 -12 2h-189q-23 0 -39.5 -16.5
t-16.5 -39.5v-355q0 -15 7.5 -27.5t20 -20t27.5 -7.5h713q15 0 27.5 7.5t20 20t7.5 27.5v226q0 15 -7.5 28t-20.5 20.5t-28 7.5zM667 268q0 1 1 2t2 1h198q3 0 3 -3l1 -226q0 -1 -1 -1.5t-2 -0.5h-202v228zM410 569q0 2 3 2h200q1 0 1.5 -0.5t0.5 -1.5v-529h-205v529z
M154 397q0 3 3 3h199q2 0 2 -3v-357h-202q-3 0 -3 2zM750 376q6 -7 15 -10q10 -3 20 -3t19 3q4 1 8 3t7 5q7 6 11 14t4 19q0 12 -6 21l-2 2q-2 2 -3.5 3t-3.5 2q4 3 6.5 6.5t3.5 8t1 10.5q0 9 -4 16q-5 7 -11 12t-14 7q-6 2 -12 2.5t-11.5 -0.5t-10.5 -3q-4 -1 -8 -3.5
t-7 -5.5q-6 -6 -9 -15q-2 -4 -3 -9t-1 -10v-4h33v4q-1 8 3 13q3 4 10 4q6 0 9 -3q2 -1 3 -3t1 -5l-2 -6l-4 -3q-3 -1 -7 -2h-8l-5 1v-27h5h5h4q4 -1 7 -2t5 -4q1 -1 1.5 -3t0.5 -5q0 -6 -4 -10q-2 -2 -5 -3t-6 -1q-2 0 -4 0.5t-3 1.5q-3 1 -5 3q-2 3 -3 6q-1 2 -1 4v5l-1 4
h-32v-5q0 -11 4 -20q1 -3 2.5 -5.5t3.5 -5t4 -4.5zM289 508h-51q0 1 1 1.5t2 1.5q2 1 3.5 2.5t3.5 3t4 2.5q3 2 6.5 4t6.5 5q6 4 11 10l9 12q3 8 3 18t-4 18q-3 8 -10 13q-6 6 -14 9q-20 6 -38 -2q-10 -4 -16 -11q-3 -4 -5 -8t-3.5 -9t-2.5 -10.5t0 -10.5v-5h32v5v3
q0 1 0.5 2.5t0.5 3t0.5 3t1 2.5t0.5 3q2 3 5 5q3 1 6 1q6 0 10 -3.5t4 -10.5q0 -2 -0.5 -4t-1.5 -3l-1 -3l-2 -2t-2.5 -2t-2.5 -2t-2.5 -2t-2.5 -2q-5 -3 -8 -6q-2 -1 -4 -2.5t-4 -2.5t-3.5 -2.5t-3.5 -2.5q-4 -3 -7 -6l-6 -6q-6 -7 -9 -15q-2 -5 -2.5 -10t-0.5 -10v-5h97
v30z" />
    <glyph glyph-name="uniF674" unicode="&#xf674;" 
d="M447 -48q-5 0 -10 2q-104 35 -170.5 120t-73.5 191q-1 3 -1 7q0 44 -6 83t-13 62t-16 41.5t-13 23.5t-6 8q-15 16 -6 35q4 9 12.5 14t18.5 5q14 -1 32.5 -3t54.5 -11.5t57 -23.5q15 -10 29 -28t25 -40q13 39 20.5 91t9 94t0 86.5t-3 61.5t-2.5 25q0 4 0.5 8t2 7t3.5 6.5
t4.5 6t5.5 4.5q18 10 35 -2q10 -7 24 -18t50 -41t67.5 -60t67.5 -71.5t59 -78.5q7 52 1 112q-2 22 18 32q3 1 7 2t8 1t7.5 -1t7 -3t6.5 -4q2 -3 6 -7t14 -15.5t20 -25t22.5 -35t23 -45t21 -55t18 -65t11 -75.5t2.5 -86q0 -94 -48 -176t-130 -129q-5 -3 -10 -4t-10 -0.5
t-9.5 3t-8.5 5.5q-17 17 -6 38q2 5 4 9.5t3.5 8.5t3 8.5t2.5 9t1.5 9.5t1 9.5t0.5 8.5q1 48 -44 99.5t-108 95.5q13 -117 -18 -164q-3 -4 -6.5 -6.5t-7.5 -4.5t-8 -3h-7q-3 0 -6 1t-6 2.5t-6 3.5q-32 26 -66 46q-12 6 -15.5 18.5t3 24.5t19 15.5t24.5 -3.5q9 -5 18.5 -11
t19.5 -13q7 63 -12 152q-5 20 11.5 32.5t34.5 2.5q16 -9 36 -21.5t60 -42.5t70 -61.5t54 -75t24 -84.5q78 84 78 198q4 162 -63 285q-3 -42 -14.5 -73.5t-32.5 -46.5q-4 -2 -9 -3.5t-10 -1.5t-9 2q-15 5 -20 20q-19 61 -83 130.5t-138 129.5q11 -271 -69 -388
q-5 -8 -13.5 -11.5t-17.5 -2.5q-20 3 -26 22q-9 30 -25.5 62t-31.5 41q-7 5 -20 9.5t-29 8.5q31 -74 34 -179v-4q0 -91 56 -167.5t145 -105.5q13 -4 19 -16t1 -25q-3 -10 -11.5 -16t-18.5 -6z" />
    </font>
</defs>
</svg>
